<?xml version="1.0" encoding="UTF-8" standalone="no"?>
<!-- Created with Inkscape (http://www.inkscape.org/) -->

<svg
   xmlns:osb="http://www.openswatchbook.org/uri/2009/osb"
   xmlns:dc="http://purl.org/dc/elements/1.1/"
   xmlns:cc="http://creativecommons.org/ns#"
   xmlns:rdf="http://www.w3.org/1999/02/22-rdf-syntax-ns#"
   xmlns:svg="http://www.w3.org/2000/svg"
   xmlns="http://www.w3.org/2000/svg"
   xmlns:xlink="http://www.w3.org/1999/xlink"
   xmlns:sodipodi="http://sodipodi.sourceforge.net/DTD/sodipodi-0.dtd"
   xmlns:inkscape="http://www.inkscape.org/namespaces/inkscape"
   version="1.1"
   id="svg4485"
   width="657.60071"
   height="686.25787"
   viewBox="0 0 657.6007 686.25789"
   sodipodi:docname="first_floor.svg"
   inkscape:version="0.92.2 (5c3e80d, 2017-08-06)">
  <metadata
     id="metadata141">
    <rdf:RDF>
      <cc:Work
         rdf:about="">
        <dc:format>image/svg+xml</dc:format>
        <dc:type
           rdf:resource="http://purl.org/dc/dcmitype/StillImage" />
        <dc:title></dc:title>
      </cc:Work>
    </rdf:RDF>
  </metadata>
  <defs
     id="defs4489">
    <linearGradient
       inkscape:collect="always"
       id="Blue_to_fade-2">
      <stop
         style="stop-color:#57c3c7;stop-opacity:1;"
         offset="0"
         id="stop5095" />
      <stop
         style="stop-color:#57c3c7;stop-opacity:0;"
         offset="1"
         id="stop5097" />
    </linearGradient>
    <linearGradient
       id="linearGradient5843"
       osb:paint="solid">
      <stop
         style="stop-color:#000000;stop-opacity:1;"
         offset="0"
         id="stop5841" />
    </linearGradient>
    <inkscape:perspective
       sodipodi:type="inkscape:persp3d"
       inkscape:vp_x="0 : 341.97789 : 1"
       inkscape:vp_y="0 : 999.99999 : 0"
       inkscape:vp_z="1516.0488 : 341.97789 : 1"
       inkscape:persp3d-origin="758.0244 : 227.98526 : 1"
       id="perspective4155" />
    <linearGradient
       id="linearGradient5407"
       osb:paint="solid">
      <stop
         style="stop-color:#070707;stop-opacity:1;"
         offset="0"
         id="stop5405" />
    </linearGradient>
    <linearGradient
       inkscape:collect="always"
       xlink:href="#Blue_to_fade-2"
       id="linearGradient5101"
       x1="1267.8632"
       y1="414.52817"
       x2="1329.2903"
       y2="413.77817"
       gradientUnits="userSpaceOnUse"
       gradientTransform="translate(-834.04889,1.8595101)" />
  </defs>
  <sodipodi:namedview
     pagecolor="#332a29"
     bordercolor="#666666"
     borderopacity="1"
     objecttolerance="10"
     gridtolerance="10000"
     guidetolerance="10000"
     inkscape:pageopacity="0"
     inkscape:pageshadow="2"
     inkscape:window-width="1920"
     inkscape:window-height="974"
     id="namedview4487"
     showgrid="true"
     inkscape:zoom="1"
     inkscape:cx="100.29152"
     inkscape:cy="336.69907"
     inkscape:window-x="-9"
     inkscape:window-y="-9"
     inkscape:window-maximized="1"
     inkscape:current-layer="svg4485"
     inkscape:snap-nodes="true"
     inkscape:snap-grids="true"
     inkscape:snap-object-midpoints="true"
     inkscape:snap-global="false"
     inkscape:snap-bbox="false"
     inkscape:object-paths="true"
     inkscape:snap-others="true"
     inkscape:snap-smooth-nodes="false"
     inkscape:snap-midpoints="true"
     inkscape:snap-center="false"
     inkscape:snap-text-baseline="true"
     inkscape:object-nodes="true"
     inkscape:snap-intersection-paths="true"
     fit-margin-top="10"
     fit-margin-left="10"
     fit-margin-right="10"
     fit-margin-bottom="10"
     showguides="true"
     inkscape:guide-bbox="true"
     inkscape:pagecheckerboard="false"
     inkscape:measure-start="0,0"
     inkscape:measure-end="0,0">
    <inkscape:grid
       empspacing="1"
       type="xygrid"
       id="grid4496"
       spacingx="1"
       spacingy="1"
       originx="-604.22067"
       originy="-433.43265" />
  </sodipodi:namedview>
  <g
     id="camera.drive"
     transform="matrix(4.112065,2.0786332,-2.3509323,5.4894813,-1740.8975,-5124.054)"
     inkscape:label="camera.drive"
     style="stroke-width:0.18911324">
    <path
       id="path4918-2-7-1-2-4-2"
       d="m 895.65469,714.11415 h -0.32455 c -0.0861,0 -0.1682,0.009 -0.249,0.0211 v -0.67968 c 0,-0.39354 -0.39028,-0.71221 -0.87253,-0.71221 h -6.26201 c -0.48161,0 -0.87317,0.31866 -0.87317,0.71221 v 3.03968 c 0,0.39388 0.39156,0.71352 0.87317,0.71352 h 6.26201 c 0.48225,0 0.87253,-0.31964 0.87253,-0.71352 v -0.98093 c 0.0808,0.0128 0.16292,0.0211 0.249,0.0211 h 0.35543 l 1.70036,1.07618 v -3.79464 z"
       inkscape:connector-curvature="0"
       style="fill:#ececec;fill-opacity:1;stroke:#000000;stroke-width:0.19083194;stroke-miterlimit:4;stroke-dasharray:none;stroke-opacity:1" />
  </g>
  <g
     id="camera.garden"
     transform="matrix(4.4972015,-2.9410453,4.1734349,5.5754129,-6942.3239,-1323.8438)"
     inkscape:label="camera.garden"
     style="stroke-width:0.16215752">
    <path
       id="path4918-2-7-1-2-4-2-3"
       d="m 895.65469,714.11415 h -0.32455 c -0.0861,0 -0.1682,0.009 -0.249,0.0211 v -0.67968 c 0,-0.39354 -0.39028,-0.71221 -0.87253,-0.71221 h -6.26201 c -0.48161,0 -0.87317,0.31866 -0.87317,0.71221 v 3.03968 c 0,0.39388 0.39156,0.71352 0.87317,0.71352 h 6.26201 c 0.48225,0 0.87253,-0.31964 0.87253,-0.71352 v -0.98093 c 0.0808,0.0128 0.16292,0.0211 0.249,0.0211 h 0.35543 l 1.70036,1.07618 v -3.79464 z"
       inkscape:connector-curvature="0"
       style="fill:#ececec;fill-opacity:1;stroke:#000000;stroke-width:0.16363125;stroke-miterlimit:4;stroke-dasharray:none;stroke-opacity:1" />
  </g>
  <text
     xml:space="preserve"
     style="font-style:normal;font-weight:normal;font-size:36.73652267px;line-height:1.25;font-family:sans-serif;letter-spacing:0px;word-spacing:0px;fill:#000000;fill-opacity:1;stroke:none;stroke-width:1"
     x="-414.94791"
     y="63.024899"
     id="text4799-6"><tspan
       sodipodi:role="line"
       id="tspan4797-4"
       x="-414.94791"
       y="96.540749"
       style="stroke-width:1" /></text>
  <rect
     style="fill:#7e8086;fill-opacity:1;stroke:#000000;stroke-width:9.99999905;stroke-linecap:butt;stroke-linejoin:round;stroke-miterlimit:4;stroke-dasharray:none;stroke-dashoffset:0;stroke-opacity:1"
     id="rect4623-6"
     width="210.91544"
     height="197.25275"
     x="15"
     y="285.21805"
     inkscape:label="LivingRoomFloor" />
  <rect
     style="fill:#7e8086;fill-opacity:1;stroke:#000000;stroke-width:10;stroke-linecap:butt;stroke-linejoin:round;stroke-miterlimit:4;stroke-dasharray:none;stroke-dashoffset:0;stroke-opacity:1"
     id="rect4625-1"
     width="245.86919"
     height="206.70204"
     x="396.73138"
     y="91.535263"
     inkscape:label="KitchenFloor" />
  <rect
     style="fill:#7e8086;fill-opacity:1;stroke:#000000;stroke-width:10;stroke-linecap:butt;stroke-linejoin:round;stroke-miterlimit:4;stroke-dasharray:none;stroke-dashoffset:0;stroke-opacity:1"
     id="light.bedroom"
     width="247.46017"
     height="256.35526"
     x="395.14056"
     y="227.87523"
     inkscape:label="Bedroom" />
  <rect
     style="fill:#7e8086;fill-opacity:1;stroke:#000000;stroke-width:10;stroke-linecap:butt;stroke-linejoin:round;stroke-miterlimit:4;stroke-dasharray:none;stroke-dashoffset:0;stroke-opacity:1"
     id="rect4629-1"
     width="172.28241"
     height="483.11804"
     x="224.79193"
     y="91.466599"
     inkscape:label="HallFloor" />
  <rect
     style="fill:#7e8086;fill-opacity:1;stroke:none;stroke-width:1.99999988;stroke-linecap:butt;stroke-linejoin:round;stroke-miterlimit:4;stroke-dasharray:1.99999994, 11.99999962;stroke-dashoffset:0;stroke-opacity:1"
     id="binary_sensor.landing_motion"
     width="162.29575"
     height="381.00046"
     x="229.77106"
     y="96.463882"
     inkscape:label="binary_sensor.landing_motion" />
  <rect
     inkscape:label="Office"
     y="482.46658"
     x="224.79193"
     height="124.11804"
     width="172.28241"
     id="switch.desk_lights_switch"
     style="fill:#7e8086;fill-opacity:1;stroke:#000000;stroke-width:10;stroke-linecap:butt;stroke-linejoin:round;stroke-miterlimit:4;stroke-dasharray:none;stroke-dashoffset:0;stroke-opacity:1" />
  <rect
     inkscape:label="KitchenFloor"
     y="91.535263"
     x="517.73138"
     height="136.32704"
     width="124.86919"
     id="rect4909"
     style="fill:#7e8086;fill-opacity:1;stroke:#000000;stroke-width:10;stroke-linecap:butt;stroke-linejoin:round;stroke-miterlimit:4;stroke-dasharray:none;stroke-dashoffset:0;stroke-opacity:1" />
  <g
     inkscape:label="Stairs"
     id="g6818"
     transform="matrix(0.99002389,0,0,1.4814611,2.2795108,-56.793439)"
     style="stroke-width:0.82571852">
    <rect
       style="fill:#a5a7a9;fill-opacity:1;stroke:#000000;stroke-width:1.65143704;stroke-linecap:butt;stroke-linejoin:round;stroke-miterlimit:4;stroke-dasharray:none;stroke-dashoffset:0;stroke-opacity:1"
       id="rect6806"
       width="79.588165"
       height="19.606888"
       x="229.17975"
       y="262.28516"
       inkscape:label="Step" />
    <rect
       inkscape:label="Step"
       y="245.41016"
       x="229.17975"
       height="24.731888"
       width="79.588165"
       id="rect6808"
       style="fill:#a5a7a9;fill-opacity:1;stroke:#000000;stroke-width:1.65143704;stroke-linecap:butt;stroke-linejoin:round;stroke-miterlimit:4;stroke-dasharray:none;stroke-dashoffset:0;stroke-opacity:1" />
    <rect
       style="fill:#a5a7a9;fill-opacity:1;stroke:#000000;stroke-width:1.65143704;stroke-linecap:butt;stroke-linejoin:round;stroke-miterlimit:4;stroke-dasharray:none;stroke-dashoffset:0;stroke-opacity:1"
       id="rect6810"
       width="79.588165"
       height="27.981888"
       x="229.17975"
       y="226.28516"
       inkscape:label="Step" />
    <rect
       inkscape:label="Step"
       y="206.28516"
       x="229.17975"
       height="29.856888"
       width="79.588165"
       id="rect6812"
       style="fill:#a5a7a9;fill-opacity:1;stroke:#000000;stroke-width:1.65143704;stroke-linecap:butt;stroke-linejoin:round;stroke-miterlimit:4;stroke-dasharray:none;stroke-dashoffset:0;stroke-opacity:1" />
    <rect
       style="fill:#a5a7a9;fill-opacity:1;stroke:#000000;stroke-width:1.65143704;stroke-linecap:butt;stroke-linejoin:round;stroke-miterlimit:4;stroke-dasharray:none;stroke-dashoffset:0;stroke-opacity:1"
       id="rect6814"
       width="79.588165"
       height="24.731888"
       x="229.17975"
       y="186.28516"
       inkscape:label="Step" />
    <rect
       inkscape:label="Step"
       y="165.14238"
       x="229.17975"
       height="22.749655"
       width="79.588165"
       id="rect6816"
       style="fill:#a5a7a9;fill-opacity:1;stroke:#000000;stroke-width:1.65143704;stroke-linecap:butt;stroke-linejoin:round;stroke-miterlimit:4;stroke-dasharray:none;stroke-dashoffset:0;stroke-opacity:1" />
  </g>
  <rect
     style="fill:#a1e6f4;fill-opacity:1;stroke:#000000;stroke-width:3;stroke-linecap:butt;stroke-linejoin:round;stroke-miterlimit:4;stroke-dasharray:none;stroke-dashoffset:0;stroke-opacity:1"
     id="rect4917"
     width="64.288918"
     height="6.9850001"
     x="278.31952"
     y="87.961403" />
  <rect
     style="fill:#a1e6f4;fill-opacity:1;stroke:#000000;stroke-width:3;stroke-linecap:butt;stroke-linejoin:round;stroke-miterlimit:4;stroke-dasharray:none;stroke-dashoffset:0;stroke-opacity:1"
     id="rect4921"
     width="115.20061"
     height="6.9850001"
     x="65.13269"
     y="478.97223" />
  <rect
     y="480.73566"
     x="438.37799"
     height="6.9850001"
     width="173.18336"
     id="rect4923"
     style="fill:#a1e6f4;fill-opacity:1;stroke:#000000;stroke-width:3;stroke-linecap:butt;stroke-linejoin:round;stroke-miterlimit:4;stroke-dasharray:none;stroke-dashoffset:0;stroke-opacity:1" />
  <rect
     y="221.12701"
     x="370.9827"
     height="6.9850001"
     width="64.288918"
     id="rect4929"
     style="fill:#80610f;fill-opacity:1;stroke:#000000;stroke-width:3;stroke-linecap:butt;stroke-linejoin:round;stroke-miterlimit:4;stroke-dasharray:none;stroke-dashoffset:0;stroke-opacity:1"
     transform="matrix(0,1,1,0,0,0)" />
  <rect
     y="393.58051"
     x="131.05473"
     height="6.9850001"
     width="64.288918"
     id="rect4933"
     style="fill:#80610f;fill-opacity:1;stroke:#000000;stroke-width:3;stroke-linecap:butt;stroke-linejoin:round;stroke-miterlimit:4;stroke-dasharray:none;stroke-dashoffset:0;stroke-opacity:1"
     transform="matrix(0,1,1,0,0,0)" />
  <rect
     y="224.33632"
     x="551.46552"
     height="6.9850001"
     width="64.288918"
     id="rect4935"
     style="fill:#80610f;fill-opacity:1;stroke:#000000;stroke-width:3;stroke-linecap:butt;stroke-linejoin:round;stroke-miterlimit:4;stroke-dasharray:none;stroke-dashoffset:0;stroke-opacity:1"
     inkscape:label="EnsuiteDoor" />
  <rect
     inkscape:label="LivingRoomFloor"
     y="91.47081"
     x="15"
     height="204.9203"
     width="209.66544"
     id="rect4911"
     style="fill:#7e8086;fill-opacity:1;stroke:#000000;stroke-width:10;stroke-linecap:butt;stroke-linejoin:round;stroke-miterlimit:4;stroke-dasharray:none;stroke-dashoffset:0;stroke-opacity:1" />
  <rect
     transform="matrix(0,1,1,0,0,0)"
     style="fill:#80610f;fill-opacity:1;stroke:#000000;stroke-width:3;stroke-linecap:butt;stroke-linejoin:round;stroke-miterlimit:4;stroke-dasharray:none;stroke-dashoffset:0;stroke-opacity:1"
     id="rect4931"
     width="64.288918"
     height="6.9850001"
     x="114.53147"
     y="221.23383"
     inkscape:label="ThomasDoor" />
  <g
     id="g4206"
     transform="matrix(0,0.19063412,-0.19063412,0,469.65411,367.52089)"
     style="stroke-width:3.73210979">
    <path
       inkscape:connector-curvature="0"
       d="m 495.5,212 h -71.865 l 6.573,-13.146 c 1.163,-2.325 1.039,-5.086 -0.328,-7.297 C 428.513,189.346 426.099,188 423.5,188 h -336 c -2.599,0 -5.013,1.346 -6.38,3.557 -1.367,2.211 -1.491,4.972 -0.328,7.297 L 87.365,212 H 15.5 C 6.953,212 0,218.954 0,227.5 v 80 c 0,8.547 6.953,15.5 15.5,15.5 h 480 c 8.547,0 15.5,-6.953 15.5,-15.5 v -80 c 0,-8.546 -6.953,-15.5 -15.5,-15.5 z m -84.135,-9 -16.5,33 h -278.73 l -16.5,-33 z M 167,251 h 177 v 8.5 c 0,0.276 -0.224,0.5 -0.5,0.5 h -176 c -0.276,0 -0.5,-0.224 -0.5,-0.5 z m 329,56.5 c 0,0.276 -0.224,0.5 -0.5,0.5 h -480 c -0.276,0 -0.5,-0.224 -0.5,-0.5 v -80 c 0,-0.275 0.224,-0.5 0.5,-0.5 h 79.365 l 9.927,19.854 c 1.27,2.541 3.867,4.146 6.708,4.146 H 152 v 8.5 c 0,8.547 6.953,15.5 15.5,15.5 h 176 c 8.547,0 15.5,-6.953 15.5,-15.5 V 251 h 40.5 c 2.841,0 5.438,-1.604 6.708,-4.146 L 416.135,227 H 495.5 c 0.276,0 0.5,0.225 0.5,0.5 z"
       id="path4198"
       style="stroke-width:3.73210979" />
    <path
       inkscape:connector-curvature="0"
       d="m 103.5,252 h -48 c -4.142,0 -7.5,3.358 -7.5,7.5 v 32 c 0,4.143 3.358,7.5 7.5,7.5 h 48 c 4.142,0 7.5,-3.357 7.5,-7.5 v -32 c 0,-4.142 -3.358,-7.5 -7.5,-7.5 z M 96,284 H 63 v -17 h 33 z"
       id="path4200"
       style="stroke-width:3.73210979" />
    <path
       inkscape:connector-curvature="0"
       d="m 127.5,268 c -4.142,0 -7.5,3.358 -7.5,7.5 v 16 c 0,4.143 3.358,7.5 7.5,7.5 4.142,0 7.5,-3.357 7.5,-7.5 v -16 c 0,-4.142 -3.358,-7.5 -7.5,-7.5 z"
       id="path4202"
       style="stroke-width:3.73210979" />
    <path
       inkscape:connector-curvature="0"
       d="m 479.5,236 h -32 c -4.142,0 -7.5,3.358 -7.5,7.5 v 8.5 h -16.5 c -4.142,0 -7.5,3.358 -7.5,7.5 v 40 c 0,4.143 3.358,7.5 7.5,7.5 h 32 c 4.142,0 7.5,-3.357 7.5,-7.5 V 291 h 16.5 c 4.142,0 7.5,-3.357 7.5,-7.5 v -40 c 0,-4.142 -3.358,-7.5 -7.5,-7.5 z M 448,292 h -17 v -25 h 16.437 c 0.021,0 0.042,0.003 0.063,0.003 0.021,0 0.042,-0.003 0.063,-0.003 H 448 Z m 24,-16 h -9 v -16.5 c 0,-4.142 -3.358,-7.5 -7.5,-7.5 H 455 v -1 h 17 z"
       id="path4204"
       style="stroke-width:3.73210979" />
  </g>
  <g
     transform="matrix(0.0981194,0,0,0.0981194,464.05411,97.836585)"
     id="g4866">
    <g
       id="g4834">
      <path
         inkscape:connector-curvature="0"
         d="M 423.5,0 H 87.5 C 74.542,0 64,10.542 64,23.5 v 64 c 0,21.379 9.444,40.582 24.364,53.696 C 88.13,141.922 88,142.696 88,143.5 v 200 C 88,435.86 163.14,511 255.5,511 347.86,511 423,435.86 423,343.5 v -200 c 0,-0.804 -0.13,-1.578 -0.364,-2.304 C 437.556,128.082 447,108.879 447,87.5 v -64 C 447,10.542 436.458,0 423.5,0 Z M 408,343.5 C 408,427.589 339.589,496 255.5,496 171.411,496 103,427.589 103,343.5 V 151.154 c 9.759,5.003 20.8,7.846 32.5,7.846 h 240 c 11.7,0 22.741,-2.843 32.5,-7.846 z m 24,-256 c 0,31.154 -25.346,56.5 -56.5,56.5 h -240 C 104.346,144 79,118.654 79,87.5 v -64 C 79,18.813 82.813,15 87.5,15 h 336 c 4.687,0 8.5,3.813 8.5,8.5 z"
         id="path4824" />
      <path
         inkscape:connector-curvature="0"
         d="m 303.5,192 h -96 c -39.425,0 -71.5,32.075 -71.5,71.5 v 76.837 c 0,31.258 11.604,61.138 32.673,84.135 21.347,23.301 50.135,36.936 81.061,38.392 1.952,0.092 3.895,0.138 5.834,0.138 30.882,0 59.958,-11.607 82.409,-33.027 C 361.852,407.197 375,376.487 375,343.5 v -80 C 375,224.075 342.925,192 303.5,192 Z M 360,343.5 c 0,28.846 -11.499,55.703 -32.377,75.622 -20.865,19.906 -48.266,30.118 -77.184,28.759 -26.941,-1.269 -52.052,-13.18 -70.706,-33.541 C 161.204,394.116 151,367.834 151,340.337 V 263.5 c 0,-31.154 25.346,-56.5 56.5,-56.5 h 96 c 31.154,0 56.5,25.346 56.5,56.5 z"
         id="path4826" />
      <path
         inkscape:connector-curvature="0"
         d="m 255.5,232 c -26.191,0 -47.5,21.309 -47.5,47.5 0,26.191 21.309,47.5 47.5,47.5 26.191,0 47.5,-21.309 47.5,-47.5 0,-26.191 -21.309,-47.5 -47.5,-47.5 z m 0,80 c -17.92,0 -32.5,-14.58 -32.5,-32.5 0,-17.92 14.58,-32.5 32.5,-32.5 17.92,0 32.5,14.58 32.5,32.5 0,17.92 -14.58,32.5 -32.5,32.5 z"
         id="path4828" />
      <path
         inkscape:connector-curvature="0"
         d="M 223.5,56 C 210.542,56 200,66.542 200,79.5 200,92.458 210.542,103 223.5,103 236.458,103 247,92.458 247,79.5 247,66.542 236.458,56 223.5,56 Z m 0,32 c -4.687,0 -8.5,-3.813 -8.5,-8.5 0,-4.687 3.813,-8.5 8.5,-8.5 4.687,0 8.5,3.813 8.5,8.5 0,4.687 -3.813,8.5 -8.5,8.5 z"
         id="path4830" />
      <path
         inkscape:connector-curvature="0"
         d="M 287.5,48 C 270.131,48 256,62.131 256,79.5 256,96.869 270.131,111 287.5,111 304.869,111 319,96.869 319,79.5 319,62.131 304.869,48 287.5,48 Z m 0,48 C 278.402,96 271,88.598 271,79.5 271,70.402 278.402,63 287.5,63 c 9.098,0 16.5,7.402 16.5,16.5 0,9.098 -7.402,16.5 -16.5,16.5 z"
         id="path4832" />
    </g>
    <g
       id="g4836" />
    <g
       id="g4838" />
    <g
       id="g4840" />
    <g
       id="g4842" />
    <g
       id="g4844" />
    <g
       id="g4846" />
    <g
       id="g4848" />
    <g
       id="g4850" />
    <g
       id="g4852" />
    <g
       id="g4854" />
    <g
       id="g4856" />
    <g
       id="g4858" />
    <g
       id="g4860" />
    <g
       id="g4862" />
    <g
       id="g4864" />
  </g>
  <g
     transform="matrix(0.09196347,0,0,0.09196347,405.91571,91.94594)"
     id="g4910">
    <g
       id="g4878">
      <path
         inkscape:connector-curvature="0"
         d="M 487.5,68 H 23.5 C 10.542,68 0,78.542 0,91.5 v 96 C 0,255.747 26.577,319.908 74.834,368.166 123.092,416.423 187.254,443 255.5,443 323.746,443 387.908,416.423 436.166,368.166 484.423,319.908 511,255.747 511,187.5 v -96 C 511,78.542 500.458,68 487.5,68 Z m 8.5,119.5 c 0,64.24 -25.016,124.634 -70.44,170.059 C 380.135,402.984 319.74,428 255.5,428 v 0 C 191.26,428 130.866,402.984 85.441,357.56 40.016,312.135 15,251.74 15,187.5 v -96 C 15,86.813 18.813,83 23.5,83 h 464 c 4.687,0 8.5,3.813 8.5,8.5 z"
         id="path4868" />
      <path
         inkscape:connector-curvature="0"
         d="M 436.06,156 H 316.832 c -0.413,-0.816 -0.857,-1.623 -1.358,-2.41 l -31.019,-48.744 c -0.294,-0.462 -0.637,-0.89 -1.024,-1.277 -15.401,-15.401 -40.46,-15.401 -55.861,0 -7.52,7.52 -11.358,17.343 -11.534,27.22 -0.04,0.427 -0.038,0.864 -0.003,1.305 0.04,2.654 0.346,5.304 0.916,7.908 L 218.831,156 H 74.94 C 60.085,156 48,168.085 48,182.94 v 4.56 c 0,54.72 21.193,106.387 59.675,145.483 38.437,39.05 89.672,61.064 144.267,61.987 1.152,0.02 2.293,0.029 3.443,0.029 53.444,-0.002 104.244,-21.065 143.371,-59.537 C 439.584,295.319 463,239.731 463,182.94 463,168.085 450.915,156 436.06,156 Z M 255.5,107 c 6.287,0 12.212,2.352 16.771,6.64 l 30.548,48.004 c 0.506,0.795 0.902,1.63 1.211,2.483 0.071,0.855 0.284,1.668 0.618,2.417 0.552,3.778 -0.672,7.697 -3.554,10.579 -4.147,4.147 -10.501,4.847 -15.451,1.696 L 237.64,148.271 c -2.897,-3.08 -4.885,-6.792 -5.886,-10.81 l -0.744,-6.327 c 0.093,-6.407 2.626,-12.418 7.167,-16.959 C 242.803,109.548 248.956,107 255.5,107 Z m 19.257,82.671 -8.503,61.117 c -0.731,5.251 -5.281,9.212 -10.583,9.212 -5.417,0 -9.978,-4.057 -10.611,-9.436 l -10.147,-86.249 z m 113.482,135.096 c -37.077,36.456 -85.398,56.072 -136.043,55.206 -50.64,-0.856 -98.168,-21.281 -133.831,-57.511 C 82.663,286.188 63,238.258 63,187.5 v -4.56 C 63,176.357 68.356,171 74.94,171 h 145.655 l 9.567,81.316 c 1.521,12.932 12.487,22.684 25.508,22.684 12.746,0 23.683,-9.52 25.439,-22.145 l 7.967,-57.263 c 1.085,0.131 2.174,0.21 3.262,0.21 7.059,0 14.045,-2.757 19.391,-8.103 4.657,-4.657 7.333,-10.573 7.935,-16.7 H 436.06 c 6.583,0 11.94,5.356 11.94,11.953 0,52.783 -21.782,104.473 -59.761,141.815 z"
         id="path4870" />
      <path
         inkscape:connector-curvature="0"
         d="m 255.5,139 c 1.97,0 3.91,-0.8 5.3,-2.2 1.4,-1.39 2.2,-3.33 2.2,-5.3 0,-1.97 -0.8,-3.91 -2.2,-5.3 -1.39,-1.4 -3.33,-2.2 -5.3,-2.2 -1.97,0 -3.91,0.8 -5.3,2.2 -1.4,1.39 -2.2,3.33 -2.2,5.3 0,1.97 0.8,3.91 2.2,5.3 1.39,1.4 3.33,2.2 5.3,2.2 z"
         id="path4872" />
      <path
         inkscape:connector-curvature="0"
         d="m 71.5,115 h 96 c 4.142,0 7.5,-3.358 7.5,-7.5 0,-4.142 -3.358,-7.5 -7.5,-7.5 h -96 c -4.142,0 -7.5,3.358 -7.5,7.5 0,4.142 3.358,7.5 7.5,7.5 z"
         id="path4874" />
      <path
         inkscape:connector-curvature="0"
         d="m 71.5,139 h 96 c 4.142,0 7.5,-3.358 7.5,-7.5 0,-4.142 -3.358,-7.5 -7.5,-7.5 h -96 c -4.142,0 -7.5,3.358 -7.5,7.5 0,4.142 3.358,7.5 7.5,7.5 z"
         id="path4876" />
    </g>
    <g
       id="g4880" />
    <g
       id="g4882" />
    <g
       id="g4884" />
    <g
       id="g4886" />
    <g
       id="g4888" />
    <g
       id="g4890" />
    <g
       id="g4892" />
    <g
       id="g4894" />
    <g
       id="g4896" />
    <g
       id="g4898" />
    <g
       id="g4900" />
    <g
       id="g4902" />
    <g
       id="g4904" />
    <g
       id="g4906" />
    <g
       id="g4908" />
  </g>
  <rect
     y="88.120682"
     x="429.85736"
     height="6.9850001"
     width="64.288918"
     id="rect4915"
     style="fill:#a1e6f4;fill-opacity:1;stroke:#000000;stroke-width:3;stroke-linecap:butt;stroke-linejoin:round;stroke-miterlimit:4;stroke-dasharray:none;stroke-dashoffset:0;stroke-opacity:1" />
  <g
     id="g4954"
     transform="matrix(0,-0.09196347,0.09196347,0,516.82581,208.24769)">
    <g
       id="g4922">
      <path
         id="path4912"
         d="M 487.5,68 H 23.5 C 10.542,68 0,78.542 0,91.5 v 96 C 0,255.747 26.577,319.908 74.834,368.166 123.092,416.423 187.254,443 255.5,443 323.746,443 387.908,416.423 436.166,368.166 484.423,319.908 511,255.747 511,187.5 v -96 C 511,78.542 500.458,68 487.5,68 Z m 8.5,119.5 c 0,64.24 -25.016,124.634 -70.44,170.059 C 380.135,402.984 319.74,428 255.5,428 v 0 C 191.26,428 130.866,402.984 85.441,357.56 40.016,312.135 15,251.74 15,187.5 v -96 C 15,86.813 18.813,83 23.5,83 h 464 c 4.687,0 8.5,3.813 8.5,8.5 z"
         inkscape:connector-curvature="0" />
      <path
         id="path4914"
         d="M 436.06,156 H 316.832 c -0.413,-0.816 -0.857,-1.623 -1.358,-2.41 l -31.019,-48.744 c -0.294,-0.462 -0.637,-0.89 -1.024,-1.277 -15.401,-15.401 -40.46,-15.401 -55.861,0 -7.52,7.52 -11.358,17.343 -11.534,27.22 -0.04,0.427 -0.038,0.864 -0.003,1.305 0.04,2.654 0.346,5.304 0.916,7.908 L 218.831,156 H 74.94 C 60.085,156 48,168.085 48,182.94 v 4.56 c 0,54.72 21.193,106.387 59.675,145.483 38.437,39.05 89.672,61.064 144.267,61.987 1.152,0.02 2.293,0.029 3.443,0.029 53.444,-0.002 104.244,-21.065 143.371,-59.537 C 439.584,295.319 463,239.731 463,182.94 463,168.085 450.915,156 436.06,156 Z M 255.5,107 c 6.287,0 12.212,2.352 16.771,6.64 l 30.548,48.004 c 0.506,0.795 0.902,1.63 1.211,2.483 0.071,0.855 0.284,1.668 0.618,2.417 0.552,3.778 -0.672,7.697 -3.554,10.579 -4.147,4.147 -10.501,4.847 -15.451,1.696 L 237.64,148.271 c -2.897,-3.08 -4.885,-6.792 -5.886,-10.81 l -0.744,-6.327 c 0.093,-6.407 2.626,-12.418 7.167,-16.959 C 242.803,109.548 248.956,107 255.5,107 Z m 19.257,82.671 -8.503,61.117 c -0.731,5.251 -5.281,9.212 -10.583,9.212 -5.417,0 -9.978,-4.057 -10.611,-9.436 l -10.147,-86.249 z m 113.482,135.096 c -37.077,36.456 -85.398,56.072 -136.043,55.206 -50.64,-0.856 -98.168,-21.281 -133.831,-57.511 C 82.663,286.188 63,238.258 63,187.5 v -4.56 C 63,176.357 68.356,171 74.94,171 h 145.655 l 9.567,81.316 c 1.521,12.932 12.487,22.684 25.508,22.684 12.746,0 23.683,-9.52 25.439,-22.145 l 7.967,-57.263 c 1.085,0.131 2.174,0.21 3.262,0.21 7.059,0 14.045,-2.757 19.391,-8.103 4.657,-4.657 7.333,-10.573 7.935,-16.7 H 436.06 c 6.583,0 11.94,5.356 11.94,11.953 0,52.783 -21.782,104.473 -59.761,141.815 z"
         inkscape:connector-curvature="0" />
      <path
         id="path4916"
         d="m 255.5,139 c 1.97,0 3.91,-0.8 5.3,-2.2 1.4,-1.39 2.2,-3.33 2.2,-5.3 0,-1.97 -0.8,-3.91 -2.2,-5.3 -1.39,-1.4 -3.33,-2.2 -5.3,-2.2 -1.97,0 -3.91,0.8 -5.3,2.2 -1.4,1.39 -2.2,3.33 -2.2,5.3 0,1.97 0.8,3.91 2.2,5.3 1.39,1.4 3.33,2.2 5.3,2.2 z"
         inkscape:connector-curvature="0" />
      <path
         id="path4918"
         d="m 71.5,115 h 96 c 4.142,0 7.5,-3.358 7.5,-7.5 0,-4.142 -3.358,-7.5 -7.5,-7.5 h -96 c -4.142,0 -7.5,3.358 -7.5,7.5 0,4.142 3.358,7.5 7.5,7.5 z"
         inkscape:connector-curvature="0" />
      <path
         id="path4920"
         d="m 71.5,139 h 96 c 4.142,0 7.5,-3.358 7.5,-7.5 0,-4.142 -3.358,-7.5 -7.5,-7.5 h -96 c -4.142,0 -7.5,3.358 -7.5,7.5 0,4.142 3.358,7.5 7.5,7.5 z"
         inkscape:connector-curvature="0" />
    </g>
    <g
       id="g4924" />
    <g
       id="g4926" />
    <g
       id="g4928" />
    <g
       id="g4930" />
    <g
       id="g4932" />
    <g
       id="g4934" />
    <g
       id="g4936" />
    <g
       id="g4938" />
    <g
       id="g4940" />
    <g
       id="g4942" />
    <g
       id="g4944" />
    <g
       id="g4946" />
    <g
       id="g4948" />
    <g
       id="g4950" />
    <g
       id="g4952" />
  </g>
  <g
     id="g4998"
     transform="matrix(0.0981194,0,0,0.0981194,525.08941,97.37024)">
    <g
       id="g4966">
      <path
         id="path4956"
         d="M 423.5,0 H 87.5 C 74.542,0 64,10.542 64,23.5 v 64 c 0,21.379 9.444,40.582 24.364,53.696 C 88.13,141.922 88,142.696 88,143.5 v 200 C 88,435.86 163.14,511 255.5,511 347.86,511 423,435.86 423,343.5 v -200 c 0,-0.804 -0.13,-1.578 -0.364,-2.304 C 437.556,128.082 447,108.879 447,87.5 v -64 C 447,10.542 436.458,0 423.5,0 Z M 408,343.5 C 408,427.589 339.589,496 255.5,496 171.411,496 103,427.589 103,343.5 V 151.154 c 9.759,5.003 20.8,7.846 32.5,7.846 h 240 c 11.7,0 22.741,-2.843 32.5,-7.846 z m 24,-256 c 0,31.154 -25.346,56.5 -56.5,56.5 h -240 C 104.346,144 79,118.654 79,87.5 v -64 C 79,18.813 82.813,15 87.5,15 h 336 c 4.687,0 8.5,3.813 8.5,8.5 z"
         inkscape:connector-curvature="0" />
      <path
         id="path4958"
         d="m 303.5,192 h -96 c -39.425,0 -71.5,32.075 -71.5,71.5 v 76.837 c 0,31.258 11.604,61.138 32.673,84.135 21.347,23.301 50.135,36.936 81.061,38.392 1.952,0.092 3.895,0.138 5.834,0.138 30.882,0 59.958,-11.607 82.409,-33.027 C 361.852,407.197 375,376.487 375,343.5 v -80 C 375,224.075 342.925,192 303.5,192 Z M 360,343.5 c 0,28.846 -11.499,55.703 -32.377,75.622 -20.865,19.906 -48.266,30.118 -77.184,28.759 -26.941,-1.269 -52.052,-13.18 -70.706,-33.541 C 161.204,394.116 151,367.834 151,340.337 V 263.5 c 0,-31.154 25.346,-56.5 56.5,-56.5 h 96 c 31.154,0 56.5,25.346 56.5,56.5 z"
         inkscape:connector-curvature="0" />
      <path
         id="path4960"
         d="m 255.5,232 c -26.191,0 -47.5,21.309 -47.5,47.5 0,26.191 21.309,47.5 47.5,47.5 26.191,0 47.5,-21.309 47.5,-47.5 0,-26.191 -21.309,-47.5 -47.5,-47.5 z m 0,80 c -17.92,0 -32.5,-14.58 -32.5,-32.5 0,-17.92 14.58,-32.5 32.5,-32.5 17.92,0 32.5,14.58 32.5,32.5 0,17.92 -14.58,32.5 -32.5,32.5 z"
         inkscape:connector-curvature="0" />
      <path
         id="path4962"
         d="M 223.5,56 C 210.542,56 200,66.542 200,79.5 200,92.458 210.542,103 223.5,103 236.458,103 247,92.458 247,79.5 247,66.542 236.458,56 223.5,56 Z m 0,32 c -4.687,0 -8.5,-3.813 -8.5,-8.5 0,-4.687 3.813,-8.5 8.5,-8.5 4.687,0 8.5,3.813 8.5,8.5 0,4.687 -3.813,8.5 -8.5,8.5 z"
         inkscape:connector-curvature="0" />
      <path
         id="path4964"
         d="M 287.5,48 C 270.131,48 256,62.131 256,79.5 256,96.869 270.131,111 287.5,111 304.869,111 319,96.869 319,79.5 319,62.131 304.869,48 287.5,48 Z m 0,48 C 278.402,96 271,88.598 271,79.5 271,70.402 278.402,63 287.5,63 c 9.098,0 16.5,7.402 16.5,16.5 0,9.098 -7.402,16.5 -16.5,16.5 z"
         inkscape:connector-curvature="0" />
    </g>
    <g
       id="g4968" />
    <g
       id="g4970" />
    <g
       id="g4972" />
    <g
       id="g4974" />
    <g
       id="g4976" />
    <g
       id="g4978" />
    <g
       id="g4980" />
    <g
       id="g4982" />
    <g
       id="g4984" />
    <g
       id="g4986" />
    <g
       id="g4988" />
    <g
       id="g4990" />
    <g
       id="g4992" />
    <g
       id="g4994" />
    <g
       id="g4996" />
  </g>
  <rect
     style="fill:#a1e6f4;fill-opacity:1;stroke:#000000;stroke-width:3;stroke-linecap:butt;stroke-linejoin:round;stroke-miterlimit:4;stroke-dasharray:none;stroke-dashoffset:0;stroke-opacity:1"
     id="rect4913"
     width="64.289001"
     height="6.9850001"
     x="532.38861"
     y="88.011177" />
  <g
     id="g5247"
     transform="matrix(0,-0.16703926,0.16703926,0,316.19871,586.32918)">
    <g
       id="g5188">
      <path
         id="path5180"
         d="M 487.5,192 H 335 V 143.5 C 335,130.542 324.458,120 311.5,120 H 263 v -9 h 48.5 c 10.336,0 19.128,-6.71 22.266,-16 h 1.734 c 4.687,0 8.5,3.813 8.5,8.5 v 72 c 0,4.142 3.358,7.5 7.5,7.5 4.142,0 7.5,-3.358 7.5,-7.5 v -72 C 359,90.542 348.458,80 335.5,80 h -1.734 C 330.628,70.71 321.836,64 311.5,64 h -112 c -10.336,0 -19.128,6.71 -22.266,16 H 175.5 C 162.542,80 152,90.542 152,103.5 v 72 c 0,4.142 3.358,7.5 7.5,7.5 4.142,0 7.5,-3.358 7.5,-7.5 v -72 c 0,-4.687 3.813,-8.5 8.5,-8.5 h 1.734 c 3.138,9.29 11.93,16 22.266,16 H 248 v 9 H 199.5 C 186.542,120 176,130.542 176,143.5 V 192 H 23.5 C 10.542,192 0,202.542 0,215.5 v 208 C 0,436.458 10.542,447 23.5,447 h 464 c 12.958,0 23.5,-10.542 23.5,-23.5 v -208 C 511,202.542 500.458,192 487.5,192 Z M 191,87.5 c 0,-4.687 3.813,-8.5 8.5,-8.5 h 112 c 4.687,0 8.5,3.813 8.5,8.5 0,4.687 -3.813,8.5 -8.5,8.5 h -112 c -4.687,0 -8.5,-3.813 -8.5,-8.5 z m 0,56 c 0,-4.687 3.813,-8.5 8.5,-8.5 h 112 c 4.687,0 8.5,3.813 8.5,8.5 V 192 H 191 Z m 305,280 c 0,4.687 -3.813,8.5 -8.5,8.5 h -464 c -4.687,0 -8.5,-3.813 -8.5,-8.5 v -208 c 0,-4.687 3.813,-8.5 8.5,-8.5 h 464 c 4.687,0 8.5,3.813 8.5,8.5 z"
         inkscape:connector-curvature="0" />
      <path
         id="path5182"
         d="M 342.776,333.681 C 341.942,330.342 338.942,328 335.5,328 H 287 v -16.5 c 0,-4.142 -3.358,-7.5 -7.5,-7.5 h -48 c -4.142,0 -7.5,3.358 -7.5,7.5 V 328 h -48.5 c -3.441,0 -6.441,2.342 -7.276,5.681 l -16,64 c -0.561,2.24 -0.057,4.614 1.364,6.435 1.421,1.821 3.602,2.884 5.912,2.884 h 192 c 2.31,0 4.49,-1.064 5.912,-2.884 1.422,-1.82 1.925,-4.194 1.364,-6.435 z M 239,319 h 33 v 9 h -33 z m -69.894,73 12.25,-49 h 148.288 l 12.25,49 z"
         inkscape:connector-curvature="0" />
      <path
         id="path5184"
         d="m 183.5,271 h 128 c 4.142,0 7.5,-3.358 7.5,-7.5 v -32 c 0,-4.142 -3.358,-7.5 -7.5,-7.5 h -128 c -4.142,0 -7.5,3.358 -7.5,7.5 v 32 c 0,4.142 3.358,7.5 7.5,7.5 z m 7.5,-32 h 113 v 17 H 191 Z"
         inkscape:connector-curvature="0" />
      <path
         id="path5186"
         d="m 343.5,263 c 4.142,0 7.5,-3.358 7.5,-7.5 v -16 c 0,-4.142 -3.358,-7.5 -7.5,-7.5 -4.142,0 -7.5,3.358 -7.5,7.5 v 16 c 0,4.142 3.358,7.5 7.5,7.5 z"
         inkscape:connector-curvature="0" />
    </g>
    <g
       id="g5190" />
    <g
       id="g5192" />
    <g
       id="g5194" />
    <g
       id="g5196" />
    <g
       id="g5198" />
    <g
       id="g5200" />
    <g
       id="g5202" />
    <g
       id="g5204" />
    <g
       id="g5206" />
    <g
       id="g5208" />
    <g
       id="g5210" />
    <g
       id="g5212" />
    <g
       id="g5214" />
    <g
       id="g5216" />
    <g
       id="g5218" />
  </g>
  <g
     id="g5367"
     transform="matrix(-0.17762817,0,0,-0.17762817,235.23191,288.32534)">
    <path
       id="path5312"
       d="m 407.5,0 h -304 C 99.358,0 96,3.358 96,7.5 v 24 c 0,4.142 3.358,7.5 7.5,7.5 H 120 v 433 h -0.5 c -4.142,0 -7.5,3.358 -7.5,7.5 v 24 c 0,4.142 3.358,7.5 7.5,7.5 h 272 c 4.142,0 7.5,-3.358 7.5,-7.5 v -24 c 0,-4.142 -3.358,-7.5 -7.5,-7.5 H 391 V 39 h 16.5 c 4.142,0 7.5,-3.358 7.5,-7.5 V 7.5 C 415,3.358 411.642,0 407.5,0 Z m -227.106,39 89,89 h -18.787 l -83.17,-83.17 c 1.123,-3.381 4.31,-5.83 8.064,-5.83 z m 40,0 89,89 h -18.787 l -89,-89 z m 40,0 83.17,83.17 c -1.123,3.381 -4.31,5.83 -8.064,5.83 h -4.894 l -89,-89 z m 40,0 L 344,82.606 v 18.787 L 281.606,39 Z M 376,432 H 135 V 127 h 18.234 c 3.138,9.29 11.93,16 22.266,16 h 160 c 10.336,0 19.128,-6.71 22.266,-16 H 376 Z M 210.606,128 167,84.394 V 65.606 L 229.394,128 Z M 167,105.606 189.394,128 H 175.5 c -4.687,0 -8.5,-3.813 -8.5,-8.5 z M 344,47.5 V 61.394 L 321.606,39 H 335.5 c 4.687,0 8.5,3.813 8.5,8.5 z M 152,47.495 c 0,0.002 0,0.005 0,0.008 v 39.995 c 0,10e-4 0,0.003 0,0.005 V 112 H 135 V 39 h 18.597 c -1.026,2.637 -1.596,5.5 -1.597,8.495 z M 384,496 H 127 v -9 h 0.5 256 0.5 z M 135,472 v -25 h 241 v 25 z M 376,112 H 359 V 79.502 c 0,-10e-4 0,-0.003 0,-0.005 V 47.5 c 0,-2.997 -0.57,-5.862 -1.597,-8.5 H 376 Z m 24,-88 h -16.5 -48 -31.997 c -0.002,0 -0.003,0 -0.005,0 h -39.995 c -0.002,0 -0.003,0 -0.005,0 h -39.995 c -0.002,0 -0.003,0 -0.005,0 h -39.995 c -0.002,0 -0.003,0 -0.005,0 H 175.5 127.5 111 v -9 h 289 z"
       inkscape:connector-curvature="0" />
    <g
       id="g5314" />
    <g
       id="g5316" />
    <g
       id="g5318" />
    <g
       id="g5320" />
    <g
       id="g5322" />
    <g
       id="g5324" />
    <g
       id="g5326" />
    <g
       id="g5328" />
    <g
       id="g5330" />
    <g
       id="g5332" />
    <g
       id="g5334" />
    <g
       id="g5336" />
    <g
       id="g5338" />
    <g
       id="g5340" />
    <g
       id="g5342" />
  </g>
  <g
     transform="matrix(0,-0.20457136,0.20457136,0,21.281411,442.55027)"
     id="g5401">
    <path
       inkscape:connector-curvature="0"
       d="M 463.5,0 H 47.5 C 43.358,0 40,3.358 40,7.5 v 24 c 0,4.142 3.358,7.5 7.5,7.5 H 64 v 224.498 c 0,0.001 0,0.003 0,0.005 v 39.995 c 0,0.001 0,0.003 0,0.005 v 39.995 c 0,0.001 0,0.003 0,0.005 v 39.995 c 0,0.001 0,0.003 0,0.005 V 472 h -0.5 c -4.142,0 -7.5,3.358 -7.5,7.5 v 24 c 0,4.142 3.358,7.5 7.5,7.5 h 384 c 4.142,0 7.5,-3.358 7.5,-7.5 v -24 c 0,-4.142 -3.358,-7.5 -7.5,-7.5 H 447 v -80.498 c 0,-0.001 0,-0.003 0,-0.005 v -39.995 c 0,-0.001 0,-0.003 0,-0.005 v -39.995 c 0,-0.001 0,-0.003 0,-0.005 v -39.995 c 0,-0.001 0,-0.003 0,-0.005 V 39 h 16.5 c 4.142,0 7.5,-3.358 7.5,-7.5 V 7.5 C 471,3.358 467.642,0 463.5,0 Z m -379.106,247 161,161 H 226.607 L 79,260.394 V 247 Z m 40,0 161,161 h -18.787 l -161,-161 z m 40,0 161,161 h -18.787 l -161,-161 z m 40,0 161,161 h -18.787 l -161,-161 z m 40,0 161,161 h -18.787 l -161,-161 z m 40,0 L 432,394.606 V 408 h -5.394 l -161,-161 z m 40,0 L 432,354.606 v 18.787 L 305.606,247 Z m 40,0 67.606,67.606 v 18.787 L 345.606,247 Z m 40,0 27.606,27.606 v 18.787 L 385.606,247 Z M 432,253.394 425.606,247 H 432 Z M 186.606,408 79,300.394 V 281.607 L 205.394,408 Z m -40,0 L 79,340.394 V 321.607 L 165.394,408 Z m -40,0 L 79,380.394 V 361.607 L 125.394,408 Z M 79,401.606 85.394,408 H 79 Z M 440,496 H 71 v -9 H 440 Z M 79,472 v -49 h 353 v 49 z M 432,232 h -24.497 c -0.002,0 -0.003,0 -0.005,0 h -39.995 c -0.002,0 -0.003,0 -0.005,0 h -39.995 c -0.002,0 -0.003,0 -0.005,0 h -39.995 c -0.002,0 -0.003,0 -0.005,0 h -39.995 c -0.002,0 -0.003,0 -0.005,0 h -39.995 c -0.002,0 -0.003,0 -0.005,0 h -39.995 c -0.002,0 -0.003,0 -0.005,0 h -39.995 c -0.002,0 -0.003,0 -0.005,0 H 87.503 c -0.002,0 -0.003,0 -0.005,0 H 79 V 39 h 21.681 C 97.716,43.802 96,49.454 96,55.5 v 40 c 0,17.369 14.131,31.5 31.5,31.5 h 1.734 c 3.138,9.29 11.93,16 22.266,16 h 64 c 10.585,0 19.554,-7.036 22.486,-16.675 6.956,-1.462 13.07,-5.228 17.514,-10.456 4.444,5.229 10.558,8.994 17.514,10.456 2.932,9.639 11.901,16.675 22.486,16.675 h 64 c 10.336,0 19.128,-6.71 22.266,-16 h 1.734 c 17.369,0 31.5,-14.131 31.5,-31.5 v -40 C 415,49.454 413.284,43.802 410.319,39 H 432 Z M 400,55.5 v 40 c 0,9.098 -7.402,16.5 -16.5,16.5 H 383 v -8.5 C 383,90.542 372.458,80 359.5,80 h -31.997 c -0.002,0 -0.003,0 -0.005,0 H 295.5 C 282.542,80 272,90.542 272,103.5 v 6.679 c -5.334,-2.737 -9,-8.282 -9,-14.679 v -40 C 263,46.402 270.402,39 279.5,39 h 104 c 9.098,0 16.5,7.402 16.5,16.5 z m -61.394,72.5 -33,-33 h 18.787 l 33,33 z M 288.635,98.508 c 0.364,0.833 0.88,1.614 1.561,2.295 L 317.394,128 H 295.5 c -4.687,0 -8.5,-3.813 -8.5,-8.5 v -16 c 0,-1.866 0.612,-3.588 1.635,-4.992 z M 368,117.394 345.606,95 H 359.5 c 4.687,0 8.5,3.813 8.5,8.5 z M 248,55.5 v 40 c 0,6.396 -3.666,11.941 -9,14.679 V 103.5 C 239,90.542 228.458,80 215.5,80 h -31.997 c -0.002,0 -0.003,0 -0.005,0 H 151.5 C 138.542,80 128,90.542 128,103.5 v 8.5 h -0.5 C 118.402,112 111,104.598 111,95.5 v -40 C 111,46.402 118.402,39 127.5,39 h 104 c 9.098,0 16.5,7.402 16.5,16.5 z m -53.394,72.5 -33,-33 h 18.787 l 33,33 z M 144.635,98.508 c 0.364,0.833 0.88,1.614 1.561,2.295 L 173.394,128 H 151.5 c -4.687,0 -8.5,-3.813 -8.5,-8.5 v -16 c 0,-1.866 0.612,-3.588 1.635,-4.992 z M 224,117.394 201.606,95 H 215.5 c 4.687,0 8.5,3.813 8.5,8.5 z M 456,24 h -72.5 -104 -48 -104 H 55 v -9 h 401 z"
       id="path5369" />
    <g
       id="g5371" />
    <g
       id="g5373" />
    <g
       id="g5375" />
    <g
       id="g5377" />
    <g
       id="g5379" />
    <g
       id="g5381" />
    <g
       id="g5383" />
    <g
       id="g5385" />
    <g
       id="g5387" />
    <g
       id="g5389" />
    <g
       id="g5391" />
    <g
       id="g5393" />
    <g
       id="g5395" />
    <g
       id="g5397" />
    <g
       id="g5399" />
  </g>
  <rect
     style="fill:none;fill-opacity:1;stroke:#000000;stroke-width:2;stroke-linecap:butt;stroke-linejoin:round;stroke-miterlimit:4;stroke-dasharray:none;stroke-dashoffset:0;stroke-opacity:1"
     id="rect5403"
     width="135.01067"
     height="70.663956"
     x="401.99701"
     y="232.58318" />
  <rect
     transform="matrix(0,1,1,0,0,0)"
     style="fill:#80610f;fill-opacity:1;stroke:#000000;stroke-width:3;stroke-linecap:butt;stroke-linejoin:round;stroke-miterlimit:4;stroke-dasharray:none;stroke-dashoffset:0;stroke-opacity:1"
     id="rect5413"
     width="64.288918"
     height="6.9850001"
     x="309.71713"
     y="393.64447"
     inkscape:label="BedroomDoor" />
  <g
     id="binary_sensor.office_sensor"
     inkscape:label="binary_sensor.office_sensor"
     style="fill:#ec1a1a;fill-opacity:0;stroke:#e98e88;stroke-width:1;stroke-miterlimit:4;stroke-dasharray:2, 1;stroke-dashoffset:0;stroke-opacity:1"
     transform="translate(-834.04889,1.8595101)">
    <path
       inkscape:connector-curvature="0"
       id="path4953"
       d="m 1065.9974,504.59596 16.4165,-17.51086"
       style="fill:#ec1a1a;fill-opacity:0;stroke:#e98e88;stroke-width:1;stroke-linecap:butt;stroke-linejoin:miter;stroke-miterlimit:4;stroke-dasharray:2, 1;stroke-dashoffset:0;stroke-opacity:1" />
    <path
       style="fill:#ec1a1a;fill-opacity:0;stroke:#e98e88;stroke-width:1;stroke-linecap:butt;stroke-linejoin:miter;stroke-miterlimit:4;stroke-dasharray:2, 1;stroke-dashoffset:0;stroke-opacity:1"
       d="m 1066.5205,525.29211 35.8797,-38.22026"
       id="path4955"
       inkscape:connector-curvature="0" />
    <path
       inkscape:connector-curvature="0"
       id="path4957"
       d="m 1066.5655,546.5114 55.8284,-59.44566"
       style="fill:#ec1a1a;fill-opacity:0;stroke:#e98e88;stroke-width:1;stroke-linecap:butt;stroke-linejoin:miter;stroke-miterlimit:4;stroke-dasharray:2, 1;stroke-dashoffset:0;stroke-opacity:1" />
    <path
       style="fill:#ec1a1a;fill-opacity:0;stroke:#e98e88;stroke-width:1;stroke-linecap:butt;stroke-linejoin:miter;stroke-miterlimit:4;stroke-dasharray:2, 1;stroke-dashoffset:0;stroke-opacity:1"
       d="m 1066.6168,567.72849 75.7731,-80.66665"
       id="path4959"
       inkscape:connector-curvature="0" />
    <path
       inkscape:connector-curvature="0"
       id="path4961"
       d="M 1066.9975,588.59735 1162.387,487.05903"
       style="fill:#ec1a1a;fill-opacity:0;stroke:#e98e88;stroke-width:1;stroke-linecap:butt;stroke-linejoin:miter;stroke-miterlimit:4;stroke-dasharray:2, 1;stroke-dashoffset:0;stroke-opacity:1" />
    <path
       style="fill:#ec1a1a;fill-opacity:0;stroke:#e98e88;stroke-width:1;stroke-linecap:butt;stroke-linejoin:miter;stroke-miterlimit:4;stroke-dasharray:2, 1;stroke-dashoffset:0;stroke-opacity:1"
       d="M 1078.0227,598.14431 1182.386,487.058"
       id="path4963"
       inkscape:connector-curvature="0" />
    <path
       inkscape:connector-curvature="0"
       id="path4965"
       d="m 1098.0207,598.14237 85.3267,-90.83161"
       style="fill:#ec1a1a;fill-opacity:0;stroke:#e98e88;stroke-width:1;stroke-linecap:butt;stroke-linejoin:miter;stroke-miterlimit:4;stroke-dasharray:2, 1;stroke-dashoffset:0;stroke-opacity:1" />
    <path
       style="fill:#ec1a1a;fill-opacity:0;stroke:#e98e88;stroke-width:1;stroke-linecap:butt;stroke-linejoin:miter;stroke-miterlimit:4;stroke-dasharray:2, 1;stroke-dashoffset:0;stroke-opacity:1"
       d="m 1118.0162,598.13796 43.399,-46.22096"
       id="path4967"
       inkscape:connector-curvature="0" />
    <path
       inkscape:connector-curvature="0"
       id="path4969"
       d="m 1138.0145,598.13638 38.2653,-40.75866"
       style="fill:#ec1a1a;fill-opacity:0;stroke:#e98e88;stroke-width:1;stroke-linecap:butt;stroke-linejoin:miter;stroke-miterlimit:4;stroke-dasharray:2, 1;stroke-dashoffset:0;stroke-opacity:1" />
    <path
       style="fill:#ec1a1a;fill-opacity:0;stroke:#e98e88;stroke-width:1;stroke-linecap:butt;stroke-linejoin:miter;stroke-miterlimit:4;stroke-dasharray:2, 1;stroke-dashoffset:0;stroke-opacity:1"
       d="m 1158.0112,598.13327 25.7206,-27.41117"
       id="path4971"
       inkscape:connector-curvature="0" />
    <path
       inkscape:connector-curvature="0"
       id="path4973"
       d="m 1178.007,598.12921 14.8151,-15.80766"
       style="fill:#ec1a1a;fill-opacity:0;stroke:#e98e88;stroke-width:1;stroke-linecap:butt;stroke-linejoin:miter;stroke-miterlimit:4;stroke-dasharray:2, 1;stroke-dashoffset:0;stroke-opacity:1" />
    <path
       style="fill:#ec1a1a;fill-opacity:0;stroke:#e98e88;stroke-width:1;stroke-linecap:butt;stroke-linejoin:miter;stroke-miterlimit:4;stroke-dasharray:2, 1;stroke-dashoffset:0;stroke-opacity:1"
       d="m 1198.0045,598.12679 14.0667,-15.0112"
       id="path4975"
       inkscape:connector-curvature="0" />
    <path
       inkscape:connector-curvature="0"
       id="path4977"
       d="m 1209.2296,501.12098 13,-13.87669"
       style="fill:#ec1a1a;fill-opacity:0;stroke:#e98e88;stroke-width:1;stroke-linecap:butt;stroke-linejoin:miter;stroke-miterlimit:4;stroke-dasharray:2, 1;stroke-dashoffset:0;stroke-opacity:1" />
    <path
       style="fill:#ec1a1a;fill-opacity:0;stroke:#e98e88;stroke-width:1;stroke-linecap:butt;stroke-linejoin:miter;stroke-miterlimit:4;stroke-dasharray:2, 1;stroke-dashoffset:0;stroke-opacity:1"
       d="m 1190.2902,499.99279 12.1057,-12.9252"
       id="path4979"
       inkscape:connector-curvature="0" />
  </g>
  <rect
     y="603.08423"
     x="254.66229"
     height="6.9850001"
     width="115.20061"
     id="rect4925"
     style="fill:#a1e6f4;fill-opacity:1;stroke:#000000;stroke-width:3;stroke-linecap:butt;stroke-linejoin:round;stroke-miterlimit:4;stroke-dasharray:none;stroke-dashoffset:0;stroke-opacity:1"
     inkscape:label="OfficeWindow" />
  <rect
     style="fill:#80610f;fill-opacity:1;stroke:#000000;stroke-width:3;stroke-linecap:butt;stroke-linejoin:round;stroke-miterlimit:4;stroke-dasharray:none;stroke-dashoffset:0;stroke-opacity:1"
     id="rect4927"
     width="64.288918"
     height="6.9850001"
     x="279.81537"
     y="478.99243"
     inkscape:label="OfficeDoor" />
  <g
     id="binary_sensor.thomas_sensor"
     inkscape:label="binary_sensor.thomas_sensor"
     style="fill:#95c090;fill-opacity:0"
     transform="translate(-834.04889,1.8595101)">
    <path
       inkscape:connector-curvature="0"
       id="path6631"
       d="m 856.85248,135.57645 39.1214,-39.121402"
       style="fill:#95c090;fill-opacity:0;stroke:#000000;stroke-width:0.99999994;stroke-linecap:butt;stroke-linejoin:miter;stroke-miterlimit:4;stroke-dasharray:1.99999988, 0.99999994;stroke-dashoffset:0;stroke-opacity:1" />
    <path
       style="fill:#95c090;fill-opacity:0;stroke:#000000;stroke-width:0.99999994;stroke-linecap:butt;stroke-linejoin:miter;stroke-miterlimit:4;stroke-dasharray:1.99999988, 0.99999994;stroke-dashoffset:0;stroke-opacity:1"
       d="M 857.32122,155.1077 915.97386,96.455047"
       id="path6633"
       inkscape:connector-curvature="0" />
    <path
       inkscape:connector-curvature="0"
       id="path6635"
       d="M 857.98529,174.44364 935.97386,96.455047"
       style="fill:#95c090;fill-opacity:0;stroke:#000000;stroke-width:0.99999994;stroke-linecap:butt;stroke-linejoin:miter;stroke-miterlimit:4;stroke-dasharray:1.99999988, 0.99999994;stroke-dashoffset:0;stroke-opacity:1" />
    <path
       style="fill:#95c090;fill-opacity:0;stroke:#000000;stroke-width:0.99999994;stroke-linecap:butt;stroke-linejoin:miter;stroke-miterlimit:4;stroke-dasharray:1.99999988, 0.99999994;stroke-dashoffset:0;stroke-opacity:1"
       d="M 858.45408,193.9749 955.97389,96.455051"
       id="path6637"
       inkscape:connector-curvature="0" />
    <path
       inkscape:connector-curvature="0"
       id="path6639"
       d="M 857.36032,215.06865 975.97388,96.45505"
       style="fill:#95c090;fill-opacity:0;stroke:#000000;stroke-width:0.99999994;stroke-linecap:butt;stroke-linejoin:miter;stroke-miterlimit:4;stroke-dasharray:1.99999988, 0.99999994;stroke-dashoffset:0;stroke-opacity:1" />
    <path
       style="fill:#95c090;fill-opacity:0;stroke:#000000;stroke-width:0.99999994;stroke-linecap:butt;stroke-linejoin:miter;stroke-miterlimit:4;stroke-dasharray:1.99999988, 0.99999994;stroke-dashoffset:0;stroke-opacity:1"
       d="M 857.24314,235.18583 995.97387,96.45505"
       id="path6641"
       inkscape:connector-curvature="0" />
    <path
       inkscape:connector-curvature="0"
       id="path6643"
       d="M 857.12596,255.30302 1015.9738,96.455049"
       style="fill:#95c090;fill-opacity:0;stroke:#000000;stroke-width:0.99999994;stroke-linecap:butt;stroke-linejoin:miter;stroke-miterlimit:4;stroke-dasharray:1.99999988, 0.99999994;stroke-dashoffset:0;stroke-opacity:1" />
    <path
       style="fill:#95c090;fill-opacity:0;stroke:#000000;stroke-width:0.99999994;stroke-linecap:butt;stroke-linejoin:miter;stroke-miterlimit:4;stroke-dasharray:1.99999988, 0.99999994;stroke-dashoffset:0;stroke-opacity:1"
       d="M 857.59471,274.83427 1035.9738,96.455047"
       id="path6645"
       inkscape:connector-curvature="0" />
    <path
       inkscape:connector-curvature="0"
       id="path6673"
       d="M 865.71757,286.71146 1051.002,101.4269"
       style="fill:#95c090;fill-opacity:0;stroke:#000000;stroke-width:0.99999994;stroke-linecap:butt;stroke-linejoin:miter;stroke-miterlimit:4;stroke-dasharray:1.99999988, 0.99999994;stroke-dashoffset:0;stroke-opacity:1" />
    <path
       style="fill:#95c090;fill-opacity:0;stroke:#000000;stroke-width:0.99999994;stroke-linecap:butt;stroke-linejoin:miter;stroke-miterlimit:4;stroke-dasharray:1.99999988, 0.99999994;stroke-dashoffset:0;stroke-opacity:1"
       d="M 885.71757,286.71146 1051.667,120.76186"
       id="path6675"
       inkscape:connector-curvature="0" />
    <path
       inkscape:connector-curvature="0"
       id="path6677"
       d="M 905.71757,286.71146 1051.2272,141.20169"
       style="fill:#95c090;fill-opacity:0;stroke:#000000;stroke-width:0.99999994;stroke-linecap:butt;stroke-linejoin:miter;stroke-miterlimit:4;stroke-dasharray:1.99999988, 0.99999994;stroke-dashoffset:0;stroke-opacity:1" />
    <path
       style="fill:#95c090;fill-opacity:0;stroke:#000000;stroke-width:0.99999994;stroke-linecap:butt;stroke-linejoin:miter;stroke-miterlimit:4;stroke-dasharray:1.99999988, 0.99999994;stroke-dashoffset:0;stroke-opacity:1"
       d="m 1016.0394,196.38954 34.748,-34.74802"
       id="path6679"
       inkscape:connector-curvature="0" />
    <path
       inkscape:connector-curvature="0"
       id="path6681"
       d="m 945.71757,286.71146 55.18783,-55.18783"
       style="fill:#95c090;fill-opacity:0;stroke:#000000;stroke-width:0.99999994;stroke-linecap:butt;stroke-linejoin:miter;stroke-miterlimit:4;stroke-dasharray:1.99999988, 0.99999994;stroke-dashoffset:0;stroke-opacity:1" />
    <path
       style="fill:#95c090;fill-opacity:0;stroke:#000000;stroke-width:0.99999994;stroke-linecap:butt;stroke-linejoin:miter;stroke-miterlimit:4;stroke-dasharray:1.99999988, 0.99999994;stroke-dashoffset:0;stroke-opacity:1"
       d="m 965.71757,286.71146 35.02413,-35.0242"
       id="path6683"
       inkscape:connector-curvature="0" />
    <path
       inkscape:connector-curvature="0"
       id="path6685"
       d="m 985.71756,286.71146 15.41304,-15.41301"
       style="fill:#95c090;fill-opacity:0;stroke:#000000;stroke-width:0.99999994;stroke-linecap:butt;stroke-linejoin:miter;stroke-miterlimit:4;stroke-dasharray:1.99999988, 0.99999994;stroke-dashoffset:0;stroke-opacity:1" />
    <path
       style="fill:#95c090;fill-opacity:0;stroke:#000000;stroke-width:0.99999994;stroke-linecap:butt;stroke-linejoin:miter;stroke-miterlimit:4;stroke-dasharray:1.99999988, 0.99999994;stroke-dashoffset:0;stroke-opacity:1"
       d="m 1036.0393,196.38961 14.5845,-14.58448"
       id="path6687"
       inkscape:connector-curvature="0" />
    <path
       inkscape:connector-curvature="0"
       id="path6723"
       d="M 925.71757,286.71146 1001.3452,211.0838"
       style="fill:#95c090;fill-opacity:0;stroke:#000000;stroke-width:0.99999994;stroke-linecap:butt;stroke-linejoin:miter;stroke-miterlimit:4;stroke-dasharray:1.99999988, 0.99999994;stroke-dashoffset:0;stroke-opacity:1" />
  </g>
  <rect
     y="87.969421"
     x="63.823914"
     height="6.9850001"
     width="115.20061"
     id="rect4919"
     style="fill:#a1e6f4;fill-opacity:1;stroke:#000000;stroke-width:3;stroke-linecap:butt;stroke-linejoin:round;stroke-miterlimit:4;stroke-dasharray:none;stroke-dashoffset:0;stroke-opacity:1"
     inkscape:label="ThomasWindow" />
  <g
     style="stroke-width:0.18911324"
     inkscape:label="camera.thomas"
     transform="matrix(4.4861443,-1.050859,1.727652,5.7163368,-5140.6521,-2880.5916)"
     id="camera.thomas">
    <path
       style="fill:#ececec;fill-opacity:1;stroke:#000000;stroke-width:0.19083194;stroke-miterlimit:4;stroke-dasharray:none;stroke-opacity:1"
       inkscape:connector-curvature="0"
       d="m 895.65469,714.11415 h -0.32455 c -0.0861,0 -0.1682,0.009 -0.249,0.0211 v -0.67968 c 0,-0.39354 -0.39028,-0.71221 -0.87253,-0.71221 h -6.26201 c -0.48161,0 -0.87317,0.31866 -0.87317,0.71221 v 3.03968 c 0,0.39388 0.39156,0.71352 0.87317,0.71352 h 6.26201 c 0.48225,0 0.87253,-0.31964 0.87253,-0.71352 v -0.98093 c 0.0808,0.0128 0.16292,0.0211 0.249,0.0211 h 0.35543 l 1.70036,1.07618 v -3.79464 z"
       id="path4941" />
  </g>
  <path
     style="fill:url(#linearGradient5101);fill-opacity:1;stroke:#000000;stroke-width:0;stroke-linecap:butt;stroke-linejoin:miter;stroke-miterlimit:4;stroke-dasharray:none;stroke-opacity:1"
     d="m 433.81431,384.38441 63.9271,-21.61978 -0.09,107.24611 -63.8353,-21.77919 z"
     id="media_player.bedroom"
     inkscape:connector-curvature="0"
     inkscape:label="media_player.bedroom"
     sodipodi:nodetypes="ccccc" />
  <g
     id="g4299"
     transform="matrix(0,0.11771058,-0.11771058,0,636.95111,97.31526)">
    <g
       id="g4234">
      <path
         id="path4214"
         d="M 439.5,0 H 23.5 C 10.542,0 0,10.542 0,23.5 v 416 C 0,452.458 10.542,463 23.5,463 h 64 c 50.689,0 99.865,-9.929 146.164,-29.512 44.715,-18.913 84.872,-45.987 119.354,-80.47 34.482,-34.483 61.557,-74.64 80.47,-119.354 C 453.071,187.365 463,138.189 463,87.5 v -64 C 463,10.542 452.458,0 439.5,0 Z M 448,87.5 C 448,183.793 410.501,274.322 342.412,342.412 274.322,410.501 183.793,448 87.5,448 h -64 C 18.813,448 15,444.187 15,439.5 V 23.5 C 15,18.813 18.813,15 23.5,15 h 416 c 4.687,0 8.5,3.813 8.5,8.5 z"
         inkscape:connector-curvature="0" />
      <path
         id="path4216"
         d="M 375.5,40 H 87.5 C 61.308,40 40,61.308 40,87.5 v 288 c 0,26.191 21.309,47.5 47.5,47.5 60.751,0 120.304,-16.448 172.22,-47.566 1.981,-1.188 3.305,-3.222 3.588,-5.515 0.283,-2.292 -0.507,-4.588 -2.141,-6.221 -5.243,-5.243 -8.131,-12.214 -8.131,-19.629 0,-7.415 2.888,-14.386 8.131,-19.629 l 26.333,-26.333 18.697,18.697 c 1.464,1.464 3.384,2.197 5.303,2.197 1.919,0 3.839,-0.732 5.303,-2.197 2.929,-2.929 2.929,-7.678 0,-10.606 L 298.106,287.5 324.439,261.167 c 10.824,-10.823 28.435,-10.823 39.259,0 1.634,1.634 3.93,2.421 6.221,2.141 2.293,-0.283 4.327,-1.606 5.515,-3.588 C 406.552,207.803 423,148.25 423,87.5 423,61.308 401.692,40 375.5,40 Z m -8.634,204.614 c -16.516,-10.409 -38.66,-8.427 -53.033,5.946 L 287.5,276.893 264.803,254.196 c -2.929,-2.929 -7.678,-2.929 -10.606,0 -2.929,2.929 -2.929,7.678 0,10.606 l 22.697,22.697 -26.333,26.333 c -14.374,14.374 -16.356,36.517 -5.946,53.033 C 196.805,393.8 142.669,408 87.5,408 69.58,408 55,393.421 55,375.5 V 87.5 C 55,69.579 69.579,55 87.5,55 h 288 c 17.92,0 32.5,14.58 32.5,32.5 0,55.169 -14.2,109.305 -41.134,157.114 z"
         inkscape:connector-curvature="0" />
      <path
         id="path4218"
         d="m 335.5,280 c -1.98,0 -3.91,0.8 -5.3,2.2 -1.4,1.39 -2.2,3.33 -2.2,5.3 0,1.98 0.8,3.91 2.2,5.3 1.39,1.4 3.33,2.2 5.3,2.2 1.97,0 3.91,-0.8 5.3,-2.2 1.4,-1.39 2.2,-3.33 2.2,-5.3 0,-1.97 -0.8,-3.91 -2.2,-5.3 -1.39,-1.4 -3.32,-2.2 -5.3,-2.2 z"
         inkscape:connector-curvature="0" />
      <path
         id="path4220"
         d="m 287.5,328 c -1.97,0 -3.91,0.8 -5.3,2.2 -1.4,1.39 -2.2,3.33 -2.2,5.3 0,1.98 0.8,3.91 2.2,5.3 1.39,1.4 3.33,2.2 5.3,2.2 1.97,0 3.91,-0.8 5.3,-2.2 1.4,-1.39 2.2,-3.33 2.2,-5.3 0,-1.97 -0.8,-3.91 -2.2,-5.3 -1.39,-1.4 -3.33,-2.2 -5.3,-2.2 z"
         inkscape:connector-curvature="0" />
      <path
         id="path4222"
         d="m 231.5,72 c -1.97,0 -3.91,0.8 -5.3,2.2 -1.4,1.39 -2.2,3.33 -2.2,5.3 0,1.97 0.8,3.91 2.2,5.3 1.39,1.4 3.33,2.2 5.3,2.2 1.97,0 3.91,-0.8 5.3,-2.2 1.4,-1.39 2.2,-3.33 2.2,-5.3 0,-1.97 -0.8,-3.91 -2.2,-5.3 -1.39,-1.4 -3.33,-2.2 -5.3,-2.2 z"
         inkscape:connector-curvature="0" />
      <path
         id="path4224"
         d="m 79.5,224 c -1.97,0 -3.91,0.8 -5.3,2.2 -1.4,1.39 -2.2,3.32 -2.2,5.3 0,1.97 0.8,3.91 2.2,5.3 1.39,1.4 3.33,2.2 5.3,2.2 1.97,0 3.91,-0.8 5.3,-2.2 1.4,-1.39 2.2,-3.33 2.2,-5.3 0,-1.98 -0.8,-3.91 -2.2,-5.3 -1.39,-1.4 -3.33,-2.2 -5.3,-2.2 z"
         inkscape:connector-curvature="0" />
      <path
         id="path4226"
         d="m 79.5,192 c -1.97,0 -3.91,0.8 -5.3,2.2 -1.4,1.39 -2.2,3.33 -2.2,5.3 0,1.97 0.8,3.91 2.2,5.3 1.39,1.4 3.33,2.2 5.3,2.2 1.97,0 3.91,-0.8 5.3,-2.2 1.4,-1.39 2.2,-3.33 2.2,-5.3 0,-1.98 -0.8,-3.91 -2.2,-5.3 -1.39,-1.4 -3.33,-2.2 -5.3,-2.2 z"
         inkscape:connector-curvature="0" />
      <path
         id="path4228"
         d="m 79.5,256 c -1.98,0 -3.91,0.8 -5.3,2.2 -1.4,1.39 -2.2,3.33 -2.2,5.3 0,1.98 0.8,3.91 2.2,5.3 1.39,1.4 3.32,2.2 5.3,2.2 1.97,0 3.91,-0.8 5.3,-2.2 1.4,-1.39 2.2,-3.32 2.2,-5.3 0,-1.98 -0.8,-3.91 -2.2,-5.3 -1.39,-1.4 -3.33,-2.2 -5.3,-2.2 z"
         inkscape:connector-curvature="0" />
      <path
         id="path4230"
         d="m 199.5,72 c -1.97,0 -3.91,0.8 -5.3,2.2 -1.4,1.39 -2.2,3.33 -2.2,5.3 0,1.97 0.8,3.91 2.2,5.3 1.39,1.4 3.33,2.2 5.3,2.2 1.97,0 3.91,-0.8 5.3,-2.2 1.4,-1.39 2.2,-3.33 2.2,-5.3 0,-1.97 -0.8,-3.91 -2.2,-5.3 -1.39,-1.4 -3.33,-2.2 -5.3,-2.2 z"
         inkscape:connector-curvature="0" />
      <path
         id="path4232"
         d="m 263.5,72 c -1.97,0 -3.91,0.8 -5.3,2.2 -1.4,1.39 -2.2,3.32 -2.2,5.3 0,1.97 0.8,3.91 2.2,5.3 1.39,1.4 3.33,2.2 5.3,2.2 1.97,0 3.91,-0.8 5.3,-2.2 1.4,-1.39 2.2,-3.33 2.2,-5.3 0,-1.97 -0.8,-3.91 -2.2,-5.3 -1.39,-1.4 -3.33,-2.2 -5.3,-2.2 z"
         inkscape:connector-curvature="0" />
    </g>
    <g
       id="g4236" />
    <g
       id="g4238" />
    <g
       id="g4240" />
    <g
       id="g4242" />
    <g
       id="g4244" />
    <g
       id="g4246" />
    <g
       id="g4248" />
    <g
       id="g4250" />
    <g
       id="g4252" />
    <g
       id="g4254" />
    <g
       id="g4256" />
    <g
       id="g4258" />
    <g
       id="g4260" />
    <g
       id="g4262" />
    <g
       id="g4264" />
  </g>
  <rect
     style="fill:#ffffff;fill-opacity:1;stroke:none;stroke-width:0.97735554;stroke-opacity:1"
     id="rect5308"
     width="68"
     height="32"
     x="440.45111"
     y="186.31526" />
  <g
     id="g4365"
     transform="matrix(0.1369863,0,0,0.1369863,439.45111,167.84951)">
    <g
       id="g4307">
      <path
         id="path4301"
         d="M 487.5,128 H 23.5 C 10.542,128 0,138.542 0,151.5 v 208 C 0,372.458 10.542,383 23.5,383 h 464 c 12.958,0 23.5,-10.542 23.5,-23.5 v -208 C 511,138.542 500.458,128 487.5,128 Z m 8.5,231.5 c 0,4.687 -3.813,8.5 -8.5,8.5 h -464 c -4.687,0 -8.5,-3.813 -8.5,-8.5 v -208 c 0,-4.687 3.813,-8.5 8.5,-8.5 h 464 c 4.687,0 8.5,3.813 8.5,8.5 z"
         inkscape:connector-curvature="0" />
      <path
         id="path4303"
         d="M 367.5,160 H 47.5 C 38.953,160 32,166.953 32,175.5 v 160 c 0,8.547 6.953,15.5 15.5,15.5 h 320 C 420.159,351 463,308.159 463,255.5 463,202.841 420.159,160 367.5,160 Z M 47,335.5 v -160 c 0,-0.276 0.224,-0.5 0.5,-0.5 h 240 c 44.388,0 80.5,36.112 80.5,80.5 0,44.388 -36.112,80.5 -80.5,80.5 H 47.5 C 47.224,336 47,335.776 47,335.5 Z M 367.5,336 H 338.83 C 365.37,319.017 383,289.279 383,255.5 383,221.721 365.371,191.983 338.83,175 h 28.67 c 44.388,0 80.5,36.112 80.5,80.5 0,44.388 -36.112,80.5 -80.5,80.5 z"
         inkscape:connector-curvature="0" />
      <path
         id="path4305"
         d="m 87.5,240 c -8.547,0 -15.5,6.953 -15.5,15.5 0,8.547 6.953,15.5 15.5,15.5 8.547,0 15.5,-6.953 15.5,-15.5 0,-8.547 -6.953,-15.5 -15.5,-15.5 z m 0,16 c -0.276,0 -0.5,-0.224 -0.5,-0.5 0,-0.276 0.224,-0.5 0.5,-0.5 0.276,0 0.5,0.224 0.5,0.5 0,0.276 -0.224,0.5 -0.5,0.5 z"
         inkscape:connector-curvature="0" />
    </g>
    <g
       id="g4309" />
    <g
       id="g4311" />
    <g
       id="g4313" />
    <g
       id="g4315" />
    <g
       id="g4317" />
    <g
       id="g4319" />
    <g
       id="g4321" />
    <g
       id="g4323" />
    <g
       id="g4325" />
    <g
       id="g4327" />
    <g
       id="g4329" />
    <g
       id="g4331" />
    <g
       id="g4333" />
    <g
       id="g4335" />
    <g
       id="g4337" />
  </g>
  <path
     style="fill:#ffffff;fill-opacity:1;stroke:none;stroke-width:0.125;stroke-opacity:1"
     d="m 427.00031,131.12035 c -8.3833,-0.87385 -15.7767,-6.81893 -18.4833,-14.86251 -0.9971,-2.96351 -1.204,-4.91226 -1.2041,-11.34375 -10e-5,-4.61465 0.01,-4.78996 0.2499,-5.031247 0.248,-0.248071 0.4166,-0.25 21.8556,-0.25 21.1192,0 21.6105,0.0054 21.822,0.23912 0.2005,0.221507 0.2126,0.684227 0.1649,6.281247 -0.051,5.96409 -0.056,6.06108 -0.3783,7.50892 -0.9583,4.30297 -2.7508,7.68216 -5.7119,10.76788 -4.7862,4.98768 -11.4159,7.40947 -18.3148,6.69034 z m 5.3455,-3.06151 c 8.6007,-1.3532 15.2665,-8.65314 16.1072,-17.6397 0.082,-0.87934 0.1118,-1.7998 0.066,-2.04548 -0.1379,-0.73346 -0.7351,-1.54711 -1.3562,-1.8478 -0.5415,-0.26211 -0.6803,-0.26802 -6.3042,-0.26802 h -5.7506 l -1.5537,-2.45756 c -1.2918,-2.04324 -1.6479,-2.51766 -2.1119,-2.81406 -1.9035,-1.215706 -4.3398,-0.54901 -5.3208,1.45601 -0.369,0.75424 -0.4339,1.46782 -0.2646,2.90936 l 0.1064,0.90625 h -6.8292 c -7.3608,0 -7.3318,-0.002 -8.0547,0.66222 -0.5688,0.5229 -0.7607,1.16314 -0.7637,2.54749 -0.015,6.9685 4.1507,13.60452 10.5598,16.82158 3.5375,1.77572 7.5236,2.3907 11.4705,1.76971 z m -10.5116,-23.50787 c 0.2735,-0.24753 0.2946,-0.65494 0.051,-0.98799 -0.1692,-0.2315 -0.3907,-0.24427 -4.8276,-0.27833 -5.2301,-0.0401 -5.245,-0.0379 -5.245,0.78236 0,0.27614 0.078,0.4737 0.2187,0.55582 0.1377,0.0802 1.9525,0.12882 4.8964,0.13121 4.1806,0.003 4.702,-0.0182 4.9063,-0.20307 z m -0.3134,-2.05095 c 0.5755,-0.21879 0.7208,-0.71241 0.3351,-1.13858 -0.1936,-0.21386 -0.5148,-0.2286 -4.9847,-0.2286 -5.2606,0 -5.1124,-0.0227 -5.0357,0.77024 0.069,0.70861 0.187,0.72587 5.0004,0.72792 2.7626,0.001 4.4623,-0.0464 4.6849,-0.13098 z"
     id="path5310"
     inkscape:connector-curvature="0" />
  <path
     style="fill:#ffffff;fill-opacity:1;stroke:none;stroke-width:0.125;stroke-opacity:1"
     d="m 427.62531,126.74929 c -8.8272,-0.89978 -15.7931,-8.47864 -15.8101,-17.20112 0,-1.96715 -0.746,-1.79033 7.5144,-1.79033 4.906,0 6.8582,0.0392 6.8582,0.13756 0,0.0757 0.2005,1.82875 0.4455,3.89578 0.5305,4.47455 0.6341,4.7721 1.8363,5.2744 1.041,0.43499 2.3407,0.0684 2.9335,-0.82741 0.2789,-0.42147 0.3812,-0.88346 0.7366,-3.32861 0.227,-1.56157 0.4151,-2.85328 0.4179,-2.87047 0,-0.0172 0.1374,-0.0312 0.299,-0.0312 0.4402,0 1.0933,-0.24717 1.5511,-0.587 0.4085,-0.30333 0.9051,-1.11007 0.9051,-1.47052 0,-0.17042 0.6379,-0.19248 5.5681,-0.19248 h 5.5682 l 0.3251,0.32505 c 0.3199,0.31993 0.3238,0.34527 0.2464,1.60956 -0.4594,7.50844 -5.2997,13.93084 -12.2503,16.25441 -2.2135,0.73996 -4.8515,1.03622 -7.145,0.80243 z"
     id="path5313"
     inkscape:connector-curvature="0" />
  <path
     style="fill:#ffffff;fill-opacity:1;stroke:none;stroke-width:0.125;stroke-opacity:1"
     d="m 487.81281,146.37904 c -7.0328,-0.63801 -12.7127,-6.17965 -13.4914,-13.16299 -0.083,-0.74696 -0.1336,-4.82103 -0.1336,-10.81575 v -9.6174 l 0.9062,0.33122 0.9063,0.33122 h 13.125 13.125 l 0.9062,-0.33122 0.9063,-0.33122 -0.001,9.64372 c -7e-4,5.46949 -0.054,10.10567 -0.1234,10.71095 -0.5449,4.75509 -3.2318,8.87326 -7.3756,11.30482 -2.5511,1.49695 -5.7623,2.20768 -8.75,1.93665 z m 4.4782,-3.48478 c 2.1423,-0.62593 3.7479,-1.6181 5.3686,-3.31736 1.2758,-1.33766 2.1096,-2.71893 2.6448,-4.38156 0.5608,-1.74222 0.6588,-3.06835 0.6051,-8.18933 -0.045,-4.27526 -0.065,-4.61151 -0.3189,-5.37317 -0.8133,-2.43659 -2.7467,-4.23767 -5.1595,-4.80635 -1.1833,-0.27891 -11.4284,-0.27891 -12.6117,0 -2.4129,0.56871 -4.3469,2.37048 -5.1592,4.80635 -0.2531,0.75909 -0.2741,1.10401 -0.3192,5.24639 -0.031,2.87641 0,4.87222 0.097,5.68174 0.5565,4.78684 3.7014,8.72393 8.1334,10.18204 1.3547,0.44567 1.8416,0.50364 3.8665,0.4603 1.5206,-0.0325 2.1345,-0.099 2.8532,-0.30905 z"
     id="path5317"
     inkscape:connector-curvature="0" />
  <path
     style="fill:#ffffff;fill-opacity:1;stroke:none;stroke-width:0.125;stroke-opacity:1"
     d="m 475.87531,111.70849 c -2.0968,-0.67083 -3.6084,-2.38138 -3.9332,-4.45065 -0.07,-0.44687 -0.1279,-2.23651 -0.1284,-3.97696 -9e-4,-3.10946 0.048,-3.551546 0.424,-3.802372 0.076,-0.05051 7.6751,-0.09184 16.8876,-0.09184 9.2125,0 16.8118,0.04133 16.8875,0.09184 0.375,0.250372 0.4249,0.692552 0.4225,3.739872 0,1.70608 -0.059,3.48953 -0.127,3.96322 -0.2647,1.83145 -1.4024,3.35773 -3.1205,4.18652 l -0.9375,0.45222 -12.9375,0.0241 c -10.2201,0.019 -13.0426,-0.01 -13.4375,-0.13591 z m 17.4487,-3.12204 c 1.7701,-0.63273 2.5825,-2.76969 1.6814,-4.4229 -0.9951,-1.82564 -3.2679,-2.21286 -4.8164,-0.82057 -0.7097,0.63806 -1.0253,1.34295 -1.0253,2.28986 0,0.37813 0.096,0.927 0.2135,1.21972 0.2487,0.62011 1.2274,1.55317 1.8321,1.74666 0.5772,0.18469 1.5793,0.17864 2.1147,-0.0128 z m -6.6237,-0.72515 c 1.0865,-0.37469 1.6806,-1.2794 1.5864,-2.41553 -0.075,-0.89867 -0.4799,-1.48006 -1.3214,-1.89527 -0.5435,-0.26818 -0.7633,-0.31145 -1.2459,-0.24532 -1.2181,0.16698 -2.0316,1.09899 -2.0316,2.32766 0,1.63789 1.5024,2.74928 3.0125,2.22846 z"
     id="path5319"
     inkscape:connector-curvature="0" />
  <path
     style="fill:#ffffff;fill-opacity:1;stroke:none;stroke-width:0.125;stroke-opacity:1"
     d="m 491.86221,107.11067 c -0.2135,-0.0553 -0.5333,-0.24579 -0.7108,-0.4233 -0.6346,-0.63461 -0.5869,-1.56064 0.112,-2.17429 0.9954,-0.87401 2.5494,-0.19148 2.5494,1.11976 0,1.0335 -0.9342,1.74123 -1.9506,1.47783 z"
     id="path5321"
     inkscape:connector-curvature="0" />
  <path
     style="fill:#ffffff;fill-opacity:1;stroke:none;stroke-width:0.125;stroke-opacity:1"
     d="m 485.36441,106.07125 c -0.4025,-0.61423 0.1299,-1.32682 0.8552,-1.14477 0.3851,0.0967 0.6258,0.6042 0.4748,1.00132 -0.2074,0.54567 -1.0098,0.63221 -1.33,0.14345 z"
     id="path5323"
     inkscape:connector-curvature="0" />
  <path
     style="fill:#ffffff;fill-opacity:1;stroke:none;stroke-width:0.125;stroke-opacity:1"
     d="m 537.59331,111.37449 c -1.0457,-0.13593 -2.2375,-0.74133 -3.0223,-1.53515 -0.7725,-0.78149 -1.0549,-1.2317 -1.3826,-2.20443 -0.2291,-0.68026 -0.2506,-1.07136 -0.2506,-4.55354 0,-3.794773 10e-4,-3.810095 0.2778,-4.003939 0.248,-0.173763 2.0674,-0.194588 17,-0.194588 16.5555,0 16.7246,0.0025 16.9722,0.25 0.238,0.238075 0.25,0.416667 0.25,3.743847 0,2.08916 -0.056,3.76017 -0.1394,4.15625 -0.2226,1.05838 -0.7243,1.98023 -1.5021,2.7597 -0.8955,0.89755 -1.9649,1.42117 -3.2404,1.58671 -1.1287,0.14648 -23.8324,0.14207 -24.9626,-0.005 z m 16.8888,-3.28851 c 2.3792,-0.99409 2.595,-4.39615 0.3562,-5.61467 -0.8317,-0.45264 -1.5663,-0.54236 -2.4128,-0.29465 -1.6986,0.49706 -2.6129,2.23763 -2.0907,3.98033 0.1922,0.64181 1.0246,1.57716 1.6606,1.86604 0.6097,0.27693 1.8966,0.3095 2.4867,0.063 z m -6.4216,-0.82698 c 0.2683,-0.13687 0.6251,-0.43218 0.793,-0.65625 1.189,-1.58703 0.1088,-3.75562 -1.8707,-3.75562 -0.7701,0 -1.2914,0.26953 -1.8443,0.95357 -0.3483,0.43091 -0.3882,0.56693 -0.3882,1.32162 0,0.70226 0.055,0.92457 0.3335,1.34528 0.6301,0.95215 1.9656,1.30721 2.9767,0.7914 z"
     id="path5349"
     inkscape:connector-curvature="0" />
  <path
     style="fill:#ffffff;fill-opacity:1;stroke:none;stroke-width:0.125;stroke-opacity:1"
     d="m 548.31281,145.87688 c -1.9233,-0.23796 -4.2489,-1.06306 -5.9469,-2.10987 -3.4761,-2.14296 -5.8983,-5.5918 -6.8153,-9.7038 -0.2712,-1.21618 -0.2783,-1.46336 -0.3295,-11.51204 l -0.052,-10.26918 0.8532,0.33168 0.8533,0.33167 12.8125,0.0377 c 13.3016,0.0391 13.6903,0.0265 14.849,-0.48086 l 0.5366,-0.23495 -0.039,10.52657 -0.039,10.52656 -0.3328,1.21509 c -0.7543,2.75416 -1.8357,4.74678 -3.599,6.63159 -2.232,2.38572 -5.0215,3.94766 -8.1141,4.54332 -1.2201,0.235 -3.4385,0.31469 -4.6359,0.16654 z m 4.8141,-3.42882 c 1.2186,-0.30912 2.7054,-0.97875 3.773,-1.69931 0.3302,-0.22285 1.0785,-0.89243 1.6629,-1.48793 1.7266,-1.75958 2.7642,-3.78347 3.1893,-6.22115 0.2589,-1.48462 0.2638,-10.08013 0.01,-11.29423 -0.4306,-2.03097 -1.908,-3.94141 -3.7099,-4.79715 -1.6694,-0.79277 -2.1053,-0.83404 -8.3551,-0.79116 l -5.5683,0.0382 -0.9227,0.33692 c -1.7907,0.65393 -3.2029,1.88628 -4.0122,3.50131 -0.7517,1.50027 -0.7725,1.72165 -0.7222,7.6858 0.043,5.11073 0.058,5.39306 0.3254,6.28847 0.6824,2.28314 2.2553,4.74329 3.8866,6.07931 1.8724,1.53335 3.7174,2.32691 6.3201,2.71821 0.8148,0.12252 2.9711,-0.0642 4.1266,-0.3573 z"
     id="path5351"
     inkscape:connector-curvature="0" />
  <path
     style="fill:#ffffff;fill-opacity:1;stroke:none;stroke-width:0.125;stroke-opacity:1"
     d="m 552.59871,106.55416 c -0.2537,-0.12507 -0.4996,-0.4006 -0.6678,-0.74805 -0.2429,-0.50177 -0.2516,-0.59628 -0.099,-1.07667 0.4025,-1.26277 2.2021,-1.48892 2.7907,-0.35069 0.4282,0.82793 0.1322,1.76883 -0.6902,2.19409 -0.4556,0.23561 -0.8291,0.23038 -1.3342,-0.0187 z"
     id="path5353"
     inkscape:connector-curvature="0" />
  <path
     style="fill:#8adbee;fill-opacity:1;stroke:none;stroke-width:0.125;stroke-opacity:1"
     d="m 546.71251,105.86754 c -0.1531,-0.0566 -0.3366,-0.2561 -0.4078,-0.44325 -0.2752,-0.72399 0.7014,-1.34807 1.2505,-0.79902 0.3039,0.30392 0.3268,0.60304 0.074,0.96418 -0.223,0.31841 -0.5442,0.41585 -0.9166,0.27809 z"
     id="path5355"
     inkscape:connector-curvature="0" />
  <path
     style="fill:#50c9e5;fill-opacity:1;stroke:none;stroke-width:0.125;stroke-opacity:1"
     d="m 548.18781,141.07629 c -3.8131,-0.81643 -6.8139,-3.71859 -7.8973,-7.63769 -0.2559,-0.92535 -0.2779,-1.32005 -0.3229,-5.77301 -0.033,-3.26726 0,-4.99656 0.094,-5.46493 0.4351,-2.09545 2.1138,-3.8431 4.1405,-4.31033 0.3235,-0.0746 2.7844,-0.12763 6.0058,-0.12943 4.9997,-0.003 5.5211,0.0167 6.2142,0.23244 1.5633,0.48655 2.7248,1.4979 3.43,2.98659 l 0.3982,0.84041 0.037,5.18593 c 0.04,5.70762 -0.01,6.26987 -0.7117,7.97162 -1.1638,2.82232 -3.6758,5.05285 -6.6588,5.91269 -1.1829,0.34099 -3.5662,0.43459 -4.7285,0.18571 z m 3.2585,-11.76698 c 1.439,-0.42078 2.5892,-1.48827 3.1192,-2.89496 0.225,-0.59711 0.2622,-0.90973 0.2193,-1.84401 -0.044,-0.95051 -0.1115,-1.24203 -0.4377,-1.87957 -0.447,-0.8737 -1.2298,-1.64375 -2.1793,-2.14386 -0.609,-0.32072 -0.7827,-0.35157 -1.98,-0.35157 -1.1973,0 -1.3778,0.0321 -2.0557,0.3649 -0.9829,0.48259 -1.7494,1.27132 -2.2328,2.29751 -0.3473,0.73736 -0.3942,0.96475 -0.3916,1.90009 0,1.32666 0.3306,2.22331 1.1387,3.12217 1.2656,1.40761 3.0534,1.94 4.7999,1.4293 z"
     id="path5357"
     inkscape:connector-curvature="0" />
  <path
     style="fill:#50c9e5;fill-opacity:1;stroke:none;stroke-width:0.125;stroke-opacity:1"
     d="m 487.29461,141.57107 c -3.1513,-0.59873 -5.8987,-2.76257 -7.3018,-5.75073 -0.9619,-2.04865 -0.9714,-2.12094 -1.0239,-7.78519 -0.051,-5.49493 -0.027,-5.73853 0.688,-7.05991 0.4513,-0.83395 1.5033,-1.78329 2.4985,-2.25472 l 0.8449,-0.40018 h 6.125 6.125 l 0.8448,0.40018 c 0.9976,0.47259 2.046,1.41996 2.5054,2.26408 0.6651,1.22198 0.7123,1.67043 0.7123,6.77655 0,4.92311 -0.049,5.52921 -0.5749,7.14029 -0.998,3.05596 -3.8205,5.66425 -7.0283,6.49483 -1.2778,0.33086 -3.1943,0.40674 -4.415,0.1748 z m 3.5572,-11.9402 c 0.987,-0.36926 1.9724,-1.29918 2.4892,-2.34894 0.3755,-0.76271 0.4093,-0.92956 0.4093,-2.02146 0,-1.02966 -0.045,-1.2865 -0.3351,-1.90488 -1.7126,-3.65409 -6.7314,-3.72598 -8.5057,-0.12184 -0.3755,0.76272 -0.4092,0.92957 -0.4092,2.02147 0,1.0275 0.045,1.28706 0.3325,1.89952 1.0984,2.34313 3.6114,3.37693 6.019,2.47613 z"
     id="path5359"
     inkscape:connector-curvature="0" />
  <path
     style="fill:#17839c;fill-opacity:1;stroke:none;stroke-width:0.125;stroke-opacity:1"
     d="m 548.87531,127.645 c -0.6222,-0.28911 -1.3635,-1.05131 -1.6189,-1.66439 -0.3054,-0.73305 -0.251,-1.80855 0.1301,-2.57342 1.1614,-2.33056 4.4135,-2.29152 5.6019,0.0673 0.7345,1.45794 0.033,3.40646 -1.4793,4.11081 -0.797,0.37113 -1.9095,0.39637 -2.6338,0.0597 z"
     id="path5361"
     inkscape:connector-curvature="0" />
  <path
     style="fill:#17839c;fill-opacity:1;stroke:none;stroke-width:0.125;stroke-opacity:1"
     d="m 488.08431,128.22422 c -0.6395,-0.20463 -1.5948,-1.13504 -1.8491,-1.80084 -0.4799,-1.25674 -0.1693,-2.55806 0.8238,-3.45095 0.9855,-0.88606 2.1773,-1.08054 3.3163,-0.54117 1.1877,0.56245 1.8378,1.56094 1.837,2.82124 -7e-4,0.95253 -0.3152,1.65634 -1.0258,2.29521 -0.8741,0.78593 -1.9958,1.03055 -3.1022,0.67651 z"
     id="path5363"
     inkscape:connector-curvature="0" />
  <path
     style="fill:#dbdbdb;fill-opacity:1;stroke:none;stroke-width:0.125;stroke-opacity:1"
     d="m 546.51961,105.65425 c -0.4287,-0.47376 -0.09,-1.14641 0.5772,-1.14641 0.374,0 0.7344,0.42275 0.625,0.7331 -0.2207,0.62601 -0.8225,0.83289 -1.2022,0.41331 z"
     id="path5365"
     inkscape:connector-curvature="0" />
  <path
     style="fill:#a4a4a4;fill-opacity:1;stroke:none;stroke-width:0.125;stroke-opacity:1"
     d="m 430.07691,106.98767 c -2.4747,-1.56513 -2.6607,-1.73903 -2.8309,-2.64579 -0.1704,-0.9086 0.6337,-2.18922 1.5133,-2.40998 0.4813,-0.1208 1.4596,0.009 1.8124,0.23983 0.1728,0.11325 0.984,1.25889 1.8026,2.54589 1.6623,2.61324 1.7734,2.95255 1.144,3.49392 -0.1895,0.16297 -0.5005,0.2963 -0.6911,0.2963 -0.228,0 -1.1688,-0.51999 -2.7503,-1.52017 z m -0.084,-2.50764 c 0.107,-0.1528 0.1946,-0.35223 0.1946,-0.44318 0,-0.22798 -0.5707,-0.77901 -0.8069,-0.77901 -0.2822,0 -0.6931,0.45728 -0.6931,0.77141 0,0.67228 0.9262,0.99212 1.3054,0.45078 z"
     id="path5367"
     inkscape:connector-curvature="0" />
  <path
     style="fill:#dbdbdb;fill-opacity:1;stroke:none;stroke-width:0.125;stroke-opacity:1"
     d="m 428.81921,115.5382 c -0.2464,-0.19951 -0.3101,-0.55179 -0.6949,-3.84375 -0.233,-1.99326 -0.4549,-3.83207 -0.493,-4.08624 l -0.069,-0.46213 1.7023,1.08315 c 0.9363,0.59573 1.7323,1.16122 1.7689,1.25664 0.071,0.18526 -0.5359,4.76942 -0.735,5.5511 -0.1811,0.7112 -0.9132,0.9593 -1.4789,0.50123 z"
     id="path5370"
     inkscape:connector-curvature="0" />
  <path
     style="fill:#ffffff;fill-opacity:1;stroke:none;stroke-width:0.125;stroke-opacity:1"
     d="m 546.56281,105.63284 c -0.1375,-0.1375 -0.25,-0.33437 -0.25,-0.4375 0,-0.26123 0.453,-0.6875 0.7306,-0.6875 0.2788,0 0.6444,0.37792 0.6444,0.6661 0,0.25978 -0.4356,0.7089 -0.6875,0.7089 -0.1032,0 -0.3,-0.1125 -0.4375,-0.25 z"
     id="path5372"
     inkscape:connector-curvature="0" />
  <path
     style="fill:#ececec;fill-opacity:1;stroke:none;stroke-width:0.125;stroke-opacity:1"
     d="m 524.71901,206.61488 c -0.1238,-0.12442 -0.1562,-4.66606 -0.1562,-21.86673 0,-20.03405 0.016,-21.72294 0.2065,-21.88125 0.271,-0.22514 7.8994,-0.30819 10.5914,-0.1153 5.5376,0.39679 10.1398,2.40738 13.9765,6.10599 4.7708,4.59903 7.1416,10.75815 6.7092,17.42962 -0.6407,9.88611 -7.8223,18.05787 -17.675,20.11188 -1.2981,0.27063 -1.694,0.28817 -7.4336,0.32934 -4.7468,0.034 -6.0965,0.009 -6.2188,-0.11355 z m 13.0593,-3.0957 c 2.63,-0.54857 5.3099,-1.71079 7.4095,-3.21328 1.4849,-1.06268 3.4423,-3.02399 4.4812,-4.49028 0.8904,-1.2566 2.1017,-3.64193 2.5685,-5.05778 0.6849,-2.07747 0.8739,-3.37481 0.8738,-6 0,-2.04479 -0.044,-2.63562 -0.2724,-3.66723 -0.8085,-3.64959 -2.417,-6.67167 -4.9547,-9.3089 -1.9871,-2.06501 -4.0962,-3.53086 -6.6184,-4.59989 -2.992,-1.26809 -7.3021,-1.92439 -8.6416,-1.31585 -0.717,0.32571 -1.2599,0.9979 -1.424,1.76317 -0.088,0.41028 -0.1374,2.59133 -0.1374,6.05939 v 5.41838 l -2.2188,1.4033 c -2.5529,1.61463 -2.9108,1.91828 -3.2946,2.79535 -0.7527,1.71981 -0.07,3.6698 1.6384,4.68167 0.5384,0.31889 0.6332,0.33236 2.2187,0.31552 l 1.6563,-0.0176 v 6.48019 c 0,4.03804 0.049,6.70994 0.1307,7.08983 0.1602,0.74712 0.7357,1.47548 1.4229,1.80093 0.4527,0.2144 0.7019,0.2334 2.2589,0.17227 0.9625,-0.0378 2.2688,-0.17692 2.903,-0.3092 z m -10.5691,-1.34321 c 0.2137,-0.19341 0.2286,-0.51201 0.2286,-4.89641 0,-5.16048 0,-5.14672 -0.7623,-5.14672 -0.7242,0 -0.7377,0.0938 -0.7377,5.125 0,3.93333 0.027,4.60805 0.1945,4.84719 0.2326,0.33208 0.7506,0.36621 1.0769,0.0709 z m 2.284,-0.0709 c 0.2923,-0.41742 0.2923,-9.27695 0,-9.69437 -0.2326,-0.33209 -0.7506,-0.36621 -1.0769,-0.0709 -0.2137,0.19341 -0.2285,0.51201 -0.2285,4.8964 0,4.18825 0.022,4.71397 0.2068,4.91813 0.289,0.31929 0.8583,0.29379 1.0986,-0.0492 z"
     id="path5374"
     inkscape:connector-curvature="0" />
  <path
     style="fill:#ececec;fill-opacity:1;stroke:none;stroke-width:0.125;stroke-opacity:1"
     d="m 532.99641,202.0988 -0.3711,-0.31919 -0.034,-6.88588 c -0.019,-3.78724 -0.01,-6.88589 0.019,-6.88589 0.666,0 7.6685,-0.93276 8.041,-1.07109 0.8734,-0.32439 1.534,-1.30322 1.5364,-2.27667 0,-0.6927 -0.6801,-1.72503 -1.3814,-2.0916 -0.229,-0.11967 -5.3118,-0.92946 -5.8768,-0.93628 -0.029,-3.8e-4 -0.067,-0.23788 -0.084,-0.52781 -0.058,-0.99542 -0.9176,-1.94283 -2.0671,-2.27693 -0.2097,-0.0609 -0.2205,-0.38109 -0.1875,-5.55718 l 0.035,-5.49251 0.3125,-0.33721 0.3125,-0.33722 1.4375,0.0668 c 7.218,0.33549 13.8093,5.29964 16.1223,12.14235 0.6726,1.98968 0.8119,2.92257 0.8136,5.44534 0,1.77324 -0.052,2.55958 -0.2268,3.37201 -0.3543,1.64482 -0.8991,3.21994 -1.5683,4.53439 -2.8987,5.69343 -8.5624,9.38921 -14.8322,9.67857 -1.6158,0.0746 -1.6318,0.0726 -2,-0.24401 z"
     id="path5376"
     inkscape:connector-curvature="0" />
  <path
     style="fill:#ececec;fill-opacity:1;stroke:none;stroke-width:0.125;stroke-opacity:1"
     d="m 426.68781,126.57444 c -4.8299,-0.80372 -9.2019,-3.63745 -11.9634,-7.7541 -1.6322,-2.43317 -2.5379,-5.13297 -2.802,-8.35265 -0.1582,-1.92883 -0.096,-2.24816 0.4826,-2.47565 0.48,-0.18878 6.3768,-0.28788 10.414,-0.17502 l 3.3188,0.0928 0.3476,3.01778 c 0.573,4.97524 0.7387,5.56547 1.6976,6.04902 1.1302,0.56995 2.5681,0.25913 3.2104,-0.69397 0.3312,-0.49145 0.4311,-0.9348 0.8505,-3.77478 0.1777,-1.20312 0.3485,-2.25781 0.3796,-2.34375 0.031,-0.0859 0.2129,-0.15748 0.4041,-0.15899 0.8482,-0.007 2.0769,-0.97145 2.2412,-1.7597 l 0.068,-0.32494 1.6954,-0.0813 c 0.9324,-0.0447 3.4204,-0.0813 5.5288,-0.0813 h 3.8335 l 0.2983,0.31753 c 0.272,0.28954 0.2957,0.41087 0.2687,1.37636 -0.079,2.82373 -1.0745,6.14626 -2.5919,8.64994 -2.6175,4.31901 -6.5696,7.16761 -11.494,8.28476 -1.4989,0.34003 -4.6911,0.43703 -6.1875,0.18801 z"
     id="path5378"
     inkscape:connector-curvature="0" />
  <path
     style="fill:#ffffff;fill-opacity:1;stroke:none;stroke-width:0.125;stroke-opacity:1"
     d="m 524.72001,206.42224 c -0.12,-0.29889 -0.1222,-42.75406 0,-43.18127 0.076,-0.27156 0.1879,-0.34367 0.6358,-0.41084 0.9187,-0.13778 9.564,-0.0925 10.8967,0.0571 3.8841,0.4359 7.5384,1.77869 10.4375,3.83529 1.4743,1.04588 4.2004,3.74527 5.2115,5.16036 5.0898,7.12343 5.5264,16.54908 1.1138,24.04601 -3.0388,5.16294 -8.1524,8.86545 -14.304,10.357 -1.0125,0.2455 -1.5055,0.26611 -7.4909,0.31305 -6.099,0.0478 -6.4114,0.0393 -6.4982,-0.17666 z m 12.0928,-2.72186 c 2.9526,-0.3995 6.3456,-1.8046 8.7657,-3.63001 1.2297,-0.92755 3.4996,-3.29659 4.2745,-4.46116 0.9348,-1.40499 2.2499,-4.15492 2.6442,-5.5293 0.5196,-1.81099 0.6222,-2.72147 0.6213,-5.50957 -9e-4,-2.47098 -0.022,-2.70567 -0.3539,-4 -0.6827,-2.65872 -1.7594,-4.95255 -3.2686,-6.96316 -1.0359,-1.38016 -3.3555,-3.60467 -4.7469,-4.55225 -2.8798,-1.9613 -6.533,-3.22924 -9.7688,-3.39055 -1.7876,-0.0891 -2.3296,0.0147 -2.9354,0.56194 -0.9604,0.86766 -0.9153,0.53612 -0.9566,7.03918 l -0.037,5.82016 -0.4006,0.2315 c -1.4864,0.85904 -4.2945,2.80856 -4.6592,3.23463 -1.2291,1.436 -0.9805,3.59976 0.5743,4.99766 0.8044,0.72318 1.1995,0.83183 3.0281,0.8327 l 1.4688,6.9e-4 7e-4,6.59375 c 4e-4,4.26285 0.048,6.76258 0.1333,7.07135 0.1572,0.56606 0.901,1.43125 1.4285,1.66145 0.5015,0.21888 2.5355,0.2145 4.1875,-0.009 z m -9.5715,-1.51397 c 0.1715,-0.17146 0.1965,-0.78199 0.1965,-4.80436 0,-2.7607 -0.05,-4.73936 -0.1247,-4.93577 -0.1111,-0.2923 -0.1817,-0.32368 -0.6513,-0.28939 -0.4398,0.0321 -0.5408,0.0899 -0.6129,0.35095 -0.047,0.17188 -0.092,2.33905 -0.099,4.81594 -0.011,3.88735 0.014,4.54144 0.1821,4.78125 0.2311,0.32991 0.8175,0.37294 1.109,0.0814 z m 2.3107,-0.24024 c 0.1441,-0.30187 0.1786,-1.20794 0.1786,-4.68833 0,-4.82618 -0.03,-5.0306 -0.7468,-5.1005 -0.8069,-0.0787 -0.796,-0.14788 -0.796,5.1005 0,5.24839 -0.011,5.17918 0.796,5.1005 0.2906,-0.0283 0.4351,-0.13315 0.5682,-0.41217 z"
     id="path5380"
     inkscape:connector-curvature="0" />
  <path
     style="fill:#dedede;fill-opacity:1;stroke:none;stroke-width:0.125;stroke-opacity:1"
     d="m 532.19101,186.41409 c 0,-0.0516 0.4746,-0.825 1.0507,-1.71875 0.8874,-1.37686 1.0921,-1.62097 1.3404,-1.59861 0.5501,0.0495 5.0423,0.66339 5.3276,0.72803 0.4048,0.0917 0.7781,0.50603 0.7781,0.86361 0,0.16804 -0.1266,0.44862 -0.2813,0.62351 -0.2698,0.30509 -0.4326,0.3358 -4.0124,0.75698 -4.0079,0.47154 -4.2081,0.48798 -4.2031,0.34523 z"
     id="path5382"
     inkscape:connector-curvature="0" />
  <path
     style="fill:#a4a4a4;fill-opacity:1;stroke:none;stroke-width:0.125;stroke-opacity:1"
     d="m 528.50031,186.88024 c -1.6375,-0.34491 -2.3682,-2.45092 -1.2208,-3.51849 0.4626,-0.43043 4.4571,-2.95502 4.8194,-3.04595 0.7297,-0.18316 1.478,0.61311 1.2339,1.31313 -0.2087,0.59886 -2.9167,4.76237 -3.2317,4.96875 -0.3854,0.25249 -1.1244,0.38293 -1.6008,0.28256 z m 0.9375,-1.6224 c 0.1375,-0.1375 0.25,-0.3625 0.25,-0.5 0,-0.30985 -0.4239,-0.75 -0.7222,-0.75 -0.3678,0 -0.7778,0.36621 -0.7778,0.69459 0,0.36927 0.4061,0.80541 0.75,0.80541 0.1375,0 0.3625,-0.1125 0.5,-0.25 z"
     id="path5384"
     inkscape:connector-curvature="0" />
  <path
     style="fill:#ececec;fill-opacity:1;stroke:none;stroke-width:0.125;stroke-opacity:1"
     d="m 622.65971,145.06927 c -3.9908,-0.44493 -7.9573,-1.52085 -11.5,-3.11936 -1.208,-0.54507 -2.875,-1.41448 -2.875,-1.49944 0,-0.0197 0.1159,-0.29788 0.2576,-0.61813 0.3734,-0.8441 0.5109,-1.87998 0.3671,-2.76458 -0.218,-1.34085 -0.6933,-2.07491 -2.6489,-4.09084 l -1.7883,-1.84342 1.4063,-1.41712 c 1.2555,-1.26522 1.4062,-1.46416 1.4062,-1.85596 0,-0.53829 -0.3523,-0.89424 -0.885,-0.89424 -0.3197,0 -0.6129,0.23047 -1.803,1.41713 l -1.4211,1.41714 -1.3517,-1.26052 c -0.7434,-0.69329 -1.5767,-1.4953 -1.8517,-1.78226 -1.3455,-1.40399 -3.5512,-1.83347 -5.4714,-1.06534 l -0.7213,0.28857 -0.3053,-0.52085 c -0.9388,-1.60199 -2.281,-4.9047 -2.9991,-7.38005 -0.9029,-3.1122 -1.2988,-5.62574 -1.4012,-8.89715 -0.074,-2.36032 -0.071,-2.39518 0.2384,-3.0625 0.3564,-0.76831 1.0531,-1.51228 1.7849,-1.906 l 0.5,-0.26901 17.8689,-0.0329 c 19.9829,-0.0368 18.5259,-0.10126 19.6271,0.86801 0.3181,0.28 0.7304,0.79727 0.9162,1.1495 l 0.3378,0.64042 v 18 18 l -0.3326,0.625 c -0.4311,0.81011 -1.0011,1.34521 -1.8549,1.74119 -0.6359,0.29492 -0.8143,0.3179 -2.375,0.30594 -0.9281,-0.007 -2.3344,-0.085 -3.125,-0.1732 z m 5.5682,-16.11825 c 0.1687,-0.16875 0.3068,-0.45255 0.3068,-0.63068 0,-0.41676 -0.5207,-0.9375 -0.9375,-0.9375 -0.4168,0 -0.9375,0.52074 -0.9375,0.9375 0,0.41677 0.5207,0.9375 0.9375,0.9375 0.1781,0 0.4619,-0.13807 0.6307,-0.30682 z m 0,-3.75 c 0.1687,-0.16875 0.3068,-0.45255 0.3068,-0.63068 0,-0.41676 -0.5207,-0.9375 -0.9375,-0.9375 -0.4168,0 -0.9375,0.52074 -0.9375,0.9375 0,0.41677 0.5207,0.9375 0.9375,0.9375 0.1781,0 0.4619,-0.13807 0.6307,-0.30682 z m 0.088,-3.83736 c 0.3062,-0.36191 0.2723,-0.81357 -0.088,-1.174 -0.7664,-0.76638 -1.9477,0.12551 -1.435,1.08345 0.2821,0.52715 1.1119,0.57649 1.5231,0.0905 z m -21.9831,-13.87203 c 0.6342,-0.28897 0.6906,-1.28032 0.091,-1.60119 -0.9834,-0.52629 -1.9301,0.79875 -1.0598,1.48333 0.3767,0.29632 0.5349,0.31557 0.9688,0.11786 z m 4.0411,-0.1445 c 0.085,-0.0853 0.1908,-0.33347 0.2344,-0.55142 0.1638,-0.81934 -0.908,-1.35451 -1.5344,-0.76608 -0.3891,0.36558 -0.3762,0.90264 0.031,1.31036 0.2597,0.25974 0.3962,0.3057 0.7171,0.24153 0.2179,-0.0436 0.4661,-0.14907 0.5514,-0.23439 z m 3.817,-0.10351 c 0.306,-0.3686 0.2724,-0.81846 -0.088,-1.17896 -0.4175,-0.41753 -0.9705,-0.40801 -1.3091,0.0225 -0.3473,0.44152 -0.3265,0.86463 0.062,1.25279 0.2587,0.25876 0.3977,0.30593 0.7187,0.24394 0.2189,-0.0423 0.4964,-0.1954 0.6168,-0.34031 z"
     id="path5386"
     inkscape:connector-curvature="0" />
  <path
     style="fill:#ffffff;fill-opacity:1;stroke:none;stroke-width:0.125;stroke-opacity:1"
     d="m 623.28471,149.86687 c -12.2388,-0.9902 -23.3424,-7.15862 -30.7029,-17.05649 -3.6405,-4.89547 -6.2887,-10.84657 -7.4769,-16.80254 -0.6468,-3.24181 -0.7191,-4.20052 -0.7838,-10.39969 l -0.061,-5.837194 0.3191,-0.319056 0.319,-0.319057 h 24.8044 c 24.2357,0 24.8111,0.0055 25.0994,0.238951 l 0.2951,0.23895 0.034,24.667296 c 0.019,13.56702 0,24.7953 -0.034,24.95173 -0.038,0.15644 -0.18,0.3955 -0.3158,0.53125 -0.2381,0.23809 -0.4225,0.24621 -5.2155,0.22943 -2.7329,-0.01 -5.5594,-0.0652 -6.2813,-0.12358 z m 4.9886,-2.97085 c 1.8613,-0.57929 3.3383,-2.10598 3.8174,-3.94569 0.1709,-0.65629 0.194,-2.8452 0.194,-18.37999 0,-19.01478 0.024,-18.29105 -0.64,-19.59198 -0.3665,-0.71835 -1.4887,-1.86514 -2.2039,-2.2522 -1.4131,-0.76474 -0.2511,-0.7248 -20.0376,-0.68873 l -18.056,0.0329 -0.8679,0.41099 c -1.58,0.74821 -2.5276,1.79276 -3.06,3.37307 -0.215,0.63828 -0.2594,1.07702 -0.2584,2.55575 0,3.9571 0.8421,8.56008 2.3124,12.68213 0.6081,1.70469 2.8717,6.4148 3.3079,6.88306 0.466,0.50017 0.7937,0.48483 1.6343,-0.0765 1.1833,-0.79018 1.8285,-0.91182 3.0028,-0.56607 0.6098,0.17958 0.8666,0.38582 2.5242,2.02742 l 1.8454,1.8275 -1.1891,1.19357 c -1.0107,1.01447 -1.1891,1.25419 -1.1891,1.59758 0,0.51951 0.3796,0.90401 0.8925,0.90401 0.3276,0 0.5922,-0.19614 1.6003,-1.18657 l 1.2077,-1.18658 1.7582,1.78033 c 0.9669,0.97918 1.82,1.89976 1.8956,2.04573 0.5553,1.07178 0.414,2.41496 -0.3629,3.44893 -0.5025,0.66873 -0.6058,1.13007 -0.3312,1.47935 0.3581,0.45538 3.3114,2.00617 5.5725,2.92609 4.6,1.87153 9.4791,2.8795 14.1624,2.92583 1.36,0.0135 1.8625,-0.0313 2.4685,-0.21993 z m -24.5454,-9.445 c 0.1687,-0.16875 0.3068,-0.45255 0.3068,-0.63068 0,-0.41676 -0.5207,-0.9375 -0.9375,-0.9375 -0.4168,0 -0.9375,0.52074 -0.9375,0.9375 0,0.41677 0.5207,0.9375 0.9375,0.9375 0.1781,0 0.4619,-0.13807 0.6307,-0.30682 z m -5.9004,-5.45696 c 0.2972,-0.13541 0.5822,-0.58221 0.5822,-0.91274 0,-0.35852 -0.5123,-0.82348 -0.9073,-0.82348 -0.9956,0 -1.3345,1.38401 -0.4283,1.74913 0.3669,0.14781 0.402,0.14721 0.7534,-0.0129 z"
     id="path5388"
     inkscape:connector-curvature="0" />
  <path
     style="fill:#dbdbdb;fill-opacity:1;stroke:none;stroke-width:0.25;stroke-opacity:1"
     d="m 487.68361,212.56602 c 5.5821,-5.1831 5.7387,-13.73343 0.3501,-19.122 l -1.4959,-1.49598 2.9984,0.0902 c 2.8717,0.0864 3.078,0.12954 4.8789,1.01973 2.3289,1.15117 4.1812,3.0343 5.2928,5.38088 0.7521,1.58784 0.7998,1.85531 0.7918,4.43963 -0.01,2.53738 -0.068,2.87565 -0.7733,4.375 -1.4275,3.03291 -4.1173,5.31456 -7.2082,6.11442 -0.8201,0.21222 -2.5294,0.38558 -3.8018,0.38558 h -2.3117 z"
     id="path5390"
     inkscape:connector-curvature="0" />
  <g
     id="g6031"
     inkscape:label="bed"
     transform="translate(-834.04889,1.8595101)">
    <path
       inkscape:connector-curvature="0"
       id="path5887"
       d="m 1423.2546,396.65365 0.033,-36.03839 19.6721,-0.0332 20.1097,-0.7207 0.1875,2.41343 0.1875,2.53842 c -1.7455,21.47942 -3.6785,50.33135 -0.2496,68.81624 l -20.2676,-0.9375 h -19.7052 z"
       style="fill:#a17037;fill-opacity:1;stroke:none;stroke-width:2;stroke-linecap:butt;stroke-linejoin:round;stroke-miterlimit:4;stroke-dasharray:none;stroke-dashoffset:0;stroke-opacity:1"
       sodipodi:nodetypes="cccccccccc" />
    <path
       inkscape:connector-curvature="0"
       id="path5891"
       d="m 1450.4185,394.97231 c -0.7462,-0.1757 -1.1738,-0.4365 -1.7377,-1.0597 l -0.5111,-0.56493 1.372,-0.0717 c 1.2327,-0.0644 1.4551,-0.11609 2.1906,-0.50937 0.9913,-0.53007 1.77,-1.34528 2.2373,-2.34197 l 0.3483,-0.74304 v -7.72485 -7.72486 l -0.3763,-0.81469 c -0.4143,-0.89694 -1.4006,-1.93165 -2.2519,-2.36249 -0.7126,-0.36063 -1.7238,-0.55431 -2.894,-0.55431 h -0.9923 l 0.086,-0.53573 c 0.12,-0.75089 0.5037,-1.44535 1.0762,-1.94798 0.9836,-0.86363 0.9203,-0.855 6.2691,-0.855 5.3577,0 5.2837,-0.0102 6.2822,0.86645 0.2762,0.24252 0.6396,0.73596 0.8075,1.09654 l 0.3053,0.65561 v 11.24476 c 9e-4,8.51692 -0.038,11.37549 -0.1597,11.78367 -0.098,0.32939 -0.4165,0.80136 -0.8183,1.21396 -1.031,1.05877 -1.2464,1.09503 -6.4093,1.07935 -2.3813,-0.007 -4.5525,-0.0656 -4.8249,-0.12977 z"
       style="fill:#dbdbdb;fill-opacity:1;stroke:none;stroke-width:2;stroke-linecap:butt;stroke-linejoin:round;stroke-miterlimit:4;stroke-dasharray:none;stroke-dashoffset:0;stroke-opacity:1" />
    <path
       inkscape:connector-curvature="0"
       id="path5893"
       d="m 1450.0139,425.95334 c -1.0959,-0.39065 -1.9808,-1.49194 -2.1375,-2.66025 l -0.07,-0.52321 1.5538,-0.0497 c 1.4695,-0.047 1.5981,-0.0736 2.3723,-0.49088 0.993,-0.5352 1.771,-1.35084 2.2373,-2.34544 l 0.3483,-0.74304 v -7.72486 -7.72485 l -0.3665,-0.78557 c -0.8767,-1.87899 -2.6431,-2.94592 -4.8771,-2.94592 -0.3926,0 -0.7137,-0.057 -0.7137,-0.12657 0,-0.21847 0.8538,-0.99174 1.3874,-1.25648 0.4785,-0.23741 0.8285,-0.25357 5.4899,-0.25357 h 4.9788 l 0.65,0.33447 c 0.7315,0.37645 1.4259,1.19832 1.6283,1.92737 0.089,0.31884 0.1347,4.38593 0.1333,11.74763 0,10.61509 -0.016,11.28995 -0.2409,11.78367 -0.3591,0.78783 -0.8649,1.31701 -1.6173,1.69191 l -0.6772,0.3375 -4.786,-0.006 c -3.726,-0.004 -4.8983,-0.0458 -5.293,-0.18648 z"
       style="fill:#dbdbdb;fill-opacity:1;stroke:none;stroke-width:2;stroke-linecap:butt;stroke-linejoin:round;stroke-miterlimit:4;stroke-dasharray:none;stroke-dashoffset:0;stroke-opacity:1" />
    <path
       inkscape:connector-curvature="0"
       id="path5939"
       d="m 1449.9923,394.77292 c -0.5052,-0.20699 -1.4813,-1.0729 -1.4813,-1.31405 0,-0.0828 0.4791,-0.15235 1.0647,-0.15459 1.8785,-0.007 3.512,-1.04835 4.4141,-2.8135 l 0.4464,-0.87337 v -7.69778 c 0,-8.56874 0.042,-8.26046 -1.326,-9.81815 -0.8266,-0.94141 -1.7859,-1.36779 -3.6062,-1.60276 l -1.584,-0.20447 0.1119,-0.55934 c 0.1336,-0.66788 0.8703,-1.67763 1.548,-2.12167 0.4333,-0.28395 1.0665,-0.32023 5.5888,-0.32023 5.8349,0 5.9093,0.0166 6.879,1.53781 l 0.5541,0.86931 -0.055,11.48007 c -0.062,12.81987 0.012,12.11901 -1.3829,13.18326 l -0.6797,0.51877 -5.0142,0.0402 c -3.0939,0.0248 -5.1916,-0.0325 -5.4772,-0.14949 z"
       style="fill:#ffffff;fill-opacity:1;stroke:none;stroke-width:2;stroke-linecap:butt;stroke-linejoin:round;stroke-miterlimit:4;stroke-dasharray:none;stroke-dashoffset:0;stroke-opacity:1" />
    <path
       inkscape:connector-curvature="0"
       id="path5941"
       d="m 1450.3094,425.90369 c -1.1467,-0.22215 -2.3539,-1.64688 -2.3539,-2.77823 0,-0.34495 0.1161,-0.37627 1.3947,-0.37627 0.7779,0 1.6696,-0.11487 2.0163,-0.25975 0.9213,-0.38491 2.1123,-1.54185 2.6212,-2.54607 l 0.4485,-0.88512 v -7.73669 -7.73669 l -0.5462,-0.95247 c -0.9017,-1.57209 -2.5557,-2.63454 -4.1586,-2.67121 -0.3129,-0.007 -0.7263,-0.0748 -0.9187,-0.15037 -0.3131,-0.12291 -0.2783,-0.1964 0.3314,-0.69895 0.6768,-0.55789 0.7006,-0.5624 3.5903,-0.68225 1.5999,-0.0664 3.9088,-0.11956 5.1308,-0.11822 1.9575,0.002 2.3081,0.0517 2.9452,0.416 1.0198,0.58315 1.4579,1.26175 1.6123,2.49724 0.1878,1.5033 0.1808,21.26226 -0.01,22.23894 -0.195,1.00938 -0.6752,1.66753 -1.6044,2.19888 -0.6971,0.39862 -0.8872,0.41291 -5.2597,0.39532 -2.4951,-0.01 -4.8521,-0.0794 -5.2378,-0.15409 z"
       style="fill:#ffffff;fill-opacity:1;stroke:none;stroke-width:2;stroke-linecap:butt;stroke-linejoin:round;stroke-miterlimit:4;stroke-dasharray:none;stroke-dashoffset:0;stroke-opacity:1" />
    <path
       inkscape:connector-curvature="0"
       id="path5943"
       d="m 1465.9163,396.64127 v -40.92092 h 0.8332 0.8333 v 40.92092 40.92092 h -0.8333 -0.8332 z"
       style="fill:#f4a460;fill-opacity:1;stroke:none;stroke-width:2;stroke-linecap:butt;stroke-linejoin:round;stroke-miterlimit:4;stroke-dasharray:none;stroke-dashoffset:0;stroke-opacity:1" />
    <path
       inkscape:connector-curvature="0"
       id="path5945"
       d="m 1369.0184,396.60127 v -38.12252 h 1.0873 1.0874 v 38.12252 38.12252 h -1.0874 -1.0873 z"
       style="fill:#f4a460;fill-opacity:1;stroke:none;stroke-width:1.99999988;stroke-linecap:butt;stroke-linejoin:round;stroke-miterlimit:4;stroke-dasharray:none;stroke-dashoffset:0;stroke-opacity:1" />
  </g>
  <g
     style="stroke-width:0.16215752"
     inkscape:label="camera.landing"
     transform="matrix(4.4972015,-2.9410453,4.1734349,5.5754129,-6646.8045,-1232.0032)"
     id="camera.landing">
    <path
       style="fill:#ececec;fill-opacity:1;stroke:#000000;stroke-width:0.16363125;stroke-miterlimit:4;stroke-dasharray:none;stroke-opacity:1"
       inkscape:connector-curvature="0"
       d="m 891.89465,717.81171 0.29137,-0.12544 c 0.0775,-0.0328 0.14518,-0.0725 0.21004,-0.11367 l 0.44137,0.56698 c 0.2556,0.32832 0.81291,0.44327 1.24585,0.25687 l 5.62183,-2.42065 c 0.43232,-0.18621 0.57707,-0.60336 0.32146,-0.93173 l -1.97377,-2.53593 c -0.25584,-0.32858 -0.81497,-0.44381 -1.24724,-0.25776 l -5.6218,2.42064 c -0.43298,0.18639 -0.57575,0.60396 -0.32001,0.93257 l 0.63695,0.81837 c -0.0812,0.02 -0.16,0.0451 -0.23714,0.0788 l -0.31903,0.13751 -2.22538,-0.24058 2.46399,3.16582 z"
       id="path5816" />
  </g>
  <path
     style="fill:#644522;fill-opacity:1;stroke:none;stroke-width:2;stroke-linecap:butt;stroke-linejoin:round;stroke-miterlimit:4;stroke-dasharray:2.00000005, 12.00000035;stroke-dashoffset:0;stroke-opacity:1"
     d="m 541.03741,435.71269 -2.5472,-0.0378 v -36.87958 -36.8796 h 12.7695 12.7696 v 36.94638 36.9464 l -10.2223,-0.0292 c -5.6222,-0.016 -11.3686,-0.046 -12.7696,-0.0668 z"
     id="path5854"
     inkscape:connector-curvature="0" />
  <g
     id="g5055"
     transform="matrix(0,0.20457136,-0.20457136,0,636.64141,346.25695)">
    <path
       id="path5000"
       d="M 463.5,0 H 47.5 C 43.358,0 40,3.358 40,7.5 v 24 c 0,4.142 3.358,7.5 7.5,7.5 H 64 v 224.498 0.005 39.995 0.005 39.995 0.005 39.995 0.005 V 472 h -0.5 c -4.142,0 -7.5,3.358 -7.5,7.5 v 24 c 0,4.142 3.358,7.5 7.5,7.5 h 384 c 4.142,0 7.5,-3.358 7.5,-7.5 v -24 c 0,-4.142 -3.358,-7.5 -7.5,-7.5 H 447 v -80.498 -0.005 -39.995 -0.005 -39.995 -0.005 -39.995 -0.005 V 39 h 16.5 c 4.142,0 7.5,-3.358 7.5,-7.5 V 7.5 C 471,3.358 467.642,0 463.5,0 Z M 440,496 H 71 v -9 h 369 z m -359.644269,-20.84936 -0.03819,-118.97493 353.114569,0.002 -0.0764,118.97286 z M 432,232 h -24.497 -0.005 -39.995 -0.005 -39.995 -0.005 -39.995 -0.005 -39.995 -0.005 -39.995 -0.005 -39.995 -0.005 -39.995 -0.005 H 87.503 87.498 79 V 39 h 21.681 C 97.716,43.802 96,49.454 96,55.5 v 40 c 0,17.369 14.131,31.5 31.5,31.5 h 1.734 c 3.138,9.29 11.93,16 22.266,16 h 64 c 10.585,0 19.554,-7.036 22.486,-16.675 6.956,-1.462 13.07,-5.228 17.514,-10.456 4.444,5.229 10.558,8.994 17.514,10.456 2.932,9.639 11.901,16.675 22.486,16.675 h 64 c 10.336,0 19.128,-6.71 22.266,-16 h 1.734 c 17.369,0 31.5,-14.131 31.5,-31.5 v -40 C 415,49.454 413.284,43.802 410.319,39 H 432 Z M 400,55.5 v 40 c 0,9.098 -7.402,16.5 -16.5,16.5 H 383 v -8.5 C 383,90.542 372.458,80 359.5,80 H 327.503 327.498 295.5 C 282.542,80 272,90.542 272,103.5 v 6.679 c -5.334,-2.737 -9,-8.282 -9,-14.679 v -40 C 263,46.402 270.402,39 279.5,39 h 104 c 9.098,0 16.5,7.402 16.5,16.5 z m -61.394,72.5 -33,-33 h 18.787 l 33,33 z M 288.635,98.508 c 0.364,0.833 0.88,1.614 1.561,2.295 L 317.394,128 H 295.5 c -4.687,0 -8.5,-3.813 -8.5,-8.5 v -16 c 0,-1.866 0.612,-3.588 1.635,-4.992 z M 368,117.394 345.606,95 H 359.5 c 4.687,0 8.5,3.813 8.5,8.5 z M 248,55.5 v 40 c 0,6.396 -3.666,11.941 -9,14.679 V 103.5 C 239,90.542 228.458,80 215.5,80 H 183.503 183.498 151.5 C 138.542,80 128,90.542 128,103.5 v 8.5 h -0.5 C 118.402,112 111,104.598 111,95.5 v -40 C 111,46.402 118.402,39 127.5,39 h 104 c 9.098,0 16.5,7.402 16.5,16.5 z m -53.394,72.5 -33,-33 h 18.787 l 33,33 z M 144.635,98.508 c 0.364,0.833 0.88,1.614 1.561,2.295 L 173.394,128 H 151.5 c -4.687,0 -8.5,-3.813 -8.5,-8.5 v -16 c 0,-1.866 0.612,-3.588 1.635,-4.992 z M 224,117.394 201.606,95 H 215.5 c 4.687,0 8.5,3.813 8.5,8.5 z M 456,24 h -72.5 -104 -48 -104 H 55 v -9 h 401 z"
       inkscape:connector-curvature="0"
       sodipodi:nodetypes="sssssccccccccccssssssssccccccccccssssccccccccccccccccccccccccccccccccssscsscccsscssscccssscssccsscsssssccccccccssscccsscsscssccsscssssssccccccccssscccsscccccccccc" />
    <g
       id="g5002" />
    <g
       id="g5004" />
    <g
       id="g5006" />
    <g
       id="g5008" />
    <g
       id="g5010"
       transform="translate(-9.7765396)" />
    <g
       id="g5012" />
    <g
       id="g5014" />
    <g
       id="g5016" />
    <g
       id="g5018" />
    <g
       id="g5020" />
    <g
       id="g5022" />
    <g
       id="g5024" />
    <g
       id="g5026" />
    <g
       id="g5028" />
    <g
       id="g5030" />
  </g>
</svg>
