<?xml version="1.0" encoding="UTF-8" standalone="no"?>
<!-- Created with Inkscape (http://www.inkscape.org/) -->

<svg
   xmlns:osb="http://www.openswatchbook.org/uri/2009/osb"
   xmlns:dc="http://purl.org/dc/elements/1.1/"
   xmlns:cc="http://creativecommons.org/ns#"
   xmlns:rdf="http://www.w3.org/1999/02/22-rdf-syntax-ns#"
   xmlns:svg="http://www.w3.org/2000/svg"
   xmlns="http://www.w3.org/2000/svg"
   xmlns:sodipodi="http://sodipodi.sourceforge.net/DTD/sodipodi-0.dtd"
   xmlns:inkscape="http://www.inkscape.org/namespaces/inkscape"
   version="1.1"
   id="svg4485"
   width="657.60071"
   height="686.25787"
   viewBox="0 0 657.6007 686.25789"
   sodipodi:docname="ground_floor.svg"
   inkscape:version="0.92.1 r15371">
  <metadata
     id="metadata141">
    <rdf:RDF>
      <cc:Work
         rdf:about="">
        <dc:format>image/svg+xml</dc:format>
        <dc:type
           rdf:resource="http://purl.org/dc/dcmitype/StillImage" />
        <dc:title></dc:title>
      </cc:Work>
    </rdf:RDF>
  </metadata>
  <defs
     id="defs4489">
    <linearGradient
       id="linearGradient5843"
       osb:paint="solid">
      <stop
         style="stop-color:#000000;stop-opacity:1;"
         offset="0"
         id="stop5841" />
    </linearGradient>
    <inkscape:perspective
       sodipodi:type="inkscape:persp3d"
       inkscape:vp_x="0 : 341.97789 : 1"
       inkscape:vp_y="0 : 1000 : 0"
       inkscape:vp_z="1516.0488 : 341.97789 : 1"
       inkscape:persp3d-origin="758.0244 : 227.98526 : 1"
       id="perspective4155" />
    <linearGradient
       id="linearGradient5407"
       osb:paint="solid">
      <stop
         style="stop-color:#070707;stop-opacity:1;"
         offset="0"
         id="stop5405" />
    </linearGradient>
  </defs>
  <sodipodi:namedview
     pagecolor="#332a29"
     bordercolor="#666666"
     borderopacity="1"
     objecttolerance="10"
     gridtolerance="10000"
     guidetolerance="10000"
     inkscape:pageopacity="0"
     inkscape:pageshadow="2"
     inkscape:window-width="1920"
     inkscape:window-height="1017"
     id="namedview4487"
     showgrid="true"
     inkscape:zoom="0.70710678"
     inkscape:cx="352.53209"
     inkscape:cy="347.50454"
     inkscape:window-x="-8"
     inkscape:window-y="-8"
     inkscape:window-maximized="1"
     inkscape:current-layer="svg4485"
     inkscape:snap-nodes="true"
     inkscape:snap-grids="true"
     inkscape:snap-object-midpoints="true"
     inkscape:snap-global="false"
     inkscape:snap-bbox="false"
     inkscape:object-paths="true"
     inkscape:snap-others="true"
     inkscape:snap-smooth-nodes="false"
     inkscape:snap-midpoints="true"
     inkscape:snap-center="false"
     inkscape:snap-text-baseline="true"
     inkscape:object-nodes="true"
     inkscape:snap-intersection-paths="true"
     fit-margin-top="10"
     fit-margin-left="10"
     fit-margin-right="10"
     fit-margin-bottom="10"
     showguides="true"
     inkscape:guide-bbox="true"
     inkscape:pagecheckerboard="false"
     inkscape:measure-start="0,0"
     inkscape:measure-end="0,0">
    <inkscape:grid
       empspacing="1"
       type="xygrid"
       id="grid4496"
       spacingx="1"
       spacingy="1"
       originx="53.858712"
       originy="-483.43265" />
  </sodipodi:namedview>
  <rect
     style="fill:#7e8086;fill-opacity:1;stroke:#000000;stroke-width:10;stroke-linecap:butt;stroke-linejoin:round;stroke-miterlimit:4;stroke-dasharray:none;stroke-dashoffset:0;stroke-opacity:1"
     id="rect4623"
     width="210.91544"
     height="391.68704"
     x="15"
     y="97.121063"
     inkscape:label="LivingRoomFloor" />
  <rect
     style="fill:#7e8086;fill-opacity:1;stroke:#000000;stroke-width:10;stroke-linecap:butt;stroke-linejoin:round;stroke-miterlimit:4;stroke-dasharray:none;stroke-dashoffset:0;stroke-opacity:1"
     id="rect4625"
     width="247.46017"
     height="205.81816"
     x="395.1405"
     y="96.981796"
     inkscape:label="KitchenFloor" />
  <rect
     style="fill:#7e8086;fill-opacity:1;stroke:#000000;stroke-width:10;stroke-linecap:butt;stroke-linejoin:round;stroke-miterlimit:4;stroke-dasharray:none;stroke-dashoffset:0;stroke-opacity:1"
     id="light.dining_room"
     width="247.46017"
     height="191.35524"
     x="395.14056"
     y="297.43787"
     inkscape:label="DiningRoomFloor" />
  <rect
     style="fill:#7e8086;fill-opacity:1;stroke:#000000;stroke-width:10;stroke-linecap:butt;stroke-linejoin:round;stroke-miterlimit:4;stroke-dasharray:none;stroke-dashoffset:0;stroke-opacity:1"
     id="rect4629"
     width="172.28241"
     height="373.78165"
     x="224.79192"
     y="228.70016"
     inkscape:label="HallFloor" />
  <rect
     style="fill:#7e8086;fill-opacity:1;stroke:none;stroke-width:2;stroke-linecap:butt;stroke-linejoin:round;stroke-miterlimit:4;stroke-dasharray:2.00000015, 12.00000084;stroke-dashoffset:0;stroke-opacity:1"
     id="binary_sensor.hall_motion"
     width="162.23024"
     height="333.5022"
     x="229.84477"
     y="241.07626"
     inkscape:label="binary_sensor.hall_motion" />
  <rect
     style="fill:#7e8086;fill-opacity:1;stroke:#000000;stroke-width:4;stroke-linecap:butt;stroke-linejoin:round;stroke-miterlimit:4;stroke-dasharray:none;stroke-dashoffset:0;stroke-opacity:1"
     id="rect4631"
     width="80.588165"
     height="162.08786"
     x="227.84264"
     y="437.52914"
     inkscape:label="ToiletFloor" />
  <g
     id="camera.drive"
     transform="matrix(4.112065,2.0786332,-2.3509323,5.4894813,-1726.8181,-5124.054)"
     inkscape:label="camera.drive"
     style="stroke-width:0.18911324">
    <path
       id="path4918-2-7-1-2-4-2"
       d="m 895.65469,714.11415 h -0.32455 c -0.0861,0 -0.1682,0.009 -0.249,0.0211 v -0.67968 c 0,-0.39354 -0.39028,-0.71221 -0.87253,-0.71221 h -6.26201 c -0.48161,0 -0.87317,0.31866 -0.87317,0.71221 v 3.03968 c 0,0.39388 0.39156,0.71352 0.87317,0.71352 h 6.26201 c 0.48225,0 0.87253,-0.31964 0.87253,-0.71352 v -0.98093 c 0.0808,0.0128 0.16292,0.0211 0.249,0.0211 h 0.35543 l 1.70036,1.07618 v -3.79464 z"
       inkscape:connector-curvature="0"
       style="fill:#ececec;fill-opacity:1;stroke:#000000;stroke-width:0.19083194;stroke-miterlimit:4;stroke-dasharray:none;stroke-opacity:1" />
  </g>
  <g
     id="camera.garden"
     transform="matrix(4.4972015,-2.9410453,4.1734349,5.5754129,-6942.3239,-1323.8441)"
     inkscape:label="camera.garden"
     style="stroke-width:0.16215752">
    <path
       id="path4918-2-7-1-2-4-2-3"
       d="m 895.65469,714.11415 h -0.32455 c -0.0861,0 -0.1682,0.009 -0.249,0.0211 v -0.67968 c 0,-0.39354 -0.39028,-0.71221 -0.87253,-0.71221 h -6.26201 c -0.48161,0 -0.87317,0.31866 -0.87317,0.71221 v 3.03968 c 0,0.39388 0.39156,0.71352 0.87317,0.71352 h 6.26201 c 0.48225,0 0.87253,-0.31964 0.87253,-0.71352 v -0.98093 c 0.0808,0.0128 0.16292,0.0211 0.249,0.0211 h 0.35543 l 1.70036,1.07618 v -3.79464 z"
       inkscape:connector-curvature="0"
       style="fill:#ececec;fill-opacity:1;stroke:#000000;stroke-width:0.16363125;stroke-miterlimit:4;stroke-dasharray:none;stroke-opacity:1" />
  </g>
  <rect
     style="fill:#a1e6f4;fill-opacity:1;stroke:#000000;stroke-width:3;stroke-linecap:butt;stroke-linejoin:round;stroke-miterlimit:4;stroke-dasharray:none;stroke-dashoffset:0;stroke-opacity:1"
     id="rect4661"
     width="64.288918"
     height="6.9850001"
     x="436.62482"
     y="485.29718" />
  <rect
     style="fill:#a1e6f4;fill-opacity:1;stroke:#000000;stroke-width:3;stroke-linecap:butt;stroke-linejoin:round;stroke-miterlimit:4;stroke-dasharray:none;stroke-dashoffset:0;stroke-opacity:1"
     id="rect4661-9"
     width="129.49625"
     height="6.9850001"
     x="52.791504"
     y="485.3042" />
  <rect
     style="fill:#a1e6f4;fill-opacity:1;stroke:#000000;stroke-width:3;stroke-linecap:butt;stroke-linejoin:round;stroke-miterlimit:4;stroke-dasharray:none;stroke-dashoffset:0;stroke-opacity:1"
     id="rect4661-9-3"
     width="129.49625"
     height="6.9850001"
     x="60.361023"
     y="93.613426" />
  <rect
     style="fill:#a1e6f4;fill-opacity:1;stroke:#000000;stroke-width:3;stroke-linecap:butt;stroke-linejoin:round;stroke-miterlimit:4;stroke-dasharray:none;stroke-dashoffset:0;stroke-opacity:1"
     id="rect4661-5"
     width="169.90642"
     height="6.9850001"
     x="438.6225"
     y="93.479309" />
  <rect
     y="485.29718"
     x="539.48712"
     height="6.9850001"
     width="64.288918"
     id="rect4702"
     style="fill:#a1e6f4;fill-opacity:1;stroke:#000000;stroke-width:3;stroke-linecap:butt;stroke-linejoin:round;stroke-miterlimit:4;stroke-dasharray:none;stroke-dashoffset:0;stroke-opacity:1" />
  <rect
     y="594.47186"
     x="320.77731"
     height="15.613023"
     width="64.288918"
     id="rect4704"
     style="fill:#80610f;fill-opacity:1;stroke:#000000;stroke-width:3;stroke-linecap:butt;stroke-linejoin:round;stroke-miterlimit:4;stroke-dasharray:6, 3;stroke-dashoffset:0;stroke-opacity:1" />
  <rect
     y="-309.98633"
     x="-511.57928"
     height="3.1143577"
     width="64.288918"
     id="rect4704-7"
     style="fill:#80610f;fill-opacity:1;stroke:#000000;stroke-width:0.30000001;stroke-linecap:butt;stroke-linejoin:round;stroke-miterlimit:4;stroke-dasharray:none;stroke-dashoffset:0;stroke-opacity:1"
     transform="matrix(0,-1,-1,0,0,0)" />
  <rect
     transform="matrix(0,-1,-1,0,0,0)"
     style="fill:#80610f;fill-opacity:1;stroke:#000000;stroke-width:3;stroke-linecap:butt;stroke-linejoin:round;stroke-miterlimit:4;stroke-dasharray:none;stroke-dashoffset:0;stroke-opacity:1"
     id="rect4730"
     width="111.04688"
     height="6.9850001"
     x="-446.86472"
     y="-400.53583" />
  <rect
     style="fill:#7e8086;fill-opacity:1;stroke:#000000;stroke-width:10;stroke-linecap:butt;stroke-linejoin:round;stroke-miterlimit:4;stroke-dasharray:none;stroke-dashoffset:0;stroke-opacity:1"
     id="rect4633"
     width="172.28241"
     height="139.06631"
     x="224.79103"
     y="97.085556"
     inkscape:label="UtilityRoomFloor" />
  <rect
     style="fill:#80610f;fill-opacity:1;stroke:#000000;stroke-width:3;stroke-linecap:butt;stroke-linejoin:round;stroke-miterlimit:4;stroke-dasharray:none;stroke-dashoffset:0;stroke-opacity:1"
     id="rect4732"
     width="64.288918"
     height="6.9850001"
     x="319.80823"
     y="232.57443" />
  <rect
     y="91.380112"
     x="317.40454"
     height="15.613023"
     width="64.288918"
     id="rect4734"
     style="fill:#80610f;fill-opacity:1;stroke:#000000;stroke-width:3;stroke-linecap:butt;stroke-linejoin:round;stroke-miterlimit:4;stroke-dasharray:6, 3;stroke-dashoffset:0;stroke-opacity:1" />
  <rect
     transform="matrix(0,-1,-1,0,0,0)"
     style="fill:#80610f;fill-opacity:1;stroke:#000000;stroke-width:3;stroke-linecap:butt;stroke-linejoin:round;stroke-miterlimit:4;stroke-dasharray:none;stroke-dashoffset:0;stroke-opacity:1"
     id="rect4738"
     width="64.288918"
     height="6.9850001"
     x="-430.40231"
     y="-228.3148" />
  <text
     xml:space="preserve"
     style="font-style:normal;font-weight:normal;font-size:36.73652267px;line-height:1.25;font-family:sans-serif;letter-spacing:0px;word-spacing:0px;fill:#000000;fill-opacity:1;stroke:none;stroke-width:1"
     x="243.13148"
     y="113.02489"
     id="text4799-6"><tspan
       sodipodi:role="line"
       id="tspan4797-4"
       x="243.13148"
       y="146.54073"
       style="stroke-width:1" /></text>
  <rect
     inkscape:label="ToiletFloor"
     y="337.52914"
     x="228.84264"
     height="19.606888"
     width="79.588165"
     id="rect6767"
     style="fill:#c9cacc;fill-opacity:1;stroke:#000000;stroke-width:2;stroke-linecap:butt;stroke-linejoin:round;stroke-miterlimit:4;stroke-dasharray:none;stroke-dashoffset:0;stroke-opacity:1" />
  <g
     id="g6789"
     inkscape:label="Stairs"
     transform="translate(-0.33709728,75.243993)">
    <rect
       inkscape:label="Step"
       y="262.28516"
       x="229.17975"
       height="19.606888"
       width="79.588165"
       id="rect6769"
       style="fill:#a5a7a9;fill-opacity:1;stroke:#000000;stroke-width:2;stroke-linecap:butt;stroke-linejoin:round;stroke-miterlimit:4;stroke-dasharray:none;stroke-dashoffset:0;stroke-opacity:1" />
    <rect
       style="fill:#a5a7a9;fill-opacity:1;stroke:#000000;stroke-width:2;stroke-linecap:butt;stroke-linejoin:round;stroke-miterlimit:4;stroke-dasharray:none;stroke-dashoffset:0;stroke-opacity:1"
       id="rect6773"
       width="79.588165"
       height="24.731888"
       x="229.17975"
       y="245.41016"
       inkscape:label="Step" />
    <rect
       inkscape:label="Step"
       y="226.28516"
       x="229.17975"
       height="27.981888"
       width="79.588165"
       id="rect6775"
       style="fill:#a5a7a9;fill-opacity:1;stroke:#000000;stroke-width:2;stroke-linecap:butt;stroke-linejoin:round;stroke-miterlimit:4;stroke-dasharray:none;stroke-dashoffset:0;stroke-opacity:1" />
    <rect
       style="fill:#a5a7a9;fill-opacity:1;stroke:#000000;stroke-width:2;stroke-linecap:butt;stroke-linejoin:round;stroke-miterlimit:4;stroke-dasharray:none;stroke-dashoffset:0;stroke-opacity:1"
       id="rect6777"
       width="79.588165"
       height="29.856888"
       x="229.17975"
       y="206.28516"
       inkscape:label="Step" />
    <rect
       inkscape:label="Step"
       y="186.28516"
       x="229.17975"
       height="24.731888"
       width="79.588165"
       id="rect6779"
       style="fill:#a5a7a9;fill-opacity:1;stroke:#000000;stroke-width:2;stroke-linecap:butt;stroke-linejoin:round;stroke-miterlimit:4;stroke-dasharray:none;stroke-dashoffset:0;stroke-opacity:1" />
    <rect
       style="fill:#a5a7a9;fill-opacity:1;stroke:#000000;stroke-width:1.99999988;stroke-linecap:butt;stroke-linejoin:round;stroke-miterlimit:4;stroke-dasharray:none;stroke-dashoffset:0;stroke-opacity:1"
       id="rect6781"
       width="79.588165"
       height="22.749655"
       x="229.17975"
       y="165.14238"
       inkscape:label="Step" />
  </g>
  <g
     id="g4127"
     transform="matrix(0.25350008,0,0,0.25350008,109.78382,182.78204)">
    <path
       id="path4072"
       d="m 403.5,24 h -8 c -2.997,0 -5.862,0.57 -8.5,1.598 V 23.5 C 387,10.542 376.458,0 363.5,0 h -96 C 254.542,0 244,10.542 244,23.5 v 8 V 312 H 99.5 91.5 C 78.542,312 68,322.542 68,335.5 v 96 c 0,12.958 10.542,23.5 23.5,23.5 h 8 c 0.721,0 1.433,-0.038 2.138,-0.102 -1.053,2.666 -1.638,5.566 -1.638,8.602 v 8 c 0,12.958 10.542,23.5 23.5,23.5 h 248 c 30.603,0 55.5,-24.897 55.5,-55.5 V 47.5 C 427,34.542 416.458,24 403.5,24 Z m -68.894,432 -41,-41 h 18.787 l 41,41 z M 235,440 v -16.498 c 0,-0.002 0,-0.005 0,-0.008 -0.003,-12.954 -10.541,-23.492 -23.495,-23.495 -0.002,0 -0.005,0 -0.008,0 h -39.995 c -0.001,0 -0.003,0 -0.005,0 H 155.5 c -12.958,0 -23.5,10.542 -23.5,23.5 V 440 h -8.5 c -0.721,0 -1.433,0.038 -2.138,0.102 1.053,-2.666 1.638,-5.566 1.638,-8.602 v -96 c 0,-2.997 -0.57,-5.862 -1.597,-8.5 H 244 v 113 z m -44.394,16 -37.803,-37.803 c -0.681,-0.681 -1.463,-1.197 -2.295,-1.562 1.404,-1.023 3.126,-1.635 4.992,-1.635 h 12.894 l 41,41 z M 147,433.606 169.393,456 H 155.5 c -4.687,0 -8.5,-3.813 -8.5,-8.5 z M 208.393,415 220,426.606 v 18.787 L 189.606,415 Z M 347,92.394 V 87.5 c 0,-3.753 2.448,-6.941 5.829,-8.064 L 388,114.607 v 18.787 z M 355.502,64 c -0.003,0 -0.006,0 -0.009,0 C 342.539,64.004 332,74.544 332,87.5 v 7.987 c 0,0.008 0,0.017 0,0.025 v 39.975 c 0,0.008 0,0.017 0,0.025 v 7.987 c 0,12.958 10.542,23.5 23.5,23.5 H 372 v 8.999 H 259 V 53.402 c 2.638,1.028 5.503,1.598 8.5,1.598 h 96 c 2.997,0 5.862,-0.57 8.5,-1.598 V 64 Z M 259,190.999 H 372 V 200 h -16.498 c -0.003,0 -0.006,0 -0.009,0 C 342.539,200.004 332,210.544 332,223.5 v 7.987 c 0,0.008 0,0.017 0,0.025 v 39.975 c 0,0.008 0,0.017 0,0.025 v 7.987 c 0,12.958 10.542,23.5 23.5,23.5 H 372 v 9 H 259 Z m 88,37.395 V 223.5 c 0,-3.753 2.448,-6.941 5.829,-8.064 L 388,250.607 v 18.787 z M 259,327 h 113 v 9 h -0.498 c -0.002,0 -0.003,0 -0.005,0 H 355.5 c -12.958,0 -23.5,10.542 -23.5,23.5 v 31.987 c 0,0.008 0,0.017 0,0.025 V 400 h -16.498 c -0.002,0 -0.003,0 -0.005,0 H 291.5 C 278.542,400 268,410.542 268,423.5 V 440 h -9 z m 129,62.394 -35.197,-35.197 c -0.681,-0.681 -1.463,-1.197 -2.295,-1.562 1.404,-1.023 3.126,-1.635 4.992,-1.635 h 12.893 L 388,370.607 Z m -41,-1 v -18.787 l 41,41 v 18.787 z M 294.606,456 283,444.394 V 425.607 L 313.393,456 Z M 374.344,455.737 333.606,415 h 5.894 c 3.497,0 6.427,-2.397 7.257,-5.636 l 35.439,35.439 c 1.141,1.141 2.559,1.832 4.037,2.083 -2.306,4.582 -6.677,7.94 -11.889,8.851 z M 379.5,288 H 366.606 L 347,268.394 v -18.787 l 35.196,35.196 c 0.681,0.681 1.463,1.197 2.296,1.562 -1.403,1.023 -3.126,1.635 -4.992,1.635 z M 388,229.394 373.606,215 h 5.894 c 4.687,0 8.5,3.813 8.5,8.5 z M 379.5,152 H 366.606 L 347,132.394 v -18.787 l 35.196,35.196 c 0.681,0.681 1.463,1.197 2.296,1.562 -1.403,1.023 -3.126,1.635 -4.992,1.635 z M 388,93.394 373.606,79 h 5.894 c 4.687,0 8.5,3.813 8.5,8.5 z M 267.5,15 h 96 c 4.687,0 8.5,3.813 8.5,8.5 v 8 c 0,4.687 -3.813,8.5 -8.5,8.5 h -96 c -4.687,0 -8.5,-3.813 -8.5,-8.5 v -8 c 0,-4.687 3.813,-8.5 8.5,-8.5 z m -176,425 c -4.687,0 -8.5,-3.813 -8.5,-8.5 v -96 c 0,-4.687 3.813,-8.5 8.5,-8.5 h 8 c 4.687,0 8.5,3.813 8.5,8.5 v 96 c 0,4.687 -3.813,8.5 -8.5,8.5 z M 412,439.5 c 0,22.332 -18.168,40.5 -40.5,40.5 h -248 c -4.687,0 -8.5,-3.813 -8.5,-8.5 v -8 c 0,-4.687 3.813,-8.5 8.5,-8.5 h 9.734 c 3.138,9.29 11.93,16 22.266,16 h 56 c 10.336,0 19.128,-6.71 22.266,-16 h 35.469 c 3.138,9.29 11.93,16 22.266,16 h 80 c 17.369,0 31.5,-14.131 31.5,-31.5 v -80 c 0,-10.335 -6.71,-19.127 -16,-22.266 v -35.469 c 9.29,-3.138 16,-11.93 16,-22.266 v -56 c 0,-10.335 -6.71,-19.127 -16,-22.266 v -35.469 c 9.29,-3.138 16,-11.93 16,-22.266 v -56 c 0,-10.335 -6.71,-19.127 -16,-22.266 V 47.5 c 0,-4.687 3.813,-8.5 8.5,-8.5 h 8 c 4.687,0 8.5,3.813 8.5,8.5 v 392 z"
       inkscape:connector-curvature="0" />
    <g
       id="g4074" />
    <g
       id="g4076" />
    <g
       id="g4078" />
    <g
       id="g4080" />
    <g
       id="g4082" />
    <g
       id="g4084" />
    <g
       id="g4086" />
    <g
       id="g4088" />
    <g
       id="g4090" />
    <g
       id="g4092" />
    <g
       id="g4094" />
    <g
       id="g4096" />
    <g
       id="g4098" />
    <g
       id="g4100" />
    <g
       id="g4102" />
  </g>
  <g
     id="g4196"
     transform="matrix(0,0.23916226,-0.23916226,0,104.21062,122.31221)"
     style="stroke-width:1.29036546">
    <g
       id="g4137"
       style="stroke-width:1.29036546">
      <path
         id="path4129"
         d="m 495.5,212 h -71.865 l 6.573,-13.146 c 1.163,-2.325 1.039,-5.086 -0.328,-7.297 C 428.513,189.346 426.099,188 423.5,188 h -336 c -2.599,0 -5.013,1.346 -6.38,3.557 -1.367,2.211 -1.491,4.972 -0.328,7.297 L 87.365,212 H 15.5 C 6.953,212 0,218.954 0,227.5 v 80 c 0,8.547 6.953,15.5 15.5,15.5 h 480 c 8.547,0 15.5,-6.953 15.5,-15.5 v -80 c 0,-8.546 -6.953,-15.5 -15.5,-15.5 z m -84.135,-9 -16.5,33 h -278.73 l -16.5,-33 z M 167,251 h 177 v 8.5 c 0,0.276 -0.224,0.5 -0.5,0.5 h -176 c -0.276,0 -0.5,-0.224 -0.5,-0.5 z m 329,56.5 c 0,0.276 -0.224,0.5 -0.5,0.5 h -480 c -0.276,0 -0.5,-0.224 -0.5,-0.5 v -80 c 0,-0.275 0.224,-0.5 0.5,-0.5 h 79.365 l 9.927,19.854 c 1.27,2.541 3.867,4.146 6.708,4.146 H 152 v 8.5 c 0,8.547 6.953,15.5 15.5,15.5 h 176 c 8.547,0 15.5,-6.953 15.5,-15.5 V 251 h 40.5 c 2.841,0 5.438,-1.604 6.708,-4.146 L 416.135,227 H 495.5 c 0.276,0 0.5,0.225 0.5,0.5 z"
         inkscape:connector-curvature="0"
         style="stroke-width:1.29036546" />
      <path
         id="path4131"
         d="m 103.5,252 h -48 c -4.142,0 -7.5,3.358 -7.5,7.5 v 32 c 0,4.143 3.358,7.5 7.5,7.5 h 48 c 4.142,0 7.5,-3.357 7.5,-7.5 v -32 c 0,-4.142 -3.358,-7.5 -7.5,-7.5 z M 96,284 H 63 v -17 h 33 z"
         inkscape:connector-curvature="0"
         style="stroke-width:1.29036546" />
      <path
         id="path4133"
         d="m 127.5,268 c -4.142,0 -7.5,3.358 -7.5,7.5 v 16 c 0,4.143 3.358,7.5 7.5,7.5 4.142,0 7.5,-3.357 7.5,-7.5 v -16 c 0,-4.142 -3.358,-7.5 -7.5,-7.5 z"
         inkscape:connector-curvature="0"
         style="stroke-width:1.29036546" />
      <path
         id="path4135"
         d="m 479.5,236 h -32 c -4.142,0 -7.5,3.358 -7.5,7.5 v 8.5 h -16.5 c -4.142,0 -7.5,3.358 -7.5,7.5 v 40 c 0,4.143 3.358,7.5 7.5,7.5 h 32 c 4.142,0 7.5,-3.357 7.5,-7.5 V 291 h 16.5 c 4.142,0 7.5,-3.357 7.5,-7.5 v -40 c 0,-4.142 -3.358,-7.5 -7.5,-7.5 z M 448,292 h -17 v -25 h 16.437 c 0.021,0 0.042,0.003 0.063,0.003 0.021,0 0.042,-0.003 0.063,-0.003 H 448 Z m 24,-16 h -9 v -16.5 c 0,-4.142 -3.358,-7.5 -7.5,-7.5 H 455 v -1 h 17 z"
         inkscape:connector-curvature="0"
         style="stroke-width:1.29036546" />
    </g>
    <g
       id="g4139"
       style="stroke-width:1.29036546" />
    <g
       id="g4141"
       style="stroke-width:1.29036546" />
    <g
       id="g4143"
       style="stroke-width:1.29036546" />
    <g
       id="g4145"
       style="stroke-width:1.29036546" />
    <g
       id="g4147"
       style="stroke-width:1.29036546" />
    <g
       id="g4149"
       style="stroke-width:1.29036546" />
    <g
       id="g4151"
       style="stroke-width:1.29036546" />
    <g
       id="g4153"
       style="stroke-width:1.29036546" />
    <g
       id="g4155"
       style="stroke-width:1.29036546" />
    <g
       id="g4157"
       style="stroke-width:1.29036546" />
    <g
       id="g4159"
       style="stroke-width:1.29036546" />
    <g
       id="g4161"
       style="stroke-width:1.29036546" />
    <g
       id="g4163"
       style="stroke-width:1.29036546" />
    <g
       id="g4165"
       style="stroke-width:1.29036546" />
    <g
       id="g4167"
       style="stroke-width:1.29036546" />
  </g>
  <g
     id="g4822"
     transform="matrix(0,-0.09196347,0.09196347,0,223.74647,499.07276)">
    <g
       id="g4762">
      <path
         id="path4752"
         d="M 487.5,68 H 23.5 C 10.542,68 0,78.542 0,91.5 v 96 C 0,255.747 26.577,319.908 74.834,368.166 123.092,416.423 187.254,443 255.5,443 323.746,443 387.908,416.423 436.166,368.166 484.423,319.908 511,255.747 511,187.5 v -96 C 511,78.542 500.458,68 487.5,68 Z m 8.5,119.5 c 0,64.24 -25.016,124.634 -70.44,170.059 C 380.135,402.984 319.74,428 255.5,428 v 0 C 191.26,428 130.866,402.984 85.441,357.56 40.016,312.135 15,251.74 15,187.5 v -96 C 15,86.813 18.813,83 23.5,83 h 464 c 4.687,0 8.5,3.813 8.5,8.5 z"
         inkscape:connector-curvature="0" />
      <path
         id="path4754"
         d="M 436.06,156 H 316.832 c -0.413,-0.816 -0.857,-1.623 -1.358,-2.41 l -31.019,-48.744 c -0.294,-0.462 -0.637,-0.89 -1.024,-1.277 -15.401,-15.401 -40.46,-15.401 -55.861,0 -7.52,7.52 -11.358,17.343 -11.534,27.22 -0.04,0.427 -0.038,0.864 -0.003,1.305 0.04,2.654 0.346,5.304 0.916,7.908 L 218.831,156 H 74.94 C 60.085,156 48,168.085 48,182.94 v 4.56 c 0,54.72 21.193,106.387 59.675,145.483 38.437,39.05 89.672,61.064 144.267,61.987 1.152,0.02 2.293,0.029 3.443,0.029 53.444,-0.002 104.244,-21.065 143.371,-59.537 C 439.584,295.319 463,239.731 463,182.94 463,168.085 450.915,156 436.06,156 Z M 255.5,107 c 6.287,0 12.212,2.352 16.771,6.64 l 30.548,48.004 c 0.506,0.795 0.902,1.63 1.211,2.483 0.071,0.855 0.284,1.668 0.618,2.417 0.552,3.778 -0.672,7.697 -3.554,10.579 -4.147,4.147 -10.501,4.847 -15.451,1.696 L 237.64,148.271 c -2.897,-3.08 -4.885,-6.792 -5.886,-10.81 l -0.744,-6.327 c 0.093,-6.407 2.626,-12.418 7.167,-16.959 C 242.803,109.548 248.956,107 255.5,107 Z m 19.257,82.671 -8.503,61.117 c -0.731,5.251 -5.281,9.212 -10.583,9.212 -5.417,0 -9.978,-4.057 -10.611,-9.436 l -10.147,-86.249 z m 113.482,135.096 c -37.077,36.456 -85.398,56.072 -136.043,55.206 -50.64,-0.856 -98.168,-21.281 -133.831,-57.511 C 82.663,286.188 63,238.258 63,187.5 v -4.56 C 63,176.357 68.356,171 74.94,171 h 145.655 l 9.567,81.316 c 1.521,12.932 12.487,22.684 25.508,22.684 12.746,0 23.683,-9.52 25.439,-22.145 l 7.967,-57.263 c 1.085,0.131 2.174,0.21 3.262,0.21 7.059,0 14.045,-2.757 19.391,-8.103 4.657,-4.657 7.333,-10.573 7.935,-16.7 H 436.06 c 6.583,0 11.94,5.356 11.94,11.953 0,52.783 -21.782,104.473 -59.761,141.815 z"
         inkscape:connector-curvature="0" />
      <path
         id="path4756"
         d="m 255.5,139 c 1.97,0 3.91,-0.8 5.3,-2.2 1.4,-1.39 2.2,-3.33 2.2,-5.3 0,-1.97 -0.8,-3.91 -2.2,-5.3 -1.39,-1.4 -3.33,-2.2 -5.3,-2.2 -1.97,0 -3.91,0.8 -5.3,2.2 -1.4,1.39 -2.2,3.33 -2.2,5.3 0,1.97 0.8,3.91 2.2,5.3 1.39,1.4 3.33,2.2 5.3,2.2 z"
         inkscape:connector-curvature="0" />
      <path
         id="path4758"
         d="m 71.5,115 h 96 c 4.142,0 7.5,-3.358 7.5,-7.5 0,-4.142 -3.358,-7.5 -7.5,-7.5 h -96 c -4.142,0 -7.5,3.358 -7.5,7.5 0,4.142 3.358,7.5 7.5,7.5 z"
         inkscape:connector-curvature="0" />
      <path
         id="path4760"
         d="m 71.5,139 h 96 c 4.142,0 7.5,-3.358 7.5,-7.5 0,-4.142 -3.358,-7.5 -7.5,-7.5 h -96 c -4.142,0 -7.5,3.358 -7.5,7.5 0,4.142 3.358,7.5 7.5,7.5 z"
         inkscape:connector-curvature="0" />
    </g>
    <g
       id="g4764" />
    <g
       id="g4766" />
    <g
       id="g4768" />
    <g
       id="g4770" />
    <g
       id="g4772" />
    <g
       id="g4774" />
    <g
       id="g4776" />
    <g
       id="g4778" />
    <g
       id="g4780" />
    <g
       id="g4782" />
    <g
       id="g4784" />
    <g
       id="g4786" />
    <g
       id="g4788" />
    <g
       id="g4790" />
    <g
       id="g4792" />
  </g>
  <g
     id="g5310"
     transform="matrix(0.1902057,0,0,0.1902057,472.72652,341.32158)">
    <g
       id="g5253">
      <path
         id="path5249"
         d="m 466.626,362.627 c 0.255,-0.255 0.48,-0.528 0.69,-0.808 13.832,-14.025 24.953,-30.726 32.513,-49.247 0.189,-0.37 0.344,-0.752 0.468,-1.142 4.067,-10.203 7.053,-20.948 8.822,-32.094 0.038,-0.18 0.065,-0.36 0.09,-0.542 1.177,-7.595 1.791,-15.374 1.791,-23.294 0,-4.421 -0.202,-8.796 -0.575,-13.122 0.969,-2.335 0.703,-5.055 -0.79,-7.179 -4.927,-36.626 -22.989,-69.142 -49.279,-92.642 l 9.851,-19.702 c 1.853,-3.705 0.351,-8.21 -3.354,-10.062 -3.706,-1.853 -8.21,-0.351 -10.062,3.354 l -8.383,16.766 c -1.047,-0.761 -2.103,-1.51 -3.17,-2.245 -0.478,-0.42 -0.993,-0.773 -1.538,-1.052 C 419.605,113.446 390.636,104 359.5,104 h -23.997 c -0.002,0 -0.003,0 -0.005,0 h -39.995 c -0.002,0 -0.003,0 -0.005,0 h -79.995 c -0.002,0 -0.003,0 -0.005,0 h -39.995 c -0.002,0 -0.003,0 -0.005,0 H 151.5 c -28.535,0 -55.249,7.934 -78.062,21.706 -0.583,0.264 -1.141,0.599 -1.654,1.019 -3.143,1.952 -6.208,4.017 -9.193,6.187 l -8.383,-16.766 c -1.852,-3.705 -6.356,-5.207 -10.062,-3.354 -3.705,1.853 -5.207,6.357 -3.354,10.062 l 9.851,19.702 c -0.401,0.358 -0.803,0.713 -1.2,1.076 -0.346,0.244 -0.679,0.513 -0.988,0.823 -0.19,0.19 -0.366,0.388 -0.532,0.593 -6.745,6.329 -12.912,13.266 -18.413,20.725 -0.469,0.493 -0.861,1.031 -1.171,1.604 -5.645,7.867 -10.554,16.294 -14.63,25.18 -0.213,0.377 -0.389,0.768 -0.531,1.169 -4.381,9.771 -7.757,20.088 -9.993,30.817 -0.061,0.234 -0.11,0.47 -0.148,0.708 C 1.047,235.028 0,245.144 0,255.5 c 0,2.185 0.057,4.356 0.149,6.518 -0.249,1.243 -0.178,2.535 0.206,3.75 1.297,19.274 6.212,37.57 14.074,54.216 0.171,0.486 0.392,0.957 0.666,1.406 8.699,17.936 20.838,33.904 35.548,47.053 l -9.851,19.702 c -1.853,3.705 -0.351,8.21 3.354,10.062 1.077,0.538 2.221,0.793 3.348,0.793 2.751,0 5.4,-1.52 6.714,-4.148 l 8.383,-16.766 c 7.218,5.249 14.91,9.883 23.007,13.811 0.457,0.28 0.936,0.505 1.431,0.678 16.642,7.859 34.933,12.772 54.202,14.068 0.737,0.233 1.502,0.355 2.268,0.355 0.497,0 0.993,-0.051 1.481,-0.149 2.163,0.092 4.334,0.149 6.519,0.149 h 208 c 19.828,0 38.776,-3.835 56.148,-10.792 0.225,-0.08 0.447,-0.171 0.665,-0.272 11.46,-4.653 22.225,-10.669 32.096,-17.848 l 8.383,16.766 c 1.314,2.628 3.962,4.148 6.714,4.148 1.127,0 2.271,-0.255 3.348,-0.793 3.705,-1.853 5.207,-6.357 3.354,-10.062 l -9.851,-19.702 c 1.862,-1.665 3.683,-3.373 5.461,-5.126 0.281,-0.21 0.554,-0.435 0.809,-0.69 z m -51.763,17.629 -94.569,-94.569 c 2.071,-4.427 3.694,-9.099 4.827,-13.96 l 102.201,102.201 c -4.028,2.315 -8.188,4.426 -12.459,6.328 z m -30.528,9.473 -81.075,-81.075 c 3.3,-2.968 6.317,-6.241 9.019,-9.769 l 87.151,87.151 c -4.92,1.509 -9.957,2.745 -15.095,3.693 z M 306.606,392 239.863,325.257 c 5.037,1.128 10.265,1.743 15.637,1.743 1.588,0 3.158,-0.071 4.72,-0.173 L 325.394,392 Z m -40,0 L 44.924,170.318 c 2.776,-3.467 5.718,-6.795 8.813,-9.974 L 285.394,392 Z m -40,0 L 29.312,194.705 c 2.061,-4.126 4.323,-8.134 6.777,-12.01 L 245.394,392 Z m -40,0 L 18.662,224.055 c 1.169,-4.938 2.608,-9.773 4.299,-14.489 L 205.394,392 Z M 75.538,142.144 184.173,250.78 c -0.103,1.562 -0.173,3.133 -0.173,4.72 0,5.372 0.615,10.6 1.743,15.637 L 64.774,150.168 c 3.45,-2.845 7.043,-5.522 10.764,-8.024 z m 26.234,-13.765 91.673,91.673 c -2.346,4.092 -4.299,8.434 -5.808,12.979 L 88.855,134.249 c 4.185,-2.171 8.495,-4.134 12.917,-5.87 z m 31.8,-8.201 78.543,78.542 c -3.528,2.702 -6.801,5.719 -9.769,9.019 l -84.53,-84.53 c 5.142,-1.31 10.401,-2.325 15.756,-3.031 z m 38.822,-1.178 66.88,66.88 c -4.861,1.133 -9.534,2.756 -13.96,4.827 L 153.606,119 Z m 40,0 70.443,70.443 c -7.496,-3.114 -15.63,-4.986 -24.149,-5.362 L 193.606,119 Z M 255.5,312 c -31.154,0 -56.5,-25.346 -56.5,-56.5 0,-31.154 25.346,-56.5 56.5,-56.5 31.154,0 56.499,25.345 56.5,56.498 0,0.001 0,0.002 0,0.003 C 311.999,286.655 286.654,312 255.5,312 Z m 71.419,-59.687 c -0.376,-8.519 -2.248,-16.653 -5.362,-24.149 l 128.964,128.964 c -3.314,2.971 -6.773,5.781 -10.366,8.421 z M 233.606,119 h 18.787 l 217.156,217.156 c -2.64,3.593 -5.451,7.052 -8.422,10.365 z m 58.788,0 191.863,191.863 c -1.903,4.271 -4.013,8.431 -6.329,12.459 L 273.606,119 Z m 40,0 161.335,161.335 c -0.948,5.137 -2.184,10.175 -3.692,15.095 L 313.606,119 Z m 103.29,23.29 37.026,37.026 c 7.42,10.991 13.28,23.116 17.267,36.055 L 399.63,125.023 c 12.938,3.987 25.063,9.847 36.054,17.267 z m -62.487,-22.605 c 0.211,0.281 0.436,0.555 0.692,0.81 l 121.438,121.438 c 0.442,4.464 0.673,8.989 0.673,13.567 0,1.931 -0.051,3.851 -0.13,5.763 L 353.606,119 h 5.894 c 4.623,0 9.191,0.234 13.697,0.685 z M 93.785,379.179 27.821,313.215 c -4.213,-8.991 -7.472,-18.513 -9.649,-28.436 l 104.05,104.05 c -9.924,-2.178 -19.445,-5.437 -28.437,-9.65 z m 52.72,12.72 L 15.101,260.495 C 15.041,258.836 15,257.173 15,255.5 c 0,-4.469 0.223,-8.888 0.645,-13.249 L 165.394,392 H 151.5 c -1.673,0 -3.336,-0.041 -4.995,-0.101 z M 346.606,392 277.969,323.363 c 4.545,-1.509 8.887,-3.462 12.979,-5.808 l 74.315,74.315 c -1.912,0.08 -3.832,0.13 -5.763,0.13 z"
         inkscape:connector-curvature="0" />
      <path
         id="path5251"
         d="m 268.251,217.602 c -8.481,0 -15.927,4.517 -20.059,11.271 -3.502,-2.075 -7.583,-3.271 -11.941,-3.271 -12.958,0 -23.5,10.542 -23.5,23.5 0,12.958 10.542,23.5 23.5,23.5 0.172,0 0.342,-0.009 0.513,-0.013 -0.004,0.171 -0.013,0.341 -0.013,0.513 0,12.958 10.542,23.5 23.5,23.5 12.958,0 23.5,-10.542 23.5,-23.5 0,-4.357 -1.196,-8.439 -3.271,-11.941 6.754,-4.133 11.271,-11.578 11.271,-20.059 0,-12.958 -10.542,-23.5 -23.5,-23.5 z m 0,15 c 4.687,0 8.5,3.813 8.5,8.5 0,4.687 -3.813,8.5 -8.5,8.5 -4.687,0 -8.5,-3.813 -8.5,-8.5 0,-4.687 3.813,-8.5 8.5,-8.5 z m -40.5,16.5 c 0,-4.687 3.813,-8.5 8.5,-8.5 4.687,0 8.5,3.813 8.5,8.5 0,4.687 -3.813,8.5 -8.5,8.5 -4.687,0 -8.5,-3.813 -8.5,-8.5 z m 32.5,32.5 c -4.687,0 -8.5,-3.813 -8.5,-8.5 0,-4.687 3.813,-8.5 8.5,-8.5 4.687,0 8.5,3.813 8.5,8.5 0,4.687 -3.813,8.5 -8.5,8.5 z"
         inkscape:connector-curvature="0" />
    </g>
    <g
       id="g5255" />
    <g
       id="g5257" />
    <g
       id="g5259" />
    <g
       id="g5261" />
    <g
       id="g5263" />
    <g
       id="g5265" />
    <g
       id="g5267" />
    <g
       id="g5269" />
    <g
       id="g5271" />
    <g
       id="g5273" />
    <g
       id="g5275" />
    <g
       id="g5277" />
    <g
       id="g5279" />
    <g
       id="g5281" />
    <g
       id="g5283" />
  </g>
  <rect
     style="fill:#867441;fill-opacity:1;stroke:#000000;stroke-width:1.79275453;stroke-linecap:butt;stroke-linejoin:round;stroke-miterlimit:4;stroke-dasharray:none;stroke-dashoffset:0;stroke-opacity:1"
     id="rect5511"
     width="237.58461"
     height="43.26152"
     x="400.81549"
     y="100.89545"
     inkscape:label="KitchenWorkSurface2" />
  <g
     id="g5509"
     transform="matrix(0.13904572,0,0,0.13904572,477.54339,86.929157)"
     inkscape:label="KitchenSink">
    <g
       id="g5441">
      <path
         id="path5415"
         d="M 487.5,136 H 23.5 C 10.542,136 0,146.542 0,159.5 v 192 C 0,364.458 10.542,375 23.5,375 h 464 c 12.958,0 23.5,-10.542 23.5,-23.5 v -192 C 511,146.542 500.458,136 487.5,136 Z m 8.5,215.5 c 0,4.687 -3.813,8.5 -8.5,8.5 h -464 c -4.687,0 -8.5,-3.813 -8.5,-8.5 v -192 c 0,-4.687 3.813,-8.5 8.5,-8.5 h 464 c 4.687,0 8.5,3.813 8.5,8.5 z"
         inkscape:connector-curvature="0" />
      <path
         id="path5417"
         d="m 287.5,200 h -48 c -8.547,0 -15.5,6.953 -15.5,15.5 v 112 c 0,8.547 6.953,15.5 15.5,15.5 h 48 c 8.547,0 15.5,-6.953 15.5,-15.5 v -112 c 0,-8.547 -6.953,-15.5 -15.5,-15.5 z m 0.5,127.5 c 0,0.276 -0.224,0.5 -0.5,0.5 h -48 c -0.276,0 -0.5,-0.224 -0.5,-0.5 v -112 c 0,-0.276 0.224,-0.5 0.5,-0.5 h 48 c 0.276,0 0.5,0.224 0.5,0.5 z"
         inkscape:connector-curvature="0" />
      <path
         id="path5419"
         d="M 210.197,178.197 188.394,200 H 47.5 C 38.953,200 32,206.953 32,215.5 v 112 c 0,8.547 6.953,15.5 15.5,15.5 h 144 c 8.547,0 15.5,-6.953 15.5,-15.5 v -112 c 0,-3.61 -1.251,-6.928 -3.328,-9.565 l 17.131,-17.131 c 2.929,-2.929 2.929,-7.678 0,-10.606 -2.928,-2.93 -7.678,-2.93 -10.606,-0.001 z M 192,327.5 c 0,0.276 -0.224,0.5 -0.5,0.5 h -144 c -0.276,0 -0.5,-0.224 -0.5,-0.5 v -112 c 0,-0.276 0.224,-0.5 0.5,-0.5 h 125.894 l -35.197,35.197 c -2.929,2.929 -2.929,7.678 0,10.606 1.464,1.464 3.384,2.197 5.303,2.197 1.919,0 3.839,-0.732 5.303,-2.197 L 192,217.606 Z"
         inkscape:connector-curvature="0" />
      <path
         id="path5421"
         d="m 119.5,256 c -8.547,0 -15.5,6.953 -15.5,15.5 0,8.547 6.953,15.5 15.5,15.5 8.547,0 15.5,-6.953 15.5,-15.5 0,-8.547 -6.953,-15.5 -15.5,-15.5 z m 0,16 c -0.276,0 -0.5,-0.224 -0.5,-0.5 0,-0.276 0.224,-0.5 0.5,-0.5 0.276,0 0.5,0.224 0.5,0.5 0,0.276 -0.224,0.5 -0.5,0.5 z"
         inkscape:connector-curvature="0" />
      <path
         id="path5423"
         d="m 263.5,256 c -8.547,0 -15.5,6.953 -15.5,15.5 0,8.547 6.953,15.5 15.5,15.5 8.547,0 15.5,-6.953 15.5,-15.5 0,-8.547 -6.953,-15.5 -15.5,-15.5 z m 0,16 c -0.276,0 -0.5,-0.224 -0.5,-0.5 0,-0.276 0.224,-0.5 0.5,-0.5 0.276,0 0.5,0.224 0.5,0.5 0,0.276 -0.224,0.5 -0.5,0.5 z"
         inkscape:connector-curvature="0" />
      <path
         id="path5425"
         d="m 463.5,200 h -128 c -4.142,0 -7.5,3.358 -7.5,7.5 0,4.142 3.358,7.5 7.5,7.5 h 128 c 4.142,0 7.5,-3.358 7.5,-7.5 0,-4.142 -3.358,-7.5 -7.5,-7.5 z"
         inkscape:connector-curvature="0" />
      <path
         id="path5427"
         d="m 463.5,224 h -128 c -4.142,0 -7.5,3.358 -7.5,7.5 0,4.142 3.358,7.5 7.5,7.5 h 128 c 4.142,0 7.5,-3.358 7.5,-7.5 0,-4.142 -3.358,-7.5 -7.5,-7.5 z"
         inkscape:connector-curvature="0" />
      <path
         id="path5429"
         d="m 463.5,248 h -128 c -4.142,0 -7.5,3.358 -7.5,7.5 0,4.142 3.358,7.5 7.5,7.5 h 128 c 4.142,0 7.5,-3.358 7.5,-7.5 0,-4.142 -3.358,-7.5 -7.5,-7.5 z"
         inkscape:connector-curvature="0" />
      <path
         id="path5431"
         d="m 463.5,272 h -128 c -4.142,0 -7.5,3.358 -7.5,7.5 0,4.142 3.358,7.5 7.5,7.5 h 128 c 4.142,0 7.5,-3.358 7.5,-7.5 0,-4.142 -3.358,-7.5 -7.5,-7.5 z"
         inkscape:connector-curvature="0" />
      <path
         id="path5433"
         d="m 463.5,296 h -128 c -4.142,0 -7.5,3.358 -7.5,7.5 0,4.142 3.358,7.5 7.5,7.5 h 128 c 4.142,0 7.5,-3.358 7.5,-7.5 0,-4.142 -3.358,-7.5 -7.5,-7.5 z"
         inkscape:connector-curvature="0" />
      <path
         id="path5435"
         d="m 463.5,320 h -128 c -4.142,0 -7.5,3.358 -7.5,7.5 0,4.142 3.358,7.5 7.5,7.5 h 128 c 4.142,0 7.5,-3.358 7.5,-7.5 0,-4.142 -3.358,-7.5 -7.5,-7.5 z"
         inkscape:connector-curvature="0" />
      <path
         id="path5437"
         d="m 47.5,183 c 1.97,0 3.91,-0.8 5.3,-2.2 1.4,-1.39 2.2,-3.33 2.2,-5.3 0,-1.97 -0.8,-3.91 -2.2,-5.3 -1.39,-1.4 -3.33,-2.2 -5.3,-2.2 -1.97,0 -3.91,0.8 -5.3,2.2 -1.4,1.39 -2.2,3.33 -2.2,5.3 0,1.97 0.8,3.91 2.2,5.3 1.39,1.4 3.33,2.2 5.3,2.2 z"
         inkscape:connector-curvature="0" />
      <path
         id="path5439"
         d="m 71.5,183 c 1.97,0 3.91,-0.8 5.3,-2.2 1.4,-1.39 2.2,-3.33 2.2,-5.3 0,-1.97 -0.8,-3.91 -2.2,-5.3 -1.39,-1.4 -3.33,-2.2 -5.3,-2.2 -1.97,0 -3.91,0.8 -5.3,2.2 -1.4,1.39 -2.2,3.32 -2.2,5.3 0,1.97 0.8,3.91 2.2,5.3 1.39,1.4 3.33,2.2 5.3,2.2 z"
         inkscape:connector-curvature="0" />
    </g>
    <g
       id="g5443" />
    <g
       id="g5445" />
    <g
       id="g5447" />
    <g
       id="g5449" />
    <g
       id="g5451" />
    <g
       id="g5453" />
    <g
       id="g5455" />
    <g
       id="g5457" />
    <g
       id="g5459" />
    <g
       id="g5461" />
    <g
       id="g5463" />
    <g
       id="g5465" />
    <g
       id="g5467" />
    <g
       id="g5469" />
    <g
       id="g5471" />
  </g>
  <rect
     y="100.79216"
     x="596.71222"
     height="192.53059"
     width="41.791183"
     id="rect5513"
     style="fill:#867441;fill-opacity:1;stroke:#000000;stroke-width:1.58618188;stroke-linecap:butt;stroke-linejoin:round;stroke-miterlimit:4;stroke-dasharray:none;stroke-dashoffset:0;stroke-opacity:1"
     inkscape:label="KitchenWorkSurface" />
  <g
     id="g5597"
     transform="matrix(0,0.07159027,-0.07159027,0,635.451,182.22994)"
     inkscape:label="Hob">
    <g
       id="g5533">
      <path
         id="path5515"
         d="M 435.5,0 H 75.5 C 55.925,0 40,15.925 40,35.5 v 440 c 0,19.575 15.925,35.5 35.5,35.5 h 360 c 19.575,0 35.5,-15.925 35.5,-35.5 V 35.5 C 471,15.925 455.075,0 435.5,0 Z m -76,392 c -4.142,0 -7.5,3.358 -7.5,7.5 V 416 h -89 v -89 h 16.5 c 4.142,0 7.5,-3.358 7.5,-7.5 0,-4.142 -3.358,-7.5 -7.5,-7.5 H 263 v -89 h 89 v 16.5 c 0,4.142 3.358,7.5 7.5,7.5 4.142,0 7.5,-3.358 7.5,-7.5 V 223 h 89 v 89 h -16.5 c -4.142,0 -7.5,3.358 -7.5,7.5 0,4.142 3.358,7.5 7.5,7.5 H 456 v 89 h -89 v -16.5 c 0,-4.142 -3.358,-7.5 -7.5,-7.5 z M 159,416 v -40.5 c 0,-4.142 -3.358,-7.5 -7.5,-7.5 -4.142,0 -7.5,3.358 -7.5,7.5 V 416 H 55 v -89 h 40.5 c 4.142,0 7.5,-3.358 7.5,-7.5 0,-4.142 -3.358,-7.5 -7.5,-7.5 H 55 v -89 h 89 v 40.5 c 0,4.142 3.358,7.5 7.5,7.5 4.142,0 7.5,-3.358 7.5,-7.5 V 223 h 89 v 89 h -40.5 c -4.142,0 -7.5,3.358 -7.5,7.5 0,4.142 3.358,7.5 7.5,7.5 H 248 v 89 z M 456,35.5 V 104 h -40.5 c -4.142,0 -7.5,3.358 -7.5,7.5 0,4.142 3.358,7.5 7.5,7.5 H 456 v 89 h -89 v -40.5 c 0,-4.142 -3.358,-7.5 -7.5,-7.5 -4.142,0 -7.5,3.358 -7.5,7.5 V 208 h -89 v -89 h 40.5 c 4.142,0 7.5,-3.358 7.5,-7.5 0,-4.142 -3.358,-7.5 -7.5,-7.5 H 263 V 15 h 89 v 40.5 c 0,4.142 3.358,7.5 7.5,7.5 4.142,0 7.5,-3.358 7.5,-7.5 V 15 h 68.5 c 11.304,0 20.5,9.196 20.5,20.5 z M 75.5,15 H 144 v 16.5 c 0,4.142 3.358,7.5 7.5,7.5 4.142,0 7.5,-3.358 7.5,-7.5 V 15 h 89 v 89 h -16.5 c -4.142,0 -7.5,3.358 -7.5,7.5 0,4.142 3.358,7.5 7.5,7.5 H 248 v 89 h -89 v -16.5 c 0,-4.142 -3.358,-7.5 -7.5,-7.5 -4.142,0 -7.5,3.358 -7.5,7.5 V 208 H 55 v -89 h 16.5 c 4.142,0 7.5,-3.358 7.5,-7.5 0,-4.142 -3.358,-7.5 -7.5,-7.5 H 55 V 35.5 C 55,24.196 64.196,15 75.5,15 Z m 360,481 H 75.5 C 64.196,496 55,486.804 55,475.5 V 431 h 401 v 44.5 c 0,11.304 -9.196,20.5 -20.5,20.5 z"
         inkscape:connector-curvature="0" />
      <path
         id="path5517"
         d="M 151.5,175 C 186.514,175 215,146.514 215,111.5 215,76.486 186.514,48 151.5,48 116.486,48 88,76.486 88,111.5 c 0,35.014 28.486,63.5 63.5,63.5 z m 0,-112 C 178.243,63 200,84.757 200,111.5 200,138.243 178.243,160 151.5,160 124.757,160 103,138.243 103,111.5 103,84.757 124.757,63 151.5,63 Z"
         inkscape:connector-curvature="0" />
      <path
         id="path5519"
         d="m 423,319.5 c 0,-35.014 -28.486,-63.5 -63.5,-63.5 -35.014,0 -63.5,28.486 -63.5,63.5 0,35.014 28.486,63.5 63.5,63.5 35.014,0 63.5,-28.486 63.5,-63.5 z M 359.5,368 c -26.743,0 -48.5,-21.757 -48.5,-48.5 0,-26.743 21.757,-48.5 48.5,-48.5 26.743,0 48.5,21.757 48.5,48.5 0,26.743 -21.757,48.5 -48.5,48.5 z"
         inkscape:connector-curvature="0" />
      <path
         id="path5521"
         d="m 151.5,280 c -21.78,0 -39.5,17.72 -39.5,39.5 0,21.78 17.72,39.5 39.5,39.5 21.78,0 39.5,-17.72 39.5,-39.5 0,-21.78 -17.72,-39.5 -39.5,-39.5 z m 0,64 c -13.509,0 -24.5,-10.991 -24.5,-24.5 0,-13.509 10.991,-24.5 24.5,-24.5 13.509,0 24.5,10.991 24.5,24.5 0,13.509 -10.991,24.5 -24.5,24.5 z"
         inkscape:connector-curvature="0" />
      <path
         id="path5523"
         d="M 359.5,72 C 337.72,72 320,89.72 320,111.5 320,133.28 337.72,151 359.5,151 381.28,151 399,133.28 399,111.5 399,89.72 381.28,72 359.5,72 Z m 0,64 C 345.991,136 335,125.009 335,111.5 335,97.991 345.991,87 359.5,87 c 13.509,0 24.5,10.991 24.5,24.5 0,13.509 -10.991,24.5 -24.5,24.5 z"
         inkscape:connector-curvature="0" />
      <path
         id="path5525"
         d="m 223.5,440 c -12.958,0 -23.5,10.542 -23.5,23.5 0,12.958 10.542,23.5 23.5,23.5 12.958,0 23.5,-10.542 23.5,-23.5 0,-12.958 -10.542,-23.5 -23.5,-23.5 z m 0,32 c -4.687,0 -8.5,-3.813 -8.5,-8.5 0,-4.687 3.813,-8.5 8.5,-8.5 4.687,0 8.5,3.813 8.5,8.5 0,4.687 -3.813,8.5 -8.5,8.5 z"
         inkscape:connector-curvature="0" />
      <path
         id="path5527"
         d="m 159.5,440 c -12.958,0 -23.5,10.542 -23.5,23.5 0,12.958 10.542,23.5 23.5,23.5 12.958,0 23.5,-10.542 23.5,-23.5 0,-12.958 -10.542,-23.5 -23.5,-23.5 z m 0,32 c -4.687,0 -8.5,-3.813 -8.5,-8.5 0,-4.687 3.813,-8.5 8.5,-8.5 4.687,0 8.5,3.813 8.5,8.5 0,4.687 -3.813,8.5 -8.5,8.5 z"
         inkscape:connector-curvature="0" />
      <path
         id="path5529"
         d="m 351.5,440 c -12.958,0 -23.5,10.542 -23.5,23.5 0,12.958 10.542,23.5 23.5,23.5 12.958,0 23.5,-10.542 23.5,-23.5 0,-12.958 -10.542,-23.5 -23.5,-23.5 z m 0,32 c -4.687,0 -8.5,-3.813 -8.5,-8.5 0,-4.687 3.813,-8.5 8.5,-8.5 4.687,0 8.5,3.813 8.5,8.5 0,4.687 -3.813,8.5 -8.5,8.5 z"
         inkscape:connector-curvature="0" />
      <path
         id="path5531"
         d="m 287.5,440 c -12.958,0 -23.5,10.542 -23.5,23.5 0,12.958 10.542,23.5 23.5,23.5 12.958,0 23.5,-10.542 23.5,-23.5 0,-12.958 -10.542,-23.5 -23.5,-23.5 z m 0,32 c -4.687,0 -8.5,-3.813 -8.5,-8.5 0,-4.687 3.813,-8.5 8.5,-8.5 4.687,0 8.5,3.813 8.5,8.5 0,4.687 -3.813,8.5 -8.5,8.5 z"
         inkscape:connector-curvature="0" />
    </g>
    <g
       id="g5535" />
    <g
       id="g5537" />
    <g
       id="g5539" />
    <g
       id="g5541" />
    <g
       id="g5543" />
    <g
       id="g5545" />
    <g
       id="g5547" />
    <g
       id="g5549" />
    <g
       id="g5551" />
    <g
       id="g5553" />
    <g
       id="g5555" />
    <g
       id="g5557" />
    <g
       id="g5559" />
    <g
       id="g5561" />
    <g
       id="g5563" />
  </g>
  <rect
     y="-400.55298"
     x="-216.60605"
     height="6.9848351"
     width="64.355209"
     id="rect5659"
     style="fill:#80610f;fill-opacity:1;stroke:#000000;stroke-width:2.99999976;stroke-linecap:butt;stroke-linejoin:round;stroke-miterlimit:4;stroke-dasharray:none;stroke-dashoffset:0;stroke-opacity:1"
     transform="matrix(0,-1,-1,0,0,0)"
     inkscape:label="KitchenDoor" />
  <g
     id="g5871"
     inkscape:label="tv"
     transform="translate(-175.9695,6.3195554)">
    <path
       inkscape:connector-curvature="0"
       id="path5396"
       d="m 227.48763,212.21497 -3.60056,-1.82113 v -33.32395 -33.32396 l 3.79696,-1.89314 3.79696,-1.89315 v 37.05195 c 0,20.37857 -0.0884,37.04578 -0.1964,37.03823 -0.10801,-0.008 -1.81664,-0.83322 -3.79696,-1.83485 z"
       style="fill:#ececec;fill-opacity:1;stroke:none;stroke-width:2.61899996;stroke-miterlimit:4;stroke-dasharray:none;stroke-opacity:1" />
    <path
       inkscape:connector-curvature="0"
       id="path5398"
       d="m 218.12616,177.01044 v -21.07968 h 0.91651 0.91651 v 21.07968 21.07968 h -0.91651 -0.91651 z"
       style="fill:#ececec;fill-opacity:1;stroke:none;stroke-width:0.68580967;stroke-miterlimit:4;stroke-dasharray:none;stroke-opacity:1" />
    <path
       inkscape:connector-curvature="0"
       id="path5400"
       d="m 206.60435,230.00795 c 0,-4.38633 0.0101,-4.46814 0.48022,-3.88758 0.36657,0.4527 0.83134,0.62216 1.96394,0.71609 l 1.48373,0.12304 v 2.28372 c 0,3.39587 -0.2347,3.2814 6.72804,3.2814 7.17708,0 6.62679,0.47092 6.62679,-5.67088 0,-4.3591 -0.0109,-4.44544 -0.64275,-5.07725 -0.51256,-0.51257 -0.91033,-0.64275 -1.96394,-0.64275 h -1.3212 v -2.31109 c 0,-2.07717 -0.0613,-2.36871 -0.60606,-2.88045 -0.58202,-0.54678 -0.82139,-0.56936 -6.03467,-0.56936 -5.41456,0 -5.43027,0.002 -6.07135,0.64274 l -0.64275,0.64275 v -48.43208 -48.43208 h 9.55787 9.55786 v 9.42455 9.42455 l -2.62772,1.31865 c -1.9251,0.96606 -2.6953,1.4964 -2.88045,1.98338 -0.13901,0.3656 -0.25273,2.83703 -0.25273,5.49208 v 4.82735 h -1.33519 c -1.72109,0 -2.95811,0.60002 -3.70148,1.79543 l -0.59331,0.95409 v 22.17341 c 0,21.98653 0.005,22.1795 0.5399,22.89651 0.96522,1.29277 1.84085,1.76176 3.5154,1.88288 l 1.57468,0.1139 v 4.80061 c 0,2.88932 0.11296,5.04852 0.28372,5.42331 0.18954,0.416 1.14571,1.04682 2.88045,1.90036 l 2.59673,1.27765 v 9.50284 9.50285 h -9.55786 -9.55787 z m 8.91785,-82.15402 c 0.73605,-0.59602 0.79506,-1.90938 0.11936,-2.65602 -0.42043,-0.46457 -0.8037,-0.5271 -3.23081,-0.5271 -3.21505,0 -3.71153,0.24864 -3.71153,1.85875 0,1.50351 0.6211,1.80728 3.69529,1.80728 2.06986,0 2.64004,-0.088 3.12769,-0.48291 z m 3.91326,-5.80172 c 0.49574,-0.49574 0.52372,-0.87286 0.52372,-7.06 0,-8.31418 0.52762,-7.60412 -5.65035,-7.60412 -4.0446,0 -4.56722,0.0511 -5.12234,0.50058 l -0.6182,0.50059 v 6.59275 6.59276 l 0.6182,0.50058 c 0.5557,0.44998 1.07851,0.50058 5.17172,0.50058 4.20438,0 4.59369,-0.0402 5.07725,-0.52372 z"
       style="fill:#565656;fill-opacity:1;stroke:none;stroke-width:0.68580967;stroke-miterlimit:4;stroke-dasharray:none;stroke-opacity:1" />
    <path
       inkscape:connector-curvature="0"
       id="path5402"
       d="m 212.36526,134.98201 v -3.92789 h 1.96394 1.96395 v 3.92789 3.92789 h -1.96395 -1.96394 z"
       style="fill:#565656;fill-opacity:1;stroke:none;stroke-width:0.68580967;stroke-miterlimit:4;stroke-dasharray:none;stroke-opacity:1" />
    <path
       inkscape:connector-curvature="0"
       id="path5404"
       d="m 210.53224,221.13374 v -1.83301 h 2.88045 2.88046 v 1.83301 1.83302 h -2.88046 -2.88045 z"
       style="fill:#565656;fill-opacity:1;stroke:none;stroke-width:0.68580967;stroke-miterlimit:4;stroke-dasharray:none;stroke-opacity:1" />
    <path
       inkscape:connector-curvature="0"
       id="path5406"
       d="m 214.19827,227.81116 v -0.91651 h 2.19049 c 1.81956,0 2.30733,-0.0919 2.88045,-0.54273 l 0.68997,-0.54272 v 1.45923 1.45923 h -2.88046 -2.88045 z"
       style="fill:#565656;fill-opacity:1;stroke:none;stroke-width:0.68580967;stroke-miterlimit:4;stroke-dasharray:none;stroke-opacity:1" />
  </g>
  <g
     style="stroke-width:0.18911324"
     inkscape:label="camera.hall"
     transform="matrix(-1.3330016,4.4105446,-5.8143192,-1.3619779,5715.0074,-2692.3813)"
     id="camera.hall">
    <path
       style="fill:#ececec;fill-opacity:1;stroke:#000000;stroke-width:0.19083194;stroke-miterlimit:4;stroke-dasharray:none;stroke-opacity:1"
       inkscape:connector-curvature="0"
       d="m 895.65469,714.11415 h -0.32455 c -0.0861,0 -0.1682,0.009 -0.249,0.0211 v -0.67968 c 0,-0.39354 -0.39028,-0.71221 -0.87253,-0.71221 h -6.26201 c -0.48161,0 -0.87317,0.31866 -0.87317,0.71221 v 3.03968 c 0,0.39388 0.39156,0.71352 0.87317,0.71352 h 6.26201 c 0.48225,0 0.87253,-0.31964 0.87253,-0.71352 v -0.98093 c 0.0808,0.0128 0.16292,0.0211 0.249,0.0211 h 0.35543 l 1.70036,1.07618 v -3.79464 z"
       id="path5028" />
  </g>
  <g
     id="g5207"
     transform="translate(2.1250004,3.5850572)">
    <g
       transform="matrix(-0.0981194,0,0,-0.0981194,295.29114,593.84587)"
       id="g4750">
      <g
         id="g4690">
        <path
           inkscape:connector-curvature="0"
           d="M 423.5,0 H 87.5 C 74.542,0 64,10.542 64,23.5 v 64 c 0,21.379 9.444,40.582 24.364,53.696 C 88.13,141.922 88,142.696 88,143.5 v 200 C 88,435.86 163.14,511 255.5,511 347.86,511 423,435.86 423,343.5 v -200 c 0,-0.804 -0.13,-1.578 -0.364,-2.304 C 437.556,128.082 447,108.879 447,87.5 v -64 C 447,10.542 436.458,0 423.5,0 Z M 408,343.5 C 408,427.589 339.589,496 255.5,496 171.411,496 103,427.589 103,343.5 V 151.154 c 9.759,5.003 20.8,7.846 32.5,7.846 h 240 c 11.7,0 22.741,-2.843 32.5,-7.846 z m 24,-256 c 0,31.154 -25.346,56.5 -56.5,56.5 h -240 C 104.346,144 79,118.654 79,87.5 v -64 C 79,18.813 82.813,15 87.5,15 h 336 c 4.687,0 8.5,3.813 8.5,8.5 z"
           id="path4680" />
        <path
           inkscape:connector-curvature="0"
           d="m 303.5,192 h -96 c -39.425,0 -71.5,32.075 -71.5,71.5 v 76.837 c 0,31.258 11.604,61.138 32.673,84.135 21.347,23.301 50.135,36.936 81.061,38.392 1.952,0.092 3.895,0.138 5.834,0.138 30.882,0 59.958,-11.607 82.409,-33.027 C 361.852,407.197 375,376.487 375,343.5 v -80 C 375,224.075 342.925,192 303.5,192 Z M 360,343.5 c 0,28.846 -11.499,55.703 -32.377,75.622 -20.865,19.906 -48.266,30.118 -77.184,28.759 -26.941,-1.269 -52.052,-13.18 -70.706,-33.541 C 161.204,394.116 151,367.834 151,340.337 V 263.5 c 0,-31.154 25.346,-56.5 56.5,-56.5 h 96 c 31.154,0 56.5,25.346 56.5,56.5 z"
           id="path4682" />
        <path
           inkscape:connector-curvature="0"
           d="m 255.5,232 c -26.191,0 -47.5,21.309 -47.5,47.5 0,26.191 21.309,47.5 47.5,47.5 26.191,0 47.5,-21.309 47.5,-47.5 0,-26.191 -21.309,-47.5 -47.5,-47.5 z m 0,80 c -17.92,0 -32.5,-14.58 -32.5,-32.5 0,-17.92 14.58,-32.5 32.5,-32.5 17.92,0 32.5,14.58 32.5,32.5 0,17.92 -14.58,32.5 -32.5,32.5 z"
           id="path4684" />
        <path
           inkscape:connector-curvature="0"
           d="M 223.5,56 C 210.542,56 200,66.542 200,79.5 200,92.458 210.542,103 223.5,103 236.458,103 247,92.458 247,79.5 247,66.542 236.458,56 223.5,56 Z m 0,32 c -4.687,0 -8.5,-3.813 -8.5,-8.5 0,-4.687 3.813,-8.5 8.5,-8.5 4.687,0 8.5,3.813 8.5,8.5 0,4.687 -3.813,8.5 -8.5,8.5 z"
           id="path4686" />
        <path
           inkscape:connector-curvature="0"
           d="M 287.5,48 C 270.131,48 256,62.131 256,79.5 256,96.869 270.131,111 287.5,111 304.869,111 319,96.869 319,79.5 319,62.131 304.869,48 287.5,48 Z m 0,48 C 278.402,96 271,88.598 271,79.5 271,70.402 278.402,63 287.5,63 c 9.098,0 16.5,7.402 16.5,16.5 0,9.098 -7.402,16.5 -16.5,16.5 z"
           id="path4688" />
      </g>
      <g
         id="g4692" />
      <g
         id="g4694" />
      <g
         id="g4696" />
      <g
         id="g4698" />
      <g
         id="g4700" />
      <g
         id="g4702" />
      <g
         id="g4704" />
      <g
         id="g4706" />
      <g
         id="g4708" />
      <g
         id="g4710" />
      <g
         id="g4712" />
      <g
         id="g4714" />
      <g
         id="g4716" />
      <g
         id="g4718" />
      <g
         id="g4720" />
    </g>
    <g
       transform="translate(-175.9695,25.859498)"
       inkscape:label="toilet"
       id="g5862">
      <path
         style="fill:#50c9e5;fill-opacity:1;stroke:none;stroke-width:2;stroke-linecap:butt;stroke-linejoin:round;stroke-miterlimit:4;stroke-dasharray:none;stroke-dashoffset:0;stroke-opacity:1"
         d="m 440.7216,547.58121 c -2.0347,-0.31076 -3.78545,-1.7622 -4.45231,-3.69114 -0.21009,-0.60772 -0.211,-0.63328 -0.211,-5.93377 0,-5.19896 0.005,-5.34135 0.2046,-6.09018 0.47424,-1.77726 1.30256,-3.29215 2.49302,-4.55941 2.06275,-2.19581 4.86272,-3.33896 7.85664,-3.20763 4.21006,0.18467 7.82594,2.96135 9.22259,7.08214 0.50272,1.48326 0.54396,2.02005 0.54436,7.08575 3.7e-4,5.08429 -0.007,5.16869 -0.58439,6.35518 -0.40497,0.83269 -1.56271,1.99746 -2.38203,2.39649 -1.25477,0.61111 -1.08825,0.59613 -6.89311,0.62025 -2.90242,0.0121 -5.51169,-0.0139 -5.79837,-0.0577 z m 6.99445,-2.5845 c 2.09897,-0.72853 3.44849,-2.94838 3.11177,-5.11861 -0.52315,-3.37174 -4.3314,-5.08036 -7.19627,-3.22871 -1.12218,0.7253 -1.88158,1.93422 -2.08297,3.31597 -0.1965,1.34823 0.233,2.69685 1.18708,3.72737 0.75143,0.81163 1.51398,1.25113 2.58075,1.48739 0.56049,0.12414 1.78272,0.0307 2.39964,-0.18341 z"
         id="path5867"
         inkscape:connector-curvature="0" />
      <path
         inkscape:connector-curvature="0"
         id="path5410"
         d="m 429.08287,565.95425 c -0.26831,-0.6992 -0.17316,-6.98708 0.1218,-8.0493 0.1528,-0.55028 0.68518,-1.4514 1.18306,-2.00249 1.72338,-1.90758 1.15529,-1.8414 15.80602,-1.8414 14.46121,0 13.85037,-0.0647 15.66616,1.6588 1.23157,1.16895 1.62945,2.7844 1.62945,6.61588 0,1.76237 -0.0715,3.39069 -0.15895,3.61851 -0.14267,0.3718 -1.89563,0.4142 -17.12377,0.4142 -15.22814,0 -16.9811,-0.0424 -17.12377,-0.4142 z m 15.74356,-3.15452 c 1.45386,-0.90684 1.77142,-3.42721 0.59023,-4.68453 -1.40633,-1.49697 -3.3635,-1.48782 -4.68907,0.0219 -2.43983,2.77882 0.94533,6.62961 4.09884,4.66262 z m 5.42636,-0.46793 c 1.55883,-0.65132 1.95129,-2.42493 0.82604,-3.73311 -0.5011,-0.58256 -0.84814,-0.72877 -1.72988,-0.72877 -2.57006,0 -3.31068,3.42883 -0.96135,4.45077 1.02915,0.44768 0.82327,0.44645 1.86519,0.0111 z"
         style="fill:#808080;fill-opacity:1;stroke:none;stroke-width:0.68580967;stroke-miterlimit:4;stroke-dasharray:none;stroke-opacity:1" />
      <path
         style="fill:#17839c;fill-opacity:1;stroke:none;stroke-width:2;stroke-linecap:butt;stroke-linejoin:round;stroke-miterlimit:4;stroke-dasharray:none;stroke-dashoffset:0;stroke-opacity:1"
         d="m 445.2557,543.57192 c -0.94064,-0.34882 -1.54737,-0.90441 -1.95397,-1.78928 -0.16104,-0.35046 -0.20546,-0.61726 -0.20546,-1.23407 0,-0.95126 0.19001,-1.43406 0.83632,-2.12502 1.17997,-1.26149 3.06849,-1.34136 4.33552,-0.18336 0.75261,0.68784 1.02817,1.30613 1.0288,2.30838 4.2e-4,0.65842 -0.0395,0.87235 -0.24465,1.30984 -0.51686,1.10243 -1.52923,1.76651 -2.76374,1.81292 -0.42029,0.0158 -0.82796,-0.0234 -1.03282,-0.0994 z"
         id="path5869"
         inkscape:connector-curvature="0" />
      <path
         style="fill:#f9fdfe;fill-opacity:1;stroke:none;stroke-width:2;stroke-linecap:butt;stroke-linejoin:round;stroke-miterlimit:4;stroke-dasharray:none;stroke-dashoffset:0;stroke-opacity:1"
         d="m 431.31577,542.66587 c 0.031,-10.22313 0.0349,-10.41896 0.22942,-11.30613 1.00434,-4.58161 3.90537,-8.37712 7.9386,-10.38634 3.91358,-1.94961 8.245,-2.12654 12.32109,-0.5033 1.85504,0.73874 3.48004,1.83331 4.99161,3.36226 1.84001,1.86117 3.1115,4.0552 3.78593,6.53286 0.51135,1.87852 0.51556,1.9825 0.5174,12.76239 0.002,9.43042 -0.007,9.93578 -0.16032,9.87147 -0.71939,-0.30095 -1.57585,-0.52625 -2.28423,-0.60091 -1.13608,-0.11973 -23.80563,-0.11728 -24.94467,0.003 -0.73239,0.0772 -1.49948,0.28043 -2.26128,0.59926 -0.1579,0.0661 -0.16369,-0.38228 -0.13355,-10.33424 z m 21.11113,6.34343 c 2.70541,-0.60629 4.81562,-2.7703 5.3802,-5.51737 0.2146,-1.04418 0.21514,-9.26267 7.4e-4,-10.7083 -0.70149,-4.72879 -4.14817,-8.66096 -8.6493,-9.86757 -4.02269,-1.07835 -8.31523,0.0962 -11.29716,3.09116 -1.35091,1.35681 -2.21621,2.76093 -2.82781,4.58867 -0.56821,1.69808 -0.60777,2.23826 -0.57571,7.86251 l 0.0285,5.00648 0.25311,0.74065 c 0.62954,1.84211 1.86795,3.3248 3.46317,4.14628 1.54922,0.79779 1.49639,0.79246 7.9287,0.80012 4.85864,0.006 5.72039,-0.0137 6.29553,-0.14263 z"
         id="path5871"
         inkscape:connector-curvature="0" />
      <path
         style="fill:#f9fdfe;fill-opacity:1;stroke:none;stroke-width:2;stroke-linecap:butt;stroke-linejoin:round;stroke-miterlimit:4;stroke-dasharray:none;stroke-dashoffset:0;stroke-opacity:1"
         d="m 429.18929,566.24777 -0.25976,-0.22355 0.002,-3.78058 0.002,-3.78059 0.25067,-0.74065 c 0.48034,-1.41919 1.49419,-2.59172 2.79806,-3.23598 1.29609,-0.64041 0.62664,-0.61342 14.51971,-0.58524 l 12.51677,0.0254 0.60178,0.21602 c 1.82473,0.65504 3.10097,1.99584 3.6718,3.85755 0.15338,0.50023 0.17032,0.92698 0.17032,4.28982 v 3.73433 l -0.25976,0.22352 -0.25976,0.22352 h -16.74688 -16.74689 z m 14.81611,-3.1115 c 0.81015,-0.25023 1.50469,-0.87471 1.86446,-1.67637 0.2083,-0.46416 0.25903,-0.71349 0.26275,-1.2914 0.004,-0.62357 -0.0336,-0.79384 -0.29096,-1.31659 -0.55472,-1.12679 -1.56886,-1.76947 -2.7979,-1.77309 -0.6049,-0.002 -0.78161,0.0387 -1.31539,0.30151 -1.54332,0.75977 -2.21247,2.54207 -1.51877,4.04532 0.40978,0.88801 1.06434,1.46811 1.97054,1.74639 0.62664,0.19243 1.11758,0.18281 1.82527,-0.0358 z m 6.26411,-0.83859 c 0.55948,-0.25325 0.90505,-0.59342 1.16807,-1.14977 0.74547,-1.57688 -0.50098,-3.40269 -2.22829,-3.26404 -0.93721,0.0752 -1.69913,0.60788 -2.04145,1.42716 -0.19151,0.45835 -0.17444,1.37909 0.034,1.83688 0.18998,0.41712 0.81082,1.01788 1.24889,1.2085 0.44073,0.19177 1.32869,0.16309 1.81873,-0.0587 z"
         id="path5873"
         inkscape:connector-curvature="0" />
      <path
         style="fill:#f9fdfe;fill-opacity:1;stroke:none;stroke-width:2;stroke-linecap:butt;stroke-linejoin:round;stroke-miterlimit:4;stroke-dasharray:none;stroke-dashoffset:0;stroke-opacity:1"
         d="m 448.96301,560.8702 c -0.35058,-0.19054 -0.50717,-0.61674 -0.3585,-0.97568 0.32092,-0.77475 1.48463,-0.54842 1.4769,0.28725 -0.003,0.35214 -0.12607,0.5573 -0.43073,0.71956 -0.25799,0.1374 -0.38843,0.1315 -0.68767,-0.0311 z"
         id="path5875"
         inkscape:connector-curvature="0" />
      <path
         style="fill:#f9fdfe;fill-opacity:1;stroke:none;stroke-width:2;stroke-linecap:butt;stroke-linejoin:round;stroke-miterlimit:4;stroke-dasharray:none;stroke-dashoffset:0;stroke-opacity:1"
         d="m 442.24613,561.5169 c -0.92954,-0.55717 -1.02019,-1.78581 -0.18583,-2.51839 0.76291,-0.66984 1.92924,-0.42999 2.37797,0.48902 0.69,1.41317 -0.84674,2.83582 -2.19214,2.02937 z"
         id="path5877"
         inkscape:connector-curvature="0" />
    </g>
  </g>
  <g
     id="g6037"
     inkscape:label="toilet_sink"
     transform="translate(-175.9695,6.3195554)">
    <path
       inkscape:connector-curvature="0"
       id="path5879"
       d="m 416.03825,486.805 c -0.12064,-0.0622 -0.2974,-0.23095 -0.39279,-0.37507 l -0.17343,-0.26205 -0.0178,-6.8279 -0.0178,-6.82791 0.14876,-0.0313 c 0.0818,-0.0172 1.8255,-0.2264 3.87485,-0.46488 2.80419,-0.32632 3.81651,-0.46739 4.09155,-0.57015 0.26016,-0.0972 0.48029,-0.25137 0.76398,-0.53507 0.49577,-0.49576 0.69022,-0.9569 0.6918,-1.64058 0.003,-1.22083 -0.79791,-2.17015 -2.01095,-2.38412 -0.34424,-0.0607 -5.1216,-0.72723 -5.21259,-0.72723 -0.0198,0 -0.0498,-0.21519 -0.0667,-0.4782 -0.0384,-0.59855 -0.25743,-1.09917 -0.67718,-1.54793 -0.32952,-0.35228 -0.94452,-0.70067 -1.35186,-0.76581 l -0.24876,-0.0398 0.002,-5.31065 c 8.7e-4,-2.95106 0.028,-5.42475 0.0611,-5.56744 0.0836,-0.36036 0.25489,-0.56954 0.6138,-0.74949 0.30853,-0.15469 0.31349,-0.15498 1.40409,-0.0821 3.87471,0.25892 7.27624,1.55231 10.35775,3.93839 0.75407,0.5839 2.30008,2.11607 2.90415,2.87816 1.9744,2.49089 3.19871,5.2873 3.68298,8.41224 0.15012,0.96874 0.17262,3.71453 0.0381,4.648 -0.32546,2.25807 -0.9893,4.29575 -2.01543,6.18643 -2.43031,4.47792 -6.78628,7.76205 -11.71974,8.83595 -1.1433,0.24887 -1.90031,0.33607 -3.20074,0.36868 -1.15335,0.0289 -1.33543,0.0194 -1.52866,-0.0802 z"
       style="fill:#ececec;fill-opacity:1;stroke:none;stroke-width:2;stroke-linecap:butt;stroke-linejoin:round;stroke-miterlimit:4;stroke-dasharray:none;stroke-dashoffset:0;stroke-opacity:1" />
    <path
       inkscape:connector-curvature="0"
       id="path5881"
       d="m 407.80928,491.26389 c -0.10986,-0.0557 -0.24979,-0.18604 -0.31095,-0.28957 -0.10402,-0.17609 -0.11121,-1.578 -0.11121,-21.70297 0,-19.10285 0.0111,-21.53625 0.0993,-21.70675 0.21651,-0.4187 -0.0608,-0.40143 5.9771,-0.3721 5.91484,0.0287 5.96478,0.0313 7.8676,0.41098 1.89659,0.37839 3.55717,0.94992 5.40085,1.85882 6.36785,3.13924 10.85479,9.15934 12.00517,16.10727 0.41834,2.52661 0.39603,5.18329 -0.0651,7.75125 -0.62176,3.46257 -2.21042,6.92066 -4.48408,9.7606 -0.74796,0.93425 -2.48198,2.66904 -3.39719,3.3987 -3.29734,2.62883 -6.95841,4.16172 -11.29268,4.72823 -1.2212,0.15962 -11.38841,0.20793 -11.68884,0.0555 z m 11.93687,-3.10146 c 6.22247,-0.95229 11.4565,-4.74912 14.31454,-10.38394 1.76995,-3.48957 2.40762,-7.78142 1.7332,-11.66531 -1.0365,-5.96904 -4.97492,-11.14907 -10.5676,-13.8991 -1.97683,-0.97205 -3.80458,-1.54667 -5.93969,-1.86736 -1.00392,-0.15078 -2.65442,-0.23246 -3.13467,-0.15511 -0.81542,0.13132 -1.52785,0.67023 -1.8805,1.42248 l -0.17416,0.37153 -0.0181,5.79363 -0.0181,5.79364 -2.43683,1.5497 c -2.60432,1.65622 -2.68661,1.72333 -3.08401,2.51468 -0.50878,1.01318 -0.49125,2.30666 0.0452,3.33315 0.30755,0.58853 1.01698,1.27088 1.61673,1.55499 0.96418,0.45676 1.27251,0.46953 3.64967,0.1511 l 0.21276,-0.0285 v 6.80797 c 0,4.8457 0.0213,6.89268 0.074,7.10189 0.1743,0.69222 0.83595,1.39241 1.57715,1.66902 0.31517,0.11763 0.46911,0.1263 1.75301,0.0988 0.94642,-0.0203 1.69247,-0.0737 2.27744,-0.16327 z m -9.83722,-1.35458 c 0.43757,-0.20764 0.42411,-0.0479 0.42411,-5.03136 0,-4.98253 0.0109,-4.85026 -0.41462,-5.05315 -0.3089,-0.1473 -0.64195,-0.0779 -0.858,0.1789 l -0.16761,0.19919 v 4.6135 c 0,5.09808 -0.0149,4.91408 0.4134,5.10036 0.27045,0.11763 0.34101,0.11676 0.60272,-0.007 z m 2.39979,-0.15217 c 0.10617,-0.11775 0.19156,-0.30596 0.21635,-0.4769 0.0225,-0.15531 0.032,-2.25614 0.021,-4.66852 -0.0216,-4.75845 -0.005,-4.54675 -0.38473,-4.77131 -0.29582,-0.17474 -0.56729,-0.13609 -0.82014,0.11676 l -0.22258,0.22258 v 4.65885 c 0,3.16705 0.0223,4.70053 0.0696,4.78899 0.0383,0.0716 0.16351,0.18888 0.27823,0.26068 0.28228,0.17669 0.61078,0.12554 0.84223,-0.13113 z"
       style="fill:#ffffff;fill-opacity:1;stroke:none;stroke-width:2;stroke-linecap:butt;stroke-linejoin:round;stroke-miterlimit:4;stroke-dasharray:none;stroke-dashoffset:0;stroke-opacity:1" />
    <path
       inkscape:connector-curvature="0"
       id="path5883"
       d="m 414.91558,471.08758 c 0,-0.0321 2.16287,-3.44026 2.2298,-3.51368 0.0303,-0.0332 0.38184,-0.0117 0.8263,0.0505 0.42548,0.0596 1.71245,0.2396 2.85994,0.40005 1.47297,0.20596 2.14591,0.32651 2.28895,0.41005 0.4314,0.25195 0.60397,0.93816 0.32867,1.3069 -0.30713,0.41137 -0.18598,0.38692 -4.31587,0.87097 -2.12175,0.24868 -3.93875,0.46269 -4.03776,0.47558 -0.099,0.0129 -0.18003,0.0127 -0.18003,-3.9e-4 z"
       style="fill:#dbdbdb;fill-opacity:1;stroke:none;stroke-width:2;stroke-linecap:butt;stroke-linejoin:round;stroke-miterlimit:4;stroke-dasharray:none;stroke-dashoffset:0;stroke-opacity:1" />
    <path
       inkscape:connector-curvature="0"
       id="path5885"
       d="m 411.00746,471.32376 c -0.43687,-0.16796 -0.9224,-0.60585 -1.16405,-1.04984 -0.24994,-0.45923 -0.3104,-1.26587 -0.1307,-1.74364 0.23505,-0.6249 0.33176,-0.7039 2.74407,-2.2417 2.24596,-1.43176 2.30355,-1.46367 2.68793,-1.48958 0.33148,-0.0223 0.4283,-0.002 0.62036,0.12811 0.35749,0.24285 0.52527,0.54126 0.52527,0.93422 0,0.39454 0.0953,0.22405 -1.69753,3.03661 -1.36067,2.13459 -1.4823,2.27594 -2.12202,2.46591 -0.4532,0.13459 -1.05162,0.11819 -1.46333,-0.0401 z m 1.2826,-1.55797 c 0.38673,-0.36126 0.23063,-1.01378 -0.28308,-1.18332 -0.44819,-0.14792 -0.88962,0.19255 -0.88691,0.68406 0.003,0.61709 0.71761,0.92185 1.16999,0.49926 z"
       style="fill:#a4a4a4;fill-opacity:1;stroke:none;stroke-width:2;stroke-linecap:butt;stroke-linejoin:round;stroke-miterlimit:4;stroke-dasharray:none;stroke-dashoffset:0;stroke-opacity:1" />
  </g>
  <path
     style="fill:#cccccc;fill-opacity:1;stroke:none;stroke-width:2;stroke-linecap:butt;stroke-linejoin:round;stroke-miterlimit:4;stroke-dasharray:2, 12;stroke-dashoffset:0;stroke-opacity:1"
     d="m 480.24499,136.75762 c -0.16518,-0.11035 -0.36987,-0.33905 -0.45487,-0.50823 -0.14511,-0.28882 -0.15455,-1.13012 -0.15468,-13.78101 -1.4e-4,-13.39003 9.8e-4,-13.47573 0.18055,-13.84666 0.11717,-0.24205 0.28498,-0.42274 0.47739,-0.51405 0.26977,-0.12801 3.24759,-0.1408 32.79256,-0.1408 29.16511,0 32.52298,0.014 32.76053,0.13688 0.14558,0.0753 0.34233,0.26421 0.43722,0.41984 0.16916,0.27743 0.17254,0.55038 0.17254,13.93898 0,13.54138 -10e-4,13.65846 -0.17838,13.94858 -0.36207,0.59387 2.48059,0.54711 -33.26004,0.54711 h -32.47248 z m 24.90295,-2.33748 c 0.45434,-0.24299 0.97804,-0.84308 1.09836,-1.25858 0.06,-0.20737 0.0818,-3.12355 0.0644,-8.62186 -0.0251,-7.93303 -0.0338,-8.32367 -0.19296,-8.64394 l -0.16663,-0.33542 1.28082,-1.29976 c 1.3439,-1.36378 1.4414,-1.52283 1.29049,-2.10524 -0.0846,-0.32659 -0.40183,-0.63536 -0.74338,-0.72363 -0.59585,-0.15398 -0.704,-0.0815 -2.42449,1.62386 l -1.64025,1.62586 -10.07286,0.0236 c -9.62907,0.0225 -10.0865,0.0308 -10.38223,0.18815 -0.43183,0.22973 -0.86519,0.65608 -1.0905,1.07287 l -0.19113,0.35355 v 8.35271 8.3527 l 0.25733,0.46442 c 0.14152,0.25543 0.39026,0.56582 0.55273,0.68974 0.64637,0.49301 0.0993,0.4714 11.47592,0.45343 l 10.51822,-0.0166 z m 13.34241,0.002 c 0.42139,-0.22549 0.88998,-0.73005 1.06335,-1.14499 0.16916,-0.40487 0.18115,-16.56143 0.0127,-17.12365 -0.0629,-0.20996 -0.27734,-0.53725 -0.50824,-0.77573 -0.66993,-0.69194 -0.77061,-0.70527 -5.09717,-0.67512 -3.40885,0.0238 -3.72341,0.0387 -4.00849,0.19035 -0.43184,0.22973 -0.8652,0.65607 -1.09051,1.07286 l -0.19113,0.35355 v 8.35271 8.3527 l 0.26183,0.4727 c 0.26308,0.47495 0.72587,0.86876 1.24078,1.05582 0.17893,0.065 1.5155,0.0908 4.11005,0.0794 3.77132,-0.0166 3.85182,-0.0206 4.20682,-0.2106 z m 24.15747,-1.13867 c 0.14869,-0.12512 0.31473,-0.37562 0.36897,-0.55668 0.1302,-0.43455 -0.0615,-0.91135 -0.46576,-1.1588 -0.28956,-0.17722 -0.38827,-0.17884 -9.54958,-0.15662 l -9.25699,0.0225 -0.26954,0.26955 c -0.49619,0.49622 -0.43429,1.29893 0.12654,1.64092 0.26173,0.1596 0.62844,0.16601 9.52411,0.16632 l 9.2519,3.6e-4 0.27035,-0.22749 z m -0.0725,-3.24234 c 0.68947,-0.46861 0.59858,-1.57474 -0.15528,-1.88973 -0.44171,-0.18456 -18.19315,-0.17814 -18.63562,0.007 -0.35886,0.14994 -0.66122,0.60077 -0.66168,0.98661 -4.4e-4,0.38093 0.34122,0.85323 0.70984,0.98119 0.2323,0.0807 2.5056,0.102 9.41029,0.0884 8.5206,-0.0168 9.11864,-0.0279 9.33245,-0.17321 z m 0.0524,-3.38815 c 0.13842,-0.10243 0.30226,-0.34778 0.36796,-0.55102 0.10555,-0.32653 0.10075,-0.40196 -0.0442,-0.69353 -0.0894,-0.17994 -0.27492,-0.40927 -0.41218,-0.50964 -0.24838,-0.18161 -0.29313,-0.18248 -9.45755,-0.18248 -10.03274,0 -9.4551,-0.0303 -9.78692,0.51388 -0.31957,0.52409 -0.18195,1.09149 0.35199,1.45131 l 0.30082,0.20273 9.21528,-0.0233 c 9.18969,-0.0232 9.21596,-0.0238 9.4648,-0.20795 z m -0.0766,-3.30895 c 0.4043,-0.2465 0.59605,-0.72328 0.46576,-1.15812 -0.0542,-0.18105 -0.22028,-0.43156 -0.36897,-0.55667 l -0.27035,-0.22749 h -9.2342 c -10.13916,0 -9.59918,-0.0288 -9.88682,0.52744 -0.25712,0.4972 -0.0864,1.15293 0.37465,1.43878 0.22427,0.13905 0.93606,0.15055 9.43496,0.15242 9.0662,0.002 9.1964,-4.4e-4 9.48497,-0.17636 z m 0.0968,-3.4072 c 0.14869,-0.12512 0.31473,-0.37562 0.36897,-0.55669 0.1302,-0.43454 -0.0615,-0.91134 -0.46576,-1.1588 -0.28956,-0.17722 -0.38827,-0.17884 -9.54958,-0.15662 l -9.25699,0.0224 -0.26954,0.26955 c -0.49619,0.49622 -0.43429,1.29895 0.12654,1.64093 0.26173,0.1596 0.62844,0.16601 9.52411,0.16632 l 9.2519,3.6e-4 0.27035,-0.22749 z m -0.26383,-3.18297 c 0.43856,-0.17548 0.65522,-0.4986 0.65522,-0.97718 0,-0.46005 -0.21582,-0.80338 -0.60802,-0.96725 -0.43775,-0.1829 -18.19505,-0.18749 -18.62665,-0.005 -0.40964,0.17338 -0.60882,0.43756 -0.65624,0.8704 -0.0528,0.48225 0.23681,0.94935 0.68424,1.10345 0.22905,0.0789 2.56274,0.10675 9.25383,0.11049 7.96755,0.004 8.98587,-0.0103 9.29762,-0.13509 z m -57.70776,-4.50165 c 0.1426,-0.0737 0.31962,-0.25075 0.39336,-0.39336 0.2739,-0.52966 0.0907,-1.20948 -0.39336,-1.4598 -0.95857,-0.4957 -1.95577,0.50072 -1.46019,1.45906 0.25145,0.48624 0.92859,0.669 1.46019,0.3941 z m 3.3629,-0.0167 c 0.83737,-0.49465 0.55202,-1.81212 -0.42075,-1.94259 -0.66607,-0.0893 -1.17728,0.37891 -1.17728,1.07834 0,0.41268 0.12125,0.63022 0.46968,0.84267 0.34782,0.21208 0.79149,0.22057 1.12835,0.0216 z"
     id="path4701"
     inkscape:connector-curvature="0" />
  <path
     style="fill:#808080;fill-opacity:1;stroke:none;stroke-width:2;stroke-linecap:butt;stroke-linejoin:round;stroke-miterlimit:4;stroke-dasharray:2, 12;stroke-dashoffset:0;stroke-opacity:1"
     d="m 484.14311,124.71647 v -7.82237 h 8.68356 8.68356 l -2.44287,2.45277 c -1.34357,1.34904 -2.48683,2.53967 -2.54057,2.64585 -0.43683,0.86318 0.56952,1.86955 1.43281,1.43285 0.10618,-0.0537 1.55535,-1.45556 3.22036,-3.11521 l 3.0273,-3.01755 v 7.62302 7.62301 h -10.03208 -10.03207 z m 11.03913,1.87842 c 1.47131,-0.75716 1.53682,-2.89413 0.11486,-3.74691 -0.5968,-0.35791 -1.11917,-0.43729 -1.72285,-0.2618 -0.95679,0.27815 -1.56458,1.08331 -1.56458,2.07265 0,0.6417 0.13251,1.00526 0.53239,1.4607 0.67032,0.76345 1.7149,0.95152 2.64018,0.47536 z"
     id="path4703"
     inkscape:connector-curvature="0" />
  <path
     style="fill:#808080;fill-opacity:1;stroke:none;stroke-width:2;stroke-linecap:butt;stroke-linejoin:round;stroke-miterlimit:4;stroke-dasharray:2, 12;stroke-dashoffset:0;stroke-opacity:1"
     d="m 510.83639,124.71647 v -7.82237 h 3.35876 3.35875 v 7.82237 7.82237 h -3.35875 -3.35876 z m 4.30368,1.9143 c 0.85283,-0.43508 1.3699,-1.44825 1.18326,-2.31854 -0.12861,-0.59967 -0.28339,-0.87561 -0.70459,-1.25615 -0.44057,-0.39802 -1.18046,-0.63424 -1.71411,-0.54724 -1.09077,0.17781 -1.91673,1.13089 -1.9187,2.21399 -0.002,0.82707 0.69115,1.76998 1.48767,2.02516 0.51676,0.16556 1.2074,0.11698 1.66647,-0.11722 z"
     id="path4705"
     inkscape:connector-curvature="0" />
  <path
     style="fill:#4d4d4d;fill-opacity:1;stroke:none;stroke-width:2;stroke-linecap:butt;stroke-linejoin:round;stroke-miterlimit:4;stroke-dasharray:2, 12;stroke-dashoffset:0;stroke-opacity:1"
     d="m 605.69878,196.81339 v -3.15625 h 1.47185 c 1.59947,0 1.74734,-0.0267 1.89098,-0.34201 0.11154,-0.24479 0.0919,-0.37793 -0.0871,-0.5907 l -0.1618,-0.19229 h -1.55695 -1.55694 v -3.15625 -3.15625 h 3.15625 3.15625 v 1.47185 c 0,1.19152 0.018,1.50668 0.0945,1.65467 0.16958,0.32793 0.71976,0.35176 0.93769,0.0406 0.0758,-0.10829 0.0928,-0.40931 0.0928,-1.6498 v -1.51734 h 3.15625 3.15625 v 3.15625 3.15625 h -1.52282 c -1.43126,0 -1.53243,0.008 -1.6827,0.12576 -0.33274,0.26173 -0.24705,0.79139 0.15045,0.92996 0.12301,0.0429 0.74284,0.0693 1.6269,0.0693 h 1.42817 v 3.15625 3.15625 h -3.15625 -3.15625 v -1.53606 -1.53606 l -0.18269,-0.18269 c -0.24563,-0.24563 -0.51399,-0.24563 -0.75962,0 l -0.18269,0.18269 v 1.53606 1.53606 h -3.15625 -3.15625 z m 8.08261,-1.17205 c 0.87637,-0.41644 1.45026,-1.18353 1.61025,-2.15231 0.30381,-1.83961 -1.40957,-3.53633 -3.25202,-3.22039 -2.62177,0.44959 -3.28682,3.91565 -1.00761,5.25136 0.53672,0.31454 0.85471,0.39153 1.53552,0.37178 0.57272,-0.0166 0.66589,-0.0376 1.11386,-0.25044 z"
     id="path4707"
     inkscape:connector-curvature="0" />
  <path
     style="fill:#4d4d4d;fill-opacity:1;stroke:none;stroke-width:2;stroke-linecap:butt;stroke-linejoin:round;stroke-miterlimit:4;stroke-dasharray:2, 12;stroke-dashoffset:0;stroke-opacity:1"
     d="m 620.57378,196.81339 v -3.15625 h 0.59576 c 0.73937,0 0.9871,-0.0892 1.08677,-0.3912 0.0854,-0.25885 0.0159,-0.48779 -0.19249,-0.63375 -0.10953,-0.0767 -0.29998,-0.10005 -0.81645,-0.10005 h -0.67359 v -3.15625 -3.15625 h 3.15625 3.15625 l 2.5e-4,0.60937 c 1.9e-4,0.4955 0.0232,0.64702 0.12306,0.81083 0.19545,0.32055 0.60935,0.35237 0.87498,0.0673 0.11113,-0.11931 0.12671,-0.21934 0.12671,-0.81366 v -0.67762 l 2.70777,0.0175 2.70778,0.0175 0.26044,0.17241 c 0.14324,0.0948 0.33803,0.28961 0.43285,0.43285 l 0.17241,0.26044 0.0175,2.70778 0.0175,2.70777 h -0.67762 c -0.59432,0 -0.69435,0.0156 -0.81366,0.12673 -0.28511,0.26562 -0.2533,0.67952 0.0673,0.87497 0.16381,0.0999 0.31533,0.12287 0.81083,0.12306 l 0.60937,2.4e-4 v 3.15625 3.15625 h -3.15625 -3.15625 v -0.68402 c 0,-0.62953 -0.0118,-0.69773 -0.14815,-0.85625 -0.20439,-0.23762 -0.53886,-0.23857 -0.77543,-0.002 -0.16126,0.16112 -0.17128,0.20593 -0.19132,0.85625 l -0.0212,0.68624 h -3.15072 -3.15072 z m 8.03125,0.68768 c 2.02362,-0.52818 3.40625,-2.32948 3.40625,-4.43768 0,-1.7233 -0.91846,-3.23716 -2.44623,-4.03199 -1.9412,-1.00992 -4.44168,-0.45484 -5.72163,1.27013 -0.97019,1.30753 -1.19557,2.84473 -0.64111,4.37268 0.53453,1.47301 1.93277,2.63236 3.52066,2.91914 0.42786,0.0773 1.41856,0.0287 1.88206,-0.0923 z"
     id="path4709"
     inkscape:connector-curvature="0" />
  <path
     style="fill:#4d4d4d;fill-opacity:1;stroke:none;stroke-width:2;stroke-linecap:butt;stroke-linejoin:round;stroke-miterlimit:4;stroke-dasharray:2, 12;stroke-dashoffset:0;stroke-opacity:1"
     d="m 620.57378,211.68839 v -3.15625 h 1.53606 1.53606 l 0.18269,-0.18269 c 0.24562,-0.24563 0.24562,-0.51399 0,-0.75962 l -0.18269,-0.18269 h -1.53606 -1.53606 v -3.15625 -3.15625 h 3.15625 3.15625 v 1.42817 c 0,0.88405 0.0264,1.50389 0.0693,1.6269 0.13856,0.3975 0.66823,0.48319 0.92996,0.15045 0.1182,-0.15027 0.12576,-0.25144 0.12576,-1.6827 v -1.52282 h 3.15625 3.15625 v 3.15625 3.15625 h -1.53409 -1.53409 l -0.15341,0.15341 c -0.10382,0.10382 -0.15341,0.22338 -0.15341,0.36989 0,0.57111 0.0967,0.6017 1.90315,0.6017 h 1.47185 v 2.62749 c 0,2.47124 -0.007,2.64153 -0.12047,2.86364 -0.16207,0.31767 -0.56711,0.67317 -0.85948,0.75436 -0.15027,0.0417 -1.183,0.0664 -2.78567,0.0667 l -2.54688,3.5e-4 v -1.55695 -1.55694 l -0.19229,-0.16181 c -0.21277,-0.17903 -0.34592,-0.19867 -0.59071,-0.0871 -0.31526,0.14364 -0.342,0.29151 -0.342,1.89097 v 1.47186 h -3.15625 -3.15625 z m 7.65625,-0.98055 c 0.43318,-0.1077 0.96212,-0.43309 1.3036,-0.80193 1.04093,-1.12432 1.03945,-2.74982 -0.004,-3.87635 -1.36735,-1.47691 -3.75758,-1.09253 -4.6353,0.74541 -0.22079,0.46233 -0.22728,0.49653 -0.22728,1.19791 0,0.70746 0.005,0.73147 0.23281,1.19305 0.63012,1.27497 1.94826,1.88537 3.32969,1.54191 z"
     id="path4711"
     inkscape:connector-curvature="0" />
  <path
     style="fill:#4d4d4d;fill-opacity:1;stroke:none;stroke-width:2;stroke-linecap:butt;stroke-linejoin:round;stroke-miterlimit:4;stroke-dasharray:2, 12;stroke-dashoffset:0;stroke-opacity:1"
     d="m 605.69878,211.68839 v -3.15625 h 0.62911 c 0.81617,0 1.05218,-0.12104 1.0564,-0.54177 0.005,-0.47397 -0.19333,-0.58323 -1.05741,-0.58323 h -0.6281 v -3.15625 -3.15625 h 3.15625 3.15625 v 0.65145 c 0,0.60967 0.0104,0.66379 0.16181,0.84375 0.12737,0.15138 0.21049,0.19188 0.39062,0.19031 0.45373,-0.004 0.57257,-0.22321 0.57257,-1.0564 v -0.62911 h 3.15625 3.15625 v 3.15625 3.15625 h -0.62911 c -0.83319,0 -1.05246,0.11884 -1.0564,0.57257 -0.002,0.18013 0.0389,0.26325 0.19031,0.39062 0.17996,0.15143 0.23408,0.16181 0.84375,0.16181 h 0.65145 v 3.15625 3.15625 h -3.15625 -3.15625 v -0.62811 c 0,-0.86407 -0.10926,-1.06216 -0.58324,-1.0574 -0.42072,0.004 -0.54176,0.24023 -0.54176,1.0564 v 0.62911 h -3.15625 -3.15625 z m 7.79951,0.74824 c 0.58021,-0.11503 1.462,-0.53413 1.9681,-0.93541 0.65163,-0.51668 1.21222,-1.35865 1.49828,-2.25033 0.1187,-0.36999 0.13997,-0.57252 0.13782,-1.3125 -0.002,-0.78995 -0.0194,-0.9236 -0.17549,-1.375 -0.48699,-1.40796 -1.53901,-2.45998 -2.94697,-2.94698 -0.4514,-0.15613 -0.58505,-0.17319 -1.375,-0.17548 -0.97625,-0.003 -1.39662,0.0919 -2.13595,0.48156 -0.90571,0.47731 -1.52314,1.12256 -1.98876,2.0784 -0.85747,1.76024 -0.513,3.79035 0.87943,5.18278 1.09816,1.09815 2.61026,1.55595 4.13854,1.25296 z"
     id="path4713"
     inkscape:connector-curvature="0" />
  <path
     style="fill:#ffe680;fill-opacity:1;stroke:none;stroke-width:2;stroke-linecap:butt;stroke-linejoin:round;stroke-miterlimit:4;stroke-dasharray:2, 12;stroke-dashoffset:0;stroke-opacity:1"
     d="m 626.79253,196.45942 c -0.17187,-0.0323 -0.5471,-0.17182 -0.83383,-0.31005 -0.71143,-0.34297 -1.22276,-0.85465 -1.56357,-1.56465 -0.38176,-0.79531 -0.4606,-1.39707 -0.28942,-2.20883 0.33338,-1.58084 1.72517,-2.71875 3.32533,-2.71875 1.0068,0 1.75875,0.30603 2.45713,1 0.68898,0.68464 0.99811,1.44506 0.99811,2.45523 0,0.97707 -0.37052,1.80689 -1.11326,2.49327 -0.7993,0.73865 -1.90613,1.05571 -2.98049,0.85378 z"
     id="path4715"
     inkscape:connector-curvature="0" />
  <path
     style="fill:#ffe680;fill-opacity:1;stroke:none;stroke-width:2;stroke-linecap:butt;stroke-linejoin:round;stroke-miterlimit:4;stroke-dasharray:2, 12;stroke-dashoffset:0;stroke-opacity:1"
     d="m 627.11969,209.65231 c -0.82957,-0.19783 -1.35486,-0.84947 -1.35643,-1.68267 -0.002,-1.1431 1.07001,-1.97414 2.14408,-1.6619 0.46446,0.13502 0.84528,0.43737 1.07264,0.85162 0.16184,0.29488 0.18725,0.40555 0.18605,0.81028 -10e-4,0.50111 -0.10657,0.78459 -0.43588,1.17596 -0.32384,0.38486 -1.09888,0.62872 -1.61046,0.50671 z"
     id="path4717"
     inkscape:connector-curvature="0" />
  <path
     style="fill:#ffe680;fill-opacity:1;stroke:none;stroke-width:2;stroke-linecap:butt;stroke-linejoin:round;stroke-miterlimit:4;stroke-dasharray:2, 12;stroke-dashoffset:0;stroke-opacity:1"
     d="m 611.77829,211.31733 c -1.23458,-0.29915 -2.31805,-1.41385 -2.57345,-2.64764 -0.36963,-1.78559 0.80076,-3.62598 2.57142,-4.04345 2.48592,-0.58612 4.72586,1.65952 4.13893,4.14945 -0.28576,1.21228 -1.32647,2.25031 -2.54389,2.53735 -0.46995,0.1108 -1.14594,0.11262 -1.59301,0.004 z"
     id="path4719"
     inkscape:connector-curvature="0" />
  <path
     style="fill:#ffe680;fill-opacity:1;stroke:none;stroke-width:2;stroke-linecap:butt;stroke-linejoin:round;stroke-miterlimit:4;stroke-dasharray:2, 12;stroke-dashoffset:0;stroke-opacity:1"
     d="m 611.85503,194.63293 c -0.87217,-0.41302 -1.23918,-1.45303 -0.81715,-2.31563 0.3036,-0.62053 0.82202,-0.93779 1.5359,-0.93991 0.40472,-0.001 0.5154,0.0242 0.81028,0.18605 0.78549,0.43111 1.12382,1.37934 0.7836,2.19617 -0.12957,0.31108 -0.53515,0.71682 -0.87513,0.87547 -0.43182,0.20152 -1.00924,0.20066 -1.4375,-0.002 z"
     id="path4721"
     inkscape:connector-curvature="0" />
</svg>
