<?xml version="1.0" encoding="UTF-8" standalone="no"?>
<!-- Created with Inkscape (http://www.inkscape.org/) -->

<svg
   xmlns:osb="http://www.openswatchbook.org/uri/2009/osb"
   xmlns:dc="http://purl.org/dc/elements/1.1/"
   xmlns:cc="http://creativecommons.org/ns#"
   xmlns:rdf="http://www.w3.org/1999/02/22-rdf-syntax-ns#"
   xmlns:svg="http://www.w3.org/2000/svg"
   xmlns="http://www.w3.org/2000/svg"
   xmlns:sodipodi="http://sodipodi.sourceforge.net/DTD/sodipodi-0.dtd"
   xmlns:inkscape="http://www.inkscape.org/namespaces/inkscape"
   version="1.1"
   id="svg4485"
   width="326.16568"
   height="388.4787"
   viewBox="0 0 326.16567 388.47871"
   sodipodi:docname="master.svg"
   inkscape:version="0.92.1 r15371">
  <metadata
     id="metadata141">
    <rdf:RDF>
      <cc:Work
         rdf:about="">
        <dc:format>image/svg+xml</dc:format>
        <dc:type
           rdf:resource="http://purl.org/dc/dcmitype/StillImage" />
        <dc:title></dc:title>
      </cc:Work>
    </rdf:RDF>
  </metadata>
  <defs
     id="defs4489">
    <linearGradient
       id="linearGradient5843"
       osb:paint="solid">
      <stop
         style="stop-color:#000000;stop-opacity:1;"
         offset="0"
         id="stop5841" />
    </linearGradient>
    <inkscape:perspective
       sodipodi:type="inkscape:persp3d"
       inkscape:vp_x="0 : 341.97789 : 1"
       inkscape:vp_y="0 : 999.99999 : 0"
       inkscape:vp_z="1516.0488 : 341.97789 : 1"
       inkscape:persp3d-origin="758.0244 : 227.98526 : 1"
       id="perspective4155" />
    <linearGradient
       id="linearGradient5407"
       osb:paint="solid">
      <stop
         style="stop-color:#070707;stop-opacity:1;"
         offset="0"
         id="stop5405" />
    </linearGradient>
  </defs>
  <sodipodi:namedview
     pagecolor="#332a29"
     bordercolor="#666666"
     borderopacity="1"
     objecttolerance="10"
     gridtolerance="10000"
     guidetolerance="10000"
     inkscape:pageopacity="0"
     inkscape:pageshadow="2"
     inkscape:window-width="1920"
     inkscape:window-height="1017"
     id="namedview4487"
     showgrid="true"
     inkscape:zoom="4.0000002"
     inkscape:cx="221.91979"
     inkscape:cy="314.56617"
     inkscape:window-x="-8"
     inkscape:window-y="-8"
     inkscape:window-maximized="1"
     inkscape:current-layer="svg4485"
     inkscape:snap-nodes="true"
     inkscape:snap-grids="true"
     inkscape:snap-object-midpoints="true"
     inkscape:snap-global="false"
     inkscape:snap-bbox="false"
     inkscape:object-paths="true"
     inkscape:snap-others="true"
     inkscape:snap-smooth-nodes="false"
     inkscape:snap-midpoints="true"
     inkscape:snap-center="false"
     inkscape:snap-text-baseline="true"
     inkscape:object-nodes="true"
     inkscape:snap-intersection-paths="true"
     fit-margin-top="10"
     fit-margin-left="10"
     fit-margin-right="10"
     fit-margin-bottom="10"
     showguides="true"
     inkscape:guide-bbox="true"
     inkscape:pagecheckerboard="false"
     inkscape:measure-start="0,0"
     inkscape:measure-end="0,0">
    <inkscape:grid
       empspacing="1"
       type="xygrid"
       id="grid4496"
       spacingx="1"
       spacingy="1"
       originx="134.90794"
       originy="-651.24496" />
  </sodipodi:namedview>
  <rect
     style="fill:none;fill-opacity:1;stroke:none;stroke-width:2.37573647;stroke-miterlimit:4;stroke-dasharray:none;stroke-opacity:1"
     id="content"
     width="306.16568"
     height="323.39108"
     x="10"
     y="55.087616"
     inkscape:label="content" />
  <g
     id="floorplan.first_floor_button"
     inkscape:label="floorplan.first_floor_button"
     transform="matrix(1,0,0,1.0044596,226.31398,-102.78109)"
     style="stroke-width:0.99777764">
    <g
       inkscape:label="upstairs"
       style="stroke-width:4.19477367"
       transform="matrix(0.23757697,0,0,0.23814753,61.404322,119.42072)"
       id="g4562">
      <polygon
         style="stroke-width:4.19477367"
         points="32.3,34.4 39.5,27.2 39.5,11.9 39.5,9.4 39.5,4.8 17.5,4.8 10.4,11.9 17.3,11.9 27.5,11.9 10.4,28.9 15.3,33.8 32.3,16.9 32.3,27.2 "
         id="polygon4542" />
      <polygon
         style="fill:#ffffff;fill-opacity:0.39215686;stroke-width:4.19477367"
         points="81.8,38.3 81.8,19.2 100,19.2 100,10.2 72.8,10.2 72.8,29.3 54.6,29.3 54.6,29.4 54.6,48.5 36.4,48.5 36.4,67.6 18.2,67.6 18.2,67.7 18.2,86.8 0,86.8 0,95.8 27.2,95.8 27.2,76.6 45.4,76.6 45.4,57.5 63.6,57.5 63.6,38.3 "
         id="polygon4544" />
    </g>
    <rect
       inkscape:label="button"
       y="112.88053"
       x="55.92918"
       height="35.847137"
       width="33.215206"
       id="first_floor_button"
       style="fill:#cccccc;fill-opacity:0.32352941;stroke:#000000;stroke-width:1.20032644;stroke-miterlimit:4;stroke-dasharray:none;stroke-opacity:1" />
  </g>
  <g
     id="floorplan.ground_floor_button"
     inkscape:label="floorplan.first_floor_button"
     transform="translate(189.87907,-143.05355)">
    <g
       transform="matrix(0.45014033,0,0,0.45012576,100.06417,110.95406)"
       inkscape:label="downstairs icon"
       style="stroke-width:3.83510232"
       id="g4634">
      <polygon
         transform="matrix(0.52779097,0,0,0.5290585,-86.277433,108.98237)"
         style="stroke-width:7.2576189"
         points="10.4,12 10.4,27.4 10.4,29.9 10.4,34.4 32.4,34.4 39.5,27.4 32.7,27.4 22.5,27.4 39.5,10.3 34.6,5.4 17.6,22.4 17.6,12 17.6,4.8 "
         id="polygon4630" />
      <polygon
         transform="matrix(0.52779097,0,0,0.5290585,-86.277433,108.98237)"
         style="fill:#ffffff;fill-opacity:0.39215686;stroke-width:7.2576189"
         points="0,95.8 27.2,95.8 27.2,76.6 45.4,76.6 45.4,57.5 63.6,57.5 63.6,38.3 81.8,38.3 81.8,19.2 100,19.2 100,10.2 72.8,10.2 72.8,29.3 54.6,29.3 54.6,29.4 54.6,48.5 36.4,48.5 36.4,67.6 18.2,67.6 18.2,67.7 18.2,86.8 0,86.8 "
         id="polygon4632" />
    </g>
    <rect
       style="fill:#cccccc;fill-opacity:0.32352941;stroke:#000000;stroke-width:1.20299995;stroke-miterlimit:4;stroke-dasharray:none;stroke-opacity:1"
       id="22312"
       width="33.215206"
       height="36.007206"
       x="56.209087"
       y="153.65753"
       inkscape:label="button" />
  </g>
</svg>
